<svg width="200" height="200" viewBox="0 0 200 200" fill="none" xmlns="http://www.w3.org/2000/svg">
<path d="M200 152.96H0V153.061H200V152.96Z" fill="#EBEBEB"/>
<path d="M35.8 155.684H20.984V155.784H35.8V155.684Z" fill="#EBEBEB"/>
<path d="M96 157.848H67.6V157.949H96V157.848Z" fill="#EBEBEB"/>
<path d="M58.268 155.732H37.968V155.832H58.268V155.732Z" fill="#EBEBEB"/>
<path d="M182.18 158.724H162.712V158.824H182.18V158.724Z" fill="#EBEBEB"/>
<path d="M160.932 158.724H148.144V158.824H160.932V158.724Z" fill="#EBEBEB"/>
<path d="M135.688 157.036H110.884V157.136H135.688V157.036Z" fill="#EBEBEB"/>
<path d="M94.8 135.12H17.564C16.9589 135.119 16.379 134.878 15.9516 134.45C15.5241 134.021 15.284 133.441 15.284 132.836V24.264C15.2893 23.6624 15.5317 23.0872 15.9586 22.6633C16.3855 22.2394 16.9624 22.001 17.564 22H94.8C95.4058 22 95.9867 22.2406 96.415 22.669C96.8434 23.0973 97.084 23.6782 97.084 24.284V132.836C97.084 133.442 96.8434 134.023 96.415 134.451C95.9867 134.879 95.4058 135.12 94.8 135.12ZM17.564 22.08C16.9855 22.0811 16.431 22.3116 16.0223 22.7211C15.6135 23.1306 15.384 23.6855 15.384 24.264V132.836C15.384 133.415 15.6135 133.969 16.0223 134.379C16.431 134.788 16.9855 135.019 17.564 135.02H94.8C95.3789 135.019 95.9338 134.789 96.3432 134.379C96.7525 133.97 96.983 133.415 96.984 132.836V24.264C96.983 23.6851 96.7525 23.1302 96.3432 22.7208C95.9338 22.3115 95.3789 22.0811 94.8 22.08H17.564Z" fill="#EBEBEB"/>
<path d="M181.324 135.12H104.084C103.479 135.119 102.898 134.878 102.47 134.45C102.042 134.022 101.801 133.441 101.8 132.836V24.264C101.806 23.662 102.05 23.0868 102.477 22.663C102.905 22.2392 103.482 22.001 104.084 22H181.324C181.925 22.0021 182.501 22.2409 182.927 22.6647C183.353 23.0885 183.595 23.6631 183.6 24.264V132.836C183.6 133.44 183.36 134.02 182.934 134.448C182.507 134.876 181.928 135.118 181.324 135.12ZM104.084 22.08C103.505 22.0811 102.95 22.3115 102.541 22.7208C102.131 23.1302 101.901 23.6851 101.9 24.264V132.836C101.901 133.415 102.131 133.97 102.541 134.379C102.95 134.789 103.505 135.019 104.084 135.02H181.324C181.903 135.019 182.458 134.789 182.867 134.379C183.276 133.97 183.507 133.415 183.508 132.836V24.264C183.507 23.6851 183.276 23.1302 182.867 22.7208C182.458 22.3115 181.903 22.0811 181.324 22.08H104.084Z" fill="#EBEBEB"/>
<path d="M46.96 91.912L163.716 91.912V27.296L46.96 27.296L46.96 91.912Z" fill="#EBEBEB"/>
<path d="M46.956 27.296H45.58V91.912H46.956V27.296Z" fill="#BCB272"/>
<path d="M51.16 87.708L159.512 87.708V31.5L51.16 31.5V87.708Z" fill="white"/>
<path d="M128.2 87.708H134.292L143.492 31.5H137.404L128.2 87.708Z" fill="#F4F4F4"/>
<path d="M107.996 87.708H122.46L131.66 31.5H117.196L107.996 87.708Z" fill="#F4F4F4"/>
<path d="M66.188 87.708H72.28L81.48 31.5H75.392L66.188 87.708Z" fill="#F4F4F4"/>
<path d="M95.112 106.044H77.512V149.86H95.112V106.044Z" fill="#F0F0F0"/>
<path d="M171.948 149.86H80.892V152.96H171.948V149.86Z" fill="#F0F0F0"/>
<path d="M95.112 149.864H175.328V106.048H95.112V149.864Z" fill="#F4F4F4"/>
<path d="M94.804 125.048L175.328 125.048V109.012L94.804 109.012V125.048Z" fill="#F0F0F0"/>
<path d="M94.804 144.012H175.328V127.976L94.804 127.976V144.012Z" fill="#F0F0F0"/>
<path d="M95.112 109.012H92.068V125.048H95.112V109.012Z" fill="#BCB272"/>
<path d="M95.112 127.972H92.068V144.008H95.112V127.972Z" fill="#BCB272"/>
<path d="M177.672 103.348H95.112V106.044H177.672V103.348Z" fill="#F0F0F0"/>
<path d="M75.052 106.048H95.112V103.352H75.052V106.048Z" fill="#BCB272"/>
<path d="M48.836 100.536H59.736C61.6566 100.563 63.5136 101.228 65.0153 102.425C66.517 103.623 67.5782 105.286 68.032 107.152L70.912 119.176H76.828H76.848C78.215 119.176 79.5392 119.652 80.5927 120.523C81.6463 121.394 82.3632 122.605 82.62 123.948L83.42 128.068C84.016 128.158 84.5718 128.424 85.0169 128.83C85.462 129.237 85.7763 129.767 85.92 130.352H56.68C54.7608 130.326 52.9048 129.662 51.4038 128.466C49.9028 127.27 48.8419 125.609 48.388 123.744L44.24 106.46C44.0524 105.759 44.0296 105.023 44.1733 104.312C44.3171 103.6 44.6234 102.931 45.0684 102.358C45.5134 101.784 46.0851 101.321 46.7386 101.005C47.3922 100.689 48.11 100.529 48.836 100.536ZM77.468 128.02H81.844L81.108 124.224C80.9191 123.232 80.3904 122.337 79.6128 121.693C78.8353 121.05 77.8576 120.697 76.848 120.696L71.296 120.716L72 123.644C72.2989 124.876 72.9979 125.973 73.9873 126.765C74.9768 127.557 76.2009 127.998 77.468 128.02Z" fill="#BCB272"/>
<path d="M57.4 130.336H56.152L51.236 152.96H52.484L57.4 130.336Z" fill="#BCB272"/>
<path d="M62.088 130.336H60.836L55.924 152.96H57.172L62.088 130.336Z" fill="#BCB272"/>
<path d="M80.48 130.336H81.728L86.644 152.96H85.392L80.48 130.336Z" fill="#BCB272"/>
<path d="M75.792 130.336H77.04L81.956 152.96H80.708L75.792 130.336Z" fill="#BCB272"/>
<path d="M26.232 152.96H28.268L28.268 86.712H26.232L26.232 152.96Z" fill="#F0F0F0"/>
<path d="M25.808 152.496L25.756 152.216C25.9643 152.147 26.1565 152.036 26.3214 151.891C26.4863 151.746 26.6204 151.57 26.716 151.372C27.244 150.436 27.568 148.44 26.096 144.252C23.828 137.8 25.18 132.596 27.876 122.224C28.348 120.42 28.88 118.372 29.432 116.16C31.504 107.876 29.588 102.736 28.048 98.604C26.848 95.404 25.908 92.864 27.116 89.932L27.384 90.044C26.216 92.872 27.144 95.356 28.316 98.504C29.872 102.672 31.804 107.856 29.712 116.232C29.16 118.444 28.628 120.492 28.156 122.3C25.476 132.612 24.128 137.788 26.368 144.156C27.88 148.46 27.524 150.556 26.96 151.528C26.845 151.76 26.6833 151.966 26.4851 152.132C26.2868 152.299 26.0563 152.423 25.808 152.496Z" fill="#F0F0F0"/>
<path d="M23.564 152.96H30.932L28.884 151.752H25.612L23.564 152.96Z" fill="#F0F0F0"/>
<path d="M18.008 95.148H36.492L34.456 70.652H20.04L18.008 95.148Z" fill="#BCB272"/>
<path d="M148.992 89.536H165.912L163.684 103.348H151.22L148.992 89.536Z" fill="#F0F0F0"/>
<path d="M155.78 96.08C160.388 96.632 170.408 96.16 171.58 88.224C172.752 80.288 149.904 78.916 145.784 79.176C140.532 79.508 136.28 83.436 136.28 83.436C136.28 83.436 151.176 95.528 155.78 96.08Z" fill="#BCB272"/>
<path d="M162.62 95.056C159.348 95.38 153.784 93.056 155.984 86.656C158.184 80.256 162.692 79.672 165.672 79.14C169.468 78.46 177.06 81.344 177.06 81.344C177.06 81.344 165.892 94.732 162.62 95.056Z" fill="#BCB272"/>
<path d="M154.056 84.52C158.18 86.26 161.636 86.852 159.684 81.428C157.732 76.004 155.356 73.4 151.484 72.3C146.552 70.892 140.684 73.9 140.684 73.9C140.684 73.9 149.936 82.8 154.056 84.52Z" fill="#BCB272"/>
<path d="M159.652 83.508C156.504 84.376 154.024 84.192 156.372 78.968C158.72 73.744 160.284 73.088 162.976 72.088C167.952 70.236 172.12 73.56 172.12 73.56C172.12 73.56 162.8 82.644 159.652 83.508Z" fill="#BCB272"/>
<path d="M152.8 75.532C156.22 78.332 159.368 80.08 159.228 75.752C159.088 71.424 156.668 67.544 152.988 65.796C150.456 64.596 144.856 65.136 144.856 65.136C144.856 65.136 149.38 72.748 152.8 75.532Z" fill="#BCB272"/>
<path d="M154.828 70.244C155.628 74.584 156.868 77.972 159.572 74.588C162.276 71.204 162.508 68.032 161.408 64.112C160 59.112 155.54 57.2 155.54 57.2C155.54 57.2 154.036 65.908 154.828 70.244Z" fill="#BCB272"/>
<path d="M161.62 73.936C159.38 75.592 157.44 76.468 158.144 72.952C158.848 69.436 160.1 68.484 162.24 67.244C163.989 66.3075 166.013 66.0239 167.952 66.444C167.952 66.444 163.856 72.276 161.62 73.936Z" fill="#BCB272"/>
<path d="M100 171.024C142.833 171.024 177.556 168.997 177.556 166.496C177.556 163.995 142.833 161.968 100 161.968C57.167 161.968 22.444 163.995 22.444 166.496C22.444 168.997 57.167 171.024 100 171.024Z" fill="#F4F4F4"/>
<path d="M102.624 60.068C102.9 60.412 103.244 60.82 103.56 61.196C103.876 61.572 104.22 61.952 104.556 62.324C105.232 63.064 105.916 63.792 106.624 64.468C107.307 65.1246 108.025 65.7429 108.776 66.32C109.387 66.8097 110.07 67.2023 110.8 67.484L110.9 67.52C110.928 67.52 110.9 67.52 110.92 67.52H110.94C110.94 67.52 110.984 67.52 111.052 67.52C111.293 67.4646 111.52 67.3582 111.716 67.208C112.387 66.696 112.978 66.0882 113.472 65.404C114.068 64.6337 114.61 63.8239 115.096 62.98C115.348 62.548 115.604 62.116 115.84 61.672C116.076 61.228 116.316 60.76 116.524 60.352L116.564 60.272C116.735 59.8486 117.067 59.5102 117.487 59.3312C117.907 59.1522 118.381 59.1472 118.805 59.3172C119.229 59.4873 119.568 59.8185 119.747 60.2382C119.927 60.658 119.933 61.1319 119.764 61.556C119.106 63.748 118.181 65.8506 117.008 67.816C116.346 68.9192 115.52 69.9158 114.56 70.772C113.944 71.311 113.231 71.7289 112.46 72.004C111.992 72.1627 111.502 72.2504 111.008 72.264C110.749 72.2727 110.489 72.2594 110.232 72.224C110.108 72.224 109.96 72.184 109.86 72.16L109.576 72.096C108.278 71.7375 107.049 71.1642 105.94 70.4C104.954 69.7538 104.018 69.0344 103.14 68.248C102.28 67.492 101.468 66.712 100.692 65.9C100.292 65.5 99.924 65.1 99.552 64.668C99.18 64.236 98.828 63.84 98.44 63.356C97.9955 62.8038 97.7886 62.0977 97.8647 61.3929C97.9409 60.6882 98.2938 60.0425 98.846 59.598C99.3982 59.1535 100.104 58.9466 100.809 59.0227C101.514 59.0988 102.16 59.4518 102.604 60.004L102.624 60.068Z" fill="#263238"/>
<path d="M118.248 61.348L120.896 61.72L120.116 58.884C120.116 58.884 117.368 58.52 117.316 59.952L117.448 60.58C117.487 60.7746 117.584 60.9526 117.727 61.0899C117.87 61.2273 118.052 61.3174 118.248 61.348Z" fill="#CE7A63"/>
<path d="M123.28 60.504V57.94L120.116 58.884L120.896 61.72L123.28 60.504Z" fill="#CE7A63"/>
<path d="M112.696 162.048L115.596 161.108L113.792 154.272L110.892 155.212L112.696 162.048Z" fill="#CE7A63"/>
<path d="M115.64 160.724L112.4 161.78C112.373 161.788 112.347 161.801 112.325 161.819C112.303 161.836 112.284 161.858 112.27 161.883C112.257 161.908 112.248 161.936 112.245 161.964C112.242 161.992 112.244 162.021 112.252 162.048L112.928 164.676C112.972 164.812 113.068 164.924 113.194 164.99C113.321 165.056 113.468 165.07 113.604 165.028C114.732 164.628 115.252 164.396 116.684 163.932C118.428 163.255 120.12 162.453 121.748 161.532C122.808 160.868 122.128 159.8 121.608 159.992C119.276 160.844 117.244 161.12 116.216 160.744C116.032 160.671 115.829 160.664 115.64 160.724Z" fill="#263238"/>
<path opacity="0.2" d="M110.892 155.216L113.796 154.272L114.72 157.796L111.82 158.74L110.892 155.216Z" fill="black"/>
<path d="M103.828 86C103.828 86 107.452 111.2 108.672 119.856C110.008 129.336 115.748 156.656 115.748 156.656L110.368 158.144C110.368 158.144 102.188 131.68 100 122.464C97.636 112.464 92.924 86 92.924 86H103.828Z" fill="#263238"/>
<path d="M98 113.072C96.892 107.512 95.692 101.148 94.74 95.988C95.232 94.664 95.98 93.988 97.436 96.98C99.6 101.416 98.916 108.736 98 113.072Z" fill="#263238"/>
<path opacity="0.3" d="M98 113.072C96.892 107.512 95.692 101.148 94.74 95.988C95.232 94.664 95.98 93.988 97.436 96.98C99.6 101.416 98.916 108.736 98 113.072Z" fill="black"/>
<path d="M110.232 158.264L115.996 156.676L115.884 154.328L109.396 156.572L110.232 158.264Z" fill="#263238"/>
<path d="M89.872 163.384H92.916L93.312 156.324H90.264L89.872 163.384Z" fill="#CE7A63"/>
<path d="M93.076 163.028H89.652C89.6236 163.027 89.5953 163.031 89.5687 163.041C89.5421 163.051 89.5177 163.066 89.4969 163.086C89.4761 163.105 89.4593 163.128 89.4475 163.154C89.4357 163.18 89.429 163.208 89.428 163.236L89.26 165.948C89.26 166.091 89.3164 166.227 89.4168 166.328C89.5172 166.43 89.6535 166.487 89.796 166.488C90.996 166.468 91.556 166.4 93.064 166.4C93.988 166.4 96.592 166.496 97.864 166.496C99.136 166.496 99.108 165.232 98.564 165.116C96.136 164.6 94.456 163.892 93.596 163.216C93.4475 163.099 93.2651 163.033 93.076 163.028Z" fill="#263238"/>
<path opacity="0.2" d="M90.264 156.324H93.316L93.108 159.964H90.06L90.264 156.324Z" fill="black"/>
<path d="M97.872 85.844C97.872 85.844 97.652 109.288 97.156 118.016C96.616 127.572 94.4 159.084 94.4 159.084H88.8C88.8 159.084 88.456 128.344 88.12 118.884C87.756 108.612 87.32 85.844 87.32 85.844H97.872Z" fill="#263238"/>
<path d="M88.608 159.084H94.64L94.976 156.968L88.316 157.3L88.608 159.084Z" fill="#263238"/>
<path d="M103.848 86.164L87.352 85.844C87.236 84.388 87.752 79.808 87.496 73.776C87.3415 69.3055 86.7994 64.8568 85.876 60.48C85.8476 60.3531 85.8453 60.2218 85.8694 60.0941C85.8935 59.9663 85.9433 59.8448 86.016 59.7369C86.0886 59.6291 86.1825 59.5372 86.2918 59.4669C86.4012 59.3966 86.5237 59.3493 86.652 59.328C86.94 59.276 87.284 59.224 87.664 59.168C88.644 59.024 89.88 58.876 91.088 58.816C93.3899 58.6812 95.6975 58.6758 98 58.8C98.7803 58.8624 99.5563 58.9706 100.324 59.124C100.775 59.2068 101.215 59.341 101.636 59.524C101.928 59.63 102.167 59.8451 102.304 60.124C103.068 62.212 103.864 71.004 103.848 86.164Z" fill="#F0F0F0"/>
<path d="M89.16 63.624C88.6 64.56 88.004 65.584 87.46 66.58C86.916 67.576 86.364 68.58 85.86 69.616C85.356 70.652 84.88 71.66 84.444 72.684L84.128 73.448L83.844 74.212C83.744 74.468 83.672 74.72 83.592 74.972L83.468 75.348C83.4469 75.4163 83.4296 75.4858 83.416 75.556C83.342 76.018 83.2979 76.4843 83.284 76.952C83.284 77.484 83.284 78.04 83.284 78.6C83.308 79.728 83.384 80.884 83.464 82.04C83.544 83.196 83.644 84.368 83.756 85.536C83.868 86.704 83.98 87.88 84.096 89.032V89.06C84.1427 89.496 84.0215 89.9335 83.757 90.2833C83.4925 90.6331 83.1047 90.869 82.6724 90.9429C82.2401 91.0168 81.7959 90.9232 81.4302 90.6812C81.0646 90.4391 80.8049 90.0668 80.704 89.64C80.124 87.28 79.656 84.936 79.26 82.536C79.064 81.336 78.904 80.136 78.776 78.884C78.716 78.26 78.664 77.628 78.64 76.972C78.6026 76.2526 78.6267 75.5313 78.712 74.816C78.732 74.628 78.792 74.348 78.836 74.152L78.956 73.672C79.04 73.352 79.116 73.028 79.212 72.724L79.496 71.8L79.804 70.896C80.228 69.7093 80.6947 68.5507 81.204 67.42C81.712 66.292 82.24 65.184 82.804 64.092C83.368 63 83.94 61.944 84.6 60.844C84.9815 60.272 85.5688 59.8691 86.2397 59.719C86.9106 59.5689 87.6136 59.6832 88.2024 60.0382C88.7913 60.3931 89.2206 60.9613 89.4012 61.6247C89.5818 62.2881 89.4997 62.9956 89.172 63.6L89.16 63.624Z" fill="#263238"/>
<path d="M97.684 58.8C95.684 58.324 95.316 57.08 95.452 55.708C95.4828 55.3648 95.5362 55.0241 95.612 54.688L93.088 52.592L91.232 51.056C91.748 53.288 92.328 57.352 90.832 58.844C92.3211 59.8837 94.1046 60.4179 95.92 60.368C98.876 60.236 97.684 58.8 97.684 58.8Z" fill="#CE7A63"/>
<path d="M95.792 60.352L95.52 59.68L93.84 60.684L95.792 60.352Z" fill="#BCB272"/>
<path d="M95.792 60.352L95.928 59.68L97.608 60.684L95.792 60.352Z" fill="#BCB272"/>
<path d="M90.948 58.42C92.4105 59.0378 93.9476 59.4614 95.52 59.68C94.9926 60.3185 94.5676 61.0351 94.26 61.804C93.528 61.608 90.32 59.648 89.612 58.704L90.948 58.42Z" fill="white"/>
<path d="M97.2 58.492C96.8982 59.0044 96.4571 59.4205 95.928 59.692C96.547 60.2259 97.0752 60.8568 97.492 61.56C98.0123 60.7067 98.2555 59.7131 98.188 58.716L97.2 58.492Z" fill="white"/>
<path opacity="0.3" d="M90.8 58.156C90.8 58.156 88.58 58.636 86.7 59.212C86.0377 59.4151 85.4656 59.8402 85.0802 60.4158C84.6948 60.9914 84.5195 61.6823 84.584 62.372C84.984 66.428 86.824 73.788 86.86 76.9C86.904 80.784 87.72 88.1 87.72 88.1L96.036 89.816C96.036 89.816 97.052 60.8 90.8 58.156Z" fill="black"/>
<path opacity="0.3" d="M97.24 58.42C97.24 58.42 99.088 58.616 100.792 58.976C101.491 59.1235 102.123 59.4943 102.593 60.0326C103.063 60.5709 103.345 61.2474 103.396 61.96C103.852 68.676 103.636 75.432 103.852 79.076C104.076 82.952 103.78 87.976 103.78 87.976L100.528 88.916C100.528 88.916 99.708 63.5 97.24 58.42Z" fill="black"/>
<path d="M90.8 58.156C90.8 58.156 88.58 58.636 86.7 59.212C86.0377 59.4151 85.4656 59.8402 85.0802 60.4158C84.6948 60.9914 84.5195 61.6823 84.584 62.372C84.984 66.428 86.184 73.832 86.212 76.944C86.26 80.828 85.832 87.608 85.832 87.608L95.276 88.516C95.276 88.516 97.052 60.8 90.8 58.156Z" fill="#263238"/>
<path d="M97.24 58.42C97.24 58.42 99.088 58.616 100.792 58.976C101.491 59.1235 102.123 59.4943 102.593 60.0326C103.063 60.5709 103.345 61.2474 103.396 61.96C103.852 68.676 104.128 75.404 104.34 79.048C104.568 82.924 104.588 87.744 104.588 87.744L100.748 88.112C100.748 88.112 99.708 63.5 97.24 58.42Z" fill="#263238"/>
<path opacity="0.2" d="M95.6 54.668C95.5242 55.0041 95.4708 55.3448 95.44 55.688C94.496 55.5 93.24 54.488 93.108 53.536C93.063 53.2167 93.0522 52.8935 93.076 52.572L95.6 54.668Z" fill="black"/>
<path d="M97.892 45.496C98.104 47.032 97.492 48.388 96.492 48.524C95.492 48.66 94.54 47.52 94.328 45.984C94.116 44.448 94.728 43.088 95.728 42.952C96.728 42.816 97.68 43.956 97.892 45.496Z" fill="#263238"/>
<path d="M89.948 48.8C91.108 51.6 91.644 53.296 93.608 54.316C94.2414 54.6544 94.9552 54.8133 95.6723 54.7755C96.3894 54.7376 97.0826 54.5045 97.6768 54.1014C98.2711 53.6982 98.7438 53.1403 99.044 52.4879C99.3442 51.8356 99.4604 51.1136 99.38 50.4C99.12 47.64 97.264 43.52 94.048 43.248C93.3542 43.1742 92.6532 43.2832 92.0146 43.5642C91.3759 43.8451 90.8219 44.2881 90.4074 44.8494C89.9929 45.4106 89.7325 46.0705 89.6519 46.7636C89.5713 47.4566 89.6734 48.1586 89.948 48.8Z" fill="#CE7A63"/>
<path d="M90.052 50.964C90.22 52.424 92.352 51.876 91.992 48.996C91.8029 48.1411 91.4945 47.3171 91.076 46.548C91.076 46.548 96.044 44.548 97.076 43.524C98.02 42.584 98.088 41.3 97.376 40.9C97.2647 41.1511 97.0921 41.3702 96.874 41.5373C96.656 41.7043 96.3994 41.8139 96.128 41.856C96.128 41.856 97.14 40.488 96.472 39.664C96.2933 40.1383 95.981 40.5505 95.5727 40.8508C95.1645 41.1512 94.6779 41.3266 94.172 41.356C92.424 41.56 90.412 40.8 89.112 42.724C88.076 44.256 86.528 43.684 87.168 45.824C85.168 47.136 86.644 48.424 87.512 48.912C88.38 49.4 89.96 50.16 90.052 50.964Z" fill="#263238"/>
<path d="M87.44 45.8C87.44 45.8 86.092 45.568 86.432 43.948C85.088 45.468 86.104 46.164 87.44 45.8Z" fill="#263238"/>
<path d="M89.824 51.956C90.3996 52.4399 91.1241 52.7111 91.876 52.724C92.824 52.724 92.876 51.824 92.276 51.084C91.72 50.42 90.56 49.624 89.78 49.988C89 50.352 89.1 51.348 89.824 51.956Z" fill="#CE7A63"/>
<path d="M94.604 48.248C94.684 48.484 94.872 48.648 95.028 48.584C95.184 48.52 95.24 48.312 95.16 48.08C95.08 47.848 94.888 47.68 94.736 47.744C94.584 47.808 94.524 48 94.604 48.248Z" fill="#263238"/>
<path d="M97.26 47.436C97.34 47.668 97.528 47.836 97.684 47.772C97.84 47.708 97.896 47.5 97.816 47.268C97.736 47.036 97.548 46.868 97.392 46.932C97.236 46.996 97.2 47.2 97.26 47.436Z" fill="#263238"/>
<path d="M96.456 47.812C96.9829 48.438 97.5909 48.9908 98.264 49.456C98.138 49.6198 97.9772 49.7535 97.7932 49.8476C97.6092 49.9417 97.4066 49.9937 97.2 50L96.456 47.812Z" fill="#BA4D3C"/>
<path d="M96.468 50.928C96.1878 50.9825 95.8995 50.9798 95.6204 50.92C95.3413 50.8602 95.0772 50.7445 94.844 50.58C94.8311 50.5666 94.8238 50.5486 94.8238 50.53C94.8238 50.5113 94.8311 50.4934 94.844 50.48C94.8581 50.4668 94.8767 50.4594 94.896 50.4594C94.9153 50.4594 94.9339 50.4668 94.948 50.48C95.2036 50.6548 95.4958 50.7688 95.8023 50.8131C96.1088 50.8575 96.4213 50.8311 96.716 50.736C96.7249 50.7329 96.7344 50.7318 96.7438 50.7326C96.7532 50.7334 96.7623 50.7361 96.7706 50.7406C96.7788 50.7451 96.7861 50.7513 96.7918 50.7588C96.7976 50.7663 96.8017 50.7748 96.804 50.784C96.807 50.7929 96.8082 50.8024 96.8074 50.8118C96.8066 50.8211 96.8039 50.8303 96.7994 50.8385C96.7948 50.8468 96.7887 50.8541 96.7812 50.8598C96.7737 50.8656 96.7651 50.8697 96.756 50.872C96.6615 50.8978 96.5653 50.9165 96.468 50.928Z" fill="#263238"/>
<path d="M93.488 47.652C93.4644 47.6579 93.4396 47.6579 93.416 47.652C93.3981 47.6457 93.3816 47.636 93.3675 47.6233C93.3534 47.6107 93.342 47.5954 93.3338 47.5783C93.3256 47.5612 93.3209 47.5426 93.3199 47.5237C93.3189 47.5048 93.3217 47.4859 93.328 47.468C93.3964 47.2511 93.5173 47.0544 93.6799 46.8954C93.8424 46.7363 94.0417 46.6197 94.26 46.556C94.2784 46.5513 94.2976 46.5504 94.3164 46.5533C94.3351 46.5562 94.3531 46.563 94.3692 46.5731C94.3853 46.5832 94.3992 46.5964 94.41 46.6121C94.4208 46.6277 94.4283 46.6454 94.432 46.664C94.4367 46.6824 94.4376 46.7016 94.4347 46.7204C94.4318 46.7391 94.4251 46.7571 94.415 46.7732C94.4048 46.7893 94.3916 46.8032 94.3759 46.814C94.3603 46.8248 94.3426 46.8323 94.324 46.836C94.1537 46.889 93.9988 46.9825 93.8726 47.1086C93.7465 47.2348 93.6529 47.3897 93.6 47.56C93.5915 47.5841 93.5766 47.6054 93.5568 47.6216C93.5371 47.6379 93.5133 47.6484 93.488 47.652Z" fill="#263238"/>
<path d="M84.912 100.06C84.7953 100.059 84.6789 100.049 84.564 100.028L79.168 99.04C78.6687 98.9466 78.2265 98.6596 77.938 98.2414C77.6495 97.8233 77.538 97.308 77.628 96.808L78.128 94.084C78.1734 93.836 78.2674 93.5994 78.4047 93.3879C78.542 93.1765 78.7199 92.9943 78.928 92.852C79.1347 92.7073 79.3682 92.6055 79.6148 92.5526C79.8615 92.4997 80.1162 92.4968 80.364 92.544L85.76 93.532C86.2599 93.6244 86.7028 93.9112 86.9914 94.3296C87.2801 94.7481 87.3911 95.2639 87.3 95.764L86.8 98.488C86.7194 98.9297 86.4862 99.3291 86.1411 99.6164C85.7961 99.9037 85.3611 100.061 84.912 100.06ZM84.712 99.22C84.9978 99.2714 85.2923 99.2078 85.5314 99.0429C85.7704 98.8781 85.9346 98.6254 85.988 98.34L86.488 95.612C86.5394 95.3267 86.4756 95.0327 86.3107 94.7943C86.1458 94.5559 85.8931 94.3925 85.608 94.34L80.212 93.352C80.0705 93.326 79.9252 93.3281 79.7844 93.3583C79.6437 93.3884 79.5102 93.446 79.3918 93.5277C79.2733 93.6094 79.172 93.7137 79.0938 93.8345C79.0156 93.9554 78.962 94.0904 78.936 94.232L78.436 96.956C78.3857 97.2416 78.4498 97.5356 78.6144 97.7744C78.7791 98.0132 79.0311 98.1775 79.316 98.232L84.712 99.22Z" fill="#BCB272"/>
<path d="M93.2523 97.4741L73.954 93.9356C72.7502 93.7149 71.5954 94.5119 71.3747 95.7156L69.2942 107.062C69.0735 108.266 69.8704 109.421 71.0742 109.642L90.3725 113.18C91.5763 113.401 92.7311 112.604 92.9518 111.4L95.0323 100.053C95.253 98.8496 94.4561 97.6948 93.2523 97.4741Z" fill="#263238"/>
<path opacity="0.8" d="M93.2523 97.4741L73.954 93.9356C72.7502 93.7149 71.5954 94.5119 71.3747 95.7156L69.2942 107.062C69.0735 108.266 69.8704 109.421 71.0742 109.642L90.3725 113.18C91.5763 113.401 92.7311 112.604 92.9518 111.4L95.0323 100.053C95.253 98.8496 94.4561 97.6948 93.2523 97.4741Z" fill="#BCB272"/>
<path d="M92.2421 97.2905L72.9438 93.7521C71.74 93.5314 70.5852 94.3283 70.3645 95.5321L68.284 106.879C68.0633 108.083 68.8602 109.238 70.064 109.458L89.3623 112.997C90.5661 113.217 91.7209 112.42 91.9416 111.217L94.0221 99.8699C94.2428 98.6661 93.4459 97.5113 92.2421 97.2905Z" fill="#BCB272"/>
<path opacity="0.3" d="M92.74 97.372L72.464 93.656C72.016 93.5754 71.5542 93.6752 71.1796 93.9337C70.8049 94.1923 70.5476 94.5885 70.464 95.036L69.352 101.116C69.2703 101.564 69.3697 102.026 69.6284 102.401C69.8871 102.776 70.284 103.033 70.732 103.116L79.252 104.676L79.128 105.348C79.1155 105.422 79.1178 105.498 79.1348 105.57C79.1519 105.643 79.1833 105.712 79.2272 105.773C79.2712 105.834 79.3268 105.885 79.3908 105.924C79.4548 105.963 79.5259 105.989 79.6 106L81.116 106.276C81.2634 106.303 81.4155 106.271 81.5391 106.186C81.6627 106.101 81.7479 105.971 81.776 105.824L81.896 105.156L91.024 106.828C91.4722 106.91 91.9344 106.81 92.3094 106.552C92.6843 106.293 92.9413 105.896 93.024 105.448L94.14 99.368C94.2179 98.9178 94.1144 98.4551 93.852 98.081C93.5897 97.7069 93.1898 97.452 92.74 97.372Z" fill="#263238"/>
<path d="M90.156 106.072L69.776 102.336C69.567 102.302 69.3679 102.223 69.1924 102.105C69.0169 101.987 68.8692 101.832 68.7596 101.65C68.65 101.469 68.5811 101.267 68.5577 101.056C68.5343 100.846 68.5569 100.633 68.624 100.432L70.288 94.952C70.4283 94.517 70.7195 94.1466 71.109 93.9074C71.4985 93.6683 71.9606 93.5763 72.412 93.648L92.812 97.384C93.021 97.4177 93.2201 97.4965 93.3956 97.6149C93.5712 97.7333 93.7188 97.8884 93.8284 98.0695C93.938 98.2507 94.0069 98.4534 94.0303 98.6638C94.0537 98.8742 94.0311 99.0872 93.964 99.288L92.3 104.768C92.1578 105.206 91.8633 105.578 91.4699 105.818C91.0765 106.057 90.6103 106.147 90.156 106.072Z" fill="#BCB272"/>
<path d="M80.112 105.708L78.58 105.428C78.4881 105.412 78.4007 105.377 78.3237 105.325C78.2466 105.273 78.1818 105.204 78.1335 105.124C78.0853 105.045 78.0549 104.955 78.0443 104.863C78.0336 104.77 78.0431 104.677 78.072 104.588L78.808 102.188C78.8696 101.996 78.998 101.833 79.1698 101.728C79.3416 101.623 79.5453 101.583 79.744 101.616L81.276 101.896C81.3682 101.911 81.456 101.946 81.5333 101.998C81.6106 102.05 81.6756 102.119 81.7236 102.199C81.7716 102.279 81.8015 102.368 81.8113 102.461C81.821 102.554 81.8104 102.648 81.78 102.736L81.048 105.136C80.9857 105.327 80.8572 105.49 80.6856 105.595C80.514 105.7 80.3106 105.74 80.112 105.708Z" fill="white"/>
<path d="M98.092 46.184C98.069 46.1886 98.0453 46.1873 98.0229 46.1803C98.0006 46.1733 97.9803 46.1608 97.964 46.144C97.8393 46.006 97.6848 45.8983 97.5122 45.829C97.3396 45.7597 97.1535 45.7306 96.968 45.744C96.9493 45.748 96.93 45.7482 96.9112 45.7445C96.8925 45.7408 96.8747 45.7332 96.8589 45.7224C96.8432 45.7115 96.8298 45.6975 96.8197 45.6813C96.8096 45.665 96.8029 45.6469 96.8 45.628C96.7941 45.5905 96.8028 45.5521 96.8244 45.5208C96.846 45.4895 96.8788 45.4677 96.916 45.46C97.1464 45.4348 97.3795 45.4636 97.5968 45.5441C97.8142 45.6247 98.0097 45.7547 98.168 45.924C98.1815 45.9374 98.1921 45.9533 98.1994 45.9708C98.2066 45.9883 98.2104 46.0071 98.2104 46.026C98.2104 46.045 98.2066 46.0637 98.1994 46.0812C98.1921 46.0987 98.1815 46.1146 98.168 46.128C98.1491 46.1541 98.1225 46.1736 98.092 46.184Z" fill="#263238"/>
<path d="M84.12 89.852L85.032 92.776L81.268 92C81.268 92 80.688 89.292 82.112 89.108L83.444 89.28C83.6005 89.2982 83.7481 89.3622 83.8684 89.4639C83.9886 89.5657 84.0762 89.7007 84.12 89.852Z" fill="#CE7A63"/>
<path d="M83.228 95.052L81.588 94.744C81.4741 94.7226 81.3656 94.6785 81.269 94.6145C81.1724 94.5505 81.0895 94.4677 81.0254 94.3712C80.9613 94.2746 80.9172 94.1662 80.8956 94.0523C80.8741 93.9384 80.8756 93.8213 80.9 93.708L81.268 92.004L85.032 92.776L84.172 94.572C84.0897 94.745 83.9524 94.8858 83.7817 94.9727C83.6109 95.0595 83.4163 95.0874 83.228 95.052Z" fill="#CE7A63"/>
<path d="M118.836 27.536H121.448V52.036H118.836C115.625 51.978 112.566 50.6618 110.316 48.3708C108.066 46.0798 106.805 42.9971 106.805 39.786C106.805 36.5749 108.066 33.4921 110.316 31.2011C112.566 28.9101 115.625 27.594 118.836 27.536Z" fill="#BCB272"/>
<path opacity="0.1" d="M118.836 27.536H121.448V52.036H118.836C115.625 51.978 112.566 50.6618 110.316 48.3708C108.066 46.0798 106.805 42.9971 106.805 39.786C106.805 36.5749 108.066 33.4921 110.316 31.2011C112.566 28.9101 115.625 27.594 118.836 27.536Z" fill="black"/>
<path opacity="0.3" d="M121.452 42.988V44.096H107.372C107.231 43.7338 107.111 43.3638 107.012 42.988H121.452Z" fill="#263238"/>
<path opacity="0.3" d="M109.316 47.488H121.452V52.036H118.836C117.01 52.0378 115.207 51.6302 113.56 50.8431C111.912 50.056 110.462 48.9095 109.316 47.488Z" fill="#263238"/>
<path d="M126.912 52.336L126.748 51.96C127.487 51.6363 128.195 51.2467 128.864 50.796L129.092 51.136C128.403 51.601 127.673 52.0027 126.912 52.336Z" fill="#BCB272"/>
<path d="M131.24 49.34L130.948 49.052C132.854 47.1068 134.111 44.6198 134.548 41.932L134.948 42C134.501 44.7712 133.205 47.3356 131.24 49.34Z" fill="#BCB272"/>
<path d="M132.344 45.3859C135.436 39.3695 133.065 31.9857 127.049 28.8938C121.032 25.8018 113.649 28.1724 110.557 34.1888C107.465 40.2051 109.835 47.5889 115.852 50.6809C121.868 53.7729 129.252 51.4022 132.344 45.3859Z" fill="#BCB272"/>
<path d="M122.208 43.952L121.2 40.8C120.305 40.8733 119.409 40.6709 118.632 40.22C117.985 39.7878 117.507 39.1447 117.28 38.4C117.012 37.6418 117.052 36.8087 117.392 36.08C117.752 35.3336 118.381 34.7508 119.152 34.448L118.908 33.688L120 33.32L120.244 34.08C120.967 33.9094 121.726 33.981 122.404 34.284C123.05 34.6111 123.571 35.1427 123.884 35.796L122.064 36.652C121.946 36.4016 121.766 36.186 121.54 36.0261C121.315 35.8663 121.051 35.7677 120.776 35.74L121.72 38.676C123.024 38.616 123.98 38.776 124.58 39.152C125.214 39.5719 125.674 40.207 125.876 40.94C126.17 41.7713 126.138 42.6828 125.788 43.492C125.4 44.3316 124.716 44.9992 123.868 45.368L124.112 46.128L123.024 46.48L122.792 45.756C121.974 45.939 121.119 45.8359 120.368 45.464C119.582 45.0196 118.961 44.3336 118.596 43.508L120.492 42.668C120.68 43.0211 120.947 43.3262 121.272 43.56C121.548 43.7644 121.869 43.8989 122.208 43.952ZM119.676 36.068C119.423 36.2484 119.234 36.5048 119.136 36.8C119.038 37.0852 119.038 37.3948 119.136 37.68C119.216 37.9462 119.379 38.1801 119.6 38.348C119.867 38.5369 120.182 38.6464 120.508 38.664L119.676 36.068ZM123.332 43.708C123.668 43.5376 123.933 43.2543 124.08 42.908C124.227 42.5613 124.241 42.1725 124.12 41.816C124.025 41.4986 123.821 41.2251 123.544 41.044C123.196 40.8491 122.797 40.764 122.4 40.8L123.332 43.708Z" fill="white"/>
<path opacity="0.1" d="M112.312 35.776C113.612 33.5965 115.693 31.9939 118.132 31.2942C120.571 30.5946 123.185 30.8504 125.443 32.0096C127.7 33.1689 129.431 35.1445 130.284 37.5346C131.136 39.9247 131.046 42.5498 130.032 44.876C130.73 43.7047 131.181 42.4026 131.357 41.0503C131.533 39.6979 131.429 38.3238 131.053 37.0129C130.677 35.702 130.037 34.4821 129.171 33.4285C128.305 32.3748 127.233 31.5098 126.019 30.8868C124.806 30.2638 123.478 29.8961 122.118 29.8062C120.757 29.7164 119.392 29.9065 118.108 30.3646C116.823 30.8228 115.646 31.5393 114.649 32.47C113.653 33.4007 112.857 34.5259 112.312 35.776Z" fill="black"/>
<path opacity="0.3" d="M133.3 28.912C133.1 28.9641 132.918 29.0688 132.773 29.2151C132.627 29.3614 132.523 29.544 132.472 29.744C132.456 29.7837 132.428 29.8177 132.392 29.8417C132.357 29.8656 132.315 29.8784 132.272 29.8784C132.229 29.8784 132.187 29.8656 132.152 29.8417C132.116 29.8177 132.088 29.7837 132.072 29.744C132.021 29.5435 131.916 29.3606 131.77 29.2142C131.623 29.0679 131.44 28.9635 131.24 28.912C131.2 28.8958 131.166 28.8681 131.142 28.8325C131.118 28.7968 131.106 28.7549 131.106 28.712C131.106 28.6691 131.118 28.6271 131.142 28.5915C131.166 28.5559 131.2 28.5282 131.24 28.512C131.44 28.4608 131.623 28.357 131.769 28.2114C131.915 28.0658 132.02 27.8837 132.072 27.684C132.087 27.6426 132.114 27.6067 132.149 27.5813C132.185 27.5559 132.228 27.5423 132.272 27.5423C132.316 27.5423 132.359 27.5559 132.395 27.5813C132.43 27.6067 132.457 27.6426 132.472 27.684C132.524 27.8832 132.628 28.065 132.773 28.2106C132.919 28.3561 133.101 28.4602 133.3 28.512C133.341 28.5265 133.377 28.5536 133.403 28.5894C133.428 28.6253 133.442 28.6681 133.442 28.712C133.442 28.7559 133.428 28.7987 133.403 28.8345C133.377 28.8704 133.341 28.8974 133.3 28.912Z" fill="#BCB272"/>
<path opacity="0.2" d="M112.452 53.036C112.299 53.0745 112.16 53.1536 112.049 53.2649C111.938 53.3761 111.859 53.5154 111.82 53.668C111.809 53.7 111.789 53.7279 111.762 53.7476C111.735 53.7674 111.702 53.778 111.668 53.778C111.634 53.778 111.601 53.7674 111.574 53.7476C111.547 53.7279 111.527 53.7 111.516 53.668C111.477 53.5161 111.399 53.3774 111.288 53.2662C111.178 53.155 111.04 53.0755 110.888 53.036C110.856 53.0255 110.828 53.0051 110.808 52.9778C110.789 52.9505 110.778 52.9177 110.778 52.884C110.778 52.8503 110.789 52.8175 110.808 52.7902C110.828 52.7629 110.856 52.7425 110.888 52.732C111.039 52.6928 111.177 52.6139 111.287 52.5035C111.398 52.3931 111.477 52.2551 111.516 52.104C111.527 52.072 111.547 52.0441 111.574 52.0244C111.601 52.0046 111.634 51.994 111.668 51.994C111.702 51.994 111.735 52.0046 111.762 52.0244C111.789 52.0441 111.809 52.072 111.82 52.104C111.86 52.2556 111.939 52.3939 112.05 52.5043C112.161 52.6148 112.3 52.6934 112.452 52.732C112.484 52.7425 112.512 52.7629 112.532 52.7902C112.551 52.8175 112.562 52.8503 112.562 52.884C112.562 52.9177 112.551 52.9505 112.532 52.9778C112.512 53.0051 112.484 53.0255 112.452 53.036Z" fill="#BCB272"/>
<path opacity="0.4" d="M110.588 27.404C110.319 27.4728 110.073 27.6127 109.877 27.8091C109.681 28.0054 109.541 28.251 109.472 28.52C109.452 28.5765 109.416 28.6254 109.367 28.6601C109.318 28.6947 109.26 28.7133 109.2 28.7133C109.14 28.7133 109.082 28.6947 109.033 28.6601C108.984 28.6254 108.948 28.5765 108.928 28.52C108.86 28.2515 108.72 28.0063 108.525 27.81C108.329 27.6137 108.084 27.4735 107.816 27.404C107.759 27.3854 107.709 27.3493 107.674 27.3008C107.639 27.2523 107.62 27.1939 107.62 27.134C107.62 27.0741 107.639 27.0157 107.674 26.9672C107.709 26.9187 107.759 26.8826 107.816 26.864C108.084 26.7938 108.328 26.6533 108.524 26.4571C108.719 26.261 108.859 26.0161 108.928 25.748C108.948 25.6915 108.984 25.6426 109.033 25.6079C109.082 25.5733 109.14 25.5547 109.2 25.5547C109.26 25.5547 109.318 25.5733 109.367 25.6079C109.416 25.6426 109.452 25.6915 109.472 25.748C109.541 26.0168 109.681 26.2622 109.878 26.4585C110.074 26.6547 110.319 26.7948 110.588 26.864C110.645 26.8826 110.695 26.9187 110.73 26.9672C110.765 27.0157 110.784 27.0741 110.784 27.134C110.784 27.1939 110.765 27.2523 110.73 27.3008C110.695 27.3493 110.645 27.3854 110.588 27.404Z" fill="#BCB272"/>
</svg>
