<svg width="170" height="146" viewBox="0 0 170 146" fill="none" xmlns="http://www.w3.org/2000/svg">
<path d="M83.4224 145.704C128.886 145.704 165.742 124.425 165.742 98.1758C165.742 71.9267 128.886 50.6475 83.4224 50.6475C37.9585 50.6475 1.10272 71.9267 1.10272 98.1758C1.10272 124.425 37.9585 145.704 83.4224 145.704Z" fill="#F5F5F5"/>
<path d="M14.8202 115.475L20.3042 118.621C20.5906 118.767 20.9077 118.844 21.2293 118.844C21.551 118.844 21.8681 118.767 22.1545 118.621L65.3977 93.6428C65.9046 93.3505 65.9046 92.8768 65.3977 92.5882L59.847 89.4687C59.5602 89.3237 59.2433 89.2481 58.9219 89.2481C58.6005 89.2481 58.2836 89.3237 57.9968 89.4687L14.8202 114.417C14.3132 114.709 14.3132 115.183 14.8202 115.475Z" fill="#E0E0E0"/>
<path d="M151.544 115.475L146.06 118.621C145.773 118.767 145.456 118.843 145.134 118.843C144.813 118.843 144.496 118.767 144.209 118.621L100.966 93.6428C100.459 93.3505 100.463 92.8768 100.966 92.5882L106.517 89.4687C106.804 89.3237 107.121 89.2481 107.442 89.2481C107.763 89.2481 108.08 89.3237 108.367 89.4687L151.544 114.41C152.051 114.709 152.051 115.183 151.544 115.475Z" fill="#E0E0E0"/>
<path d="M147.207 99.9188C147.207 99.9188 147.473 94.3126 149.96 89.8092C152.447 85.3058 156.069 82.3639 159.599 81.8496C163.13 81.3352 166.212 84.4103 162.56 86.9044C158.907 89.3984 152.313 92.1257 149.764 100.718L147.207 99.9188Z" fill="#E4D229"/>
<g opacity="0.2">
<path opacity="0.2" d="M147.207 99.9188C147.207 99.9188 147.473 94.3126 149.96 89.8092C152.447 85.3058 156.069 82.3639 159.599 81.8496C163.13 81.3352 166.212 84.4103 162.56 86.9044C158.907 89.3984 152.313 92.1257 149.764 100.718L147.207 99.9188Z" fill="black"/>
</g>
<path d="M148.154 98.4053H148.113C148.09 98.3974 148.068 98.3848 148.049 98.3684C148.03 98.352 148.015 98.3321 148.004 98.3097C147.993 98.2873 147.987 98.263 147.985 98.2381C147.983 98.2133 147.987 98.1883 147.995 98.1648C151.133 88.6954 158.008 84.377 161.205 83.4149C161.255 83.4001 161.307 83.4055 161.353 83.4298C161.398 83.4541 161.431 83.4953 161.446 83.5444C161.461 83.5934 161.455 83.6463 161.431 83.6915C161.407 83.7366 161.366 83.7702 161.316 83.7849C158.182 84.7285 151.444 88.9655 148.365 98.2943C148.347 98.3334 148.316 98.3654 148.278 98.3855C148.24 98.4056 148.197 98.4125 148.154 98.4053Z" fill="white"/>
<path d="M167.589 98.2203C167.3 99.0122 166.479 99.471 165.738 99.8373C164.998 100.204 164.151 100.596 163.774 101.351C163.033 102.879 164.554 104.855 163.737 106.346C163.542 106.647 163.287 106.905 162.99 107.105C162.692 107.305 162.357 107.442 162.005 107.508C161.424 107.629 160.837 107.721 160.247 107.782C159.966 107.799 159.684 107.799 159.403 107.782C158.586 107.716 157.701 107.738 156.987 108.2C155.877 108.94 155.599 110.421 154.963 111.62C154.569 112.32 154.027 112.927 153.375 113.398C152.724 113.869 151.978 114.193 151.188 114.347C150.667 114.45 149.708 114.609 149.142 114.347C149.102 114.33 149.063 114.309 149.027 114.284C148.95 114.206 148.85 114.106 148.805 114.051C148.761 113.995 148.805 114.028 148.783 114.017C148.524 113.277 148.813 112.452 148.783 111.664C148.783 111.612 148.783 111.568 148.783 111.52C148.687 110.606 148.602 109.699 148.52 108.785C148.367 107.107 148.244 105.426 148.15 103.741C148.091 102.65 147.88 101.462 148.272 100.411C148.713 99.2453 149.982 99.138 150.393 97.9945C150.556 97.5394 150.626 97.0583 150.781 96.5995C151.027 95.9241 151.454 95.3293 152.016 94.8803C152.577 94.4313 153.251 94.1453 153.964 94.0536C156.184 93.7946 158.29 95.4597 160.499 95.1637C161.072 95.0786 161.609 94.8677 162.179 94.7271C163.959 94.2719 166.072 94.6456 167.185 96.1036C167.418 96.3981 167.576 96.7442 167.646 97.1126C167.716 97.4811 167.696 97.861 167.589 98.2203Z" fill="#E4D229"/>
<path d="M148.346 110.513H148.328C148.279 110.503 148.236 110.474 148.208 110.433C148.18 110.391 148.17 110.34 148.18 110.291C150.493 98.5681 162.523 96.1036 165.376 96.1221C165.426 96.124 165.473 96.145 165.508 96.1808C165.544 96.2166 165.564 96.2644 165.565 96.3145C165.565 96.3396 165.56 96.3645 165.55 96.3876C165.54 96.4108 165.526 96.4317 165.508 96.4493C165.49 96.4669 165.469 96.4807 165.446 96.49C165.422 96.4992 165.397 96.5037 165.372 96.5033C162.582 96.4848 150.815 98.8937 148.554 110.365C148.544 110.411 148.517 110.452 148.479 110.479C148.44 110.507 148.393 110.519 148.346 110.513Z" fill="white"/>
<path d="M161.446 103.789C161.408 103.784 161.372 103.767 161.342 103.741C160.158 102.844 158.79 102.218 157.336 101.91C155.882 101.602 154.378 101.618 152.931 101.958C152.907 101.963 152.882 101.964 152.857 101.959C152.833 101.955 152.81 101.946 152.789 101.932C152.768 101.919 152.749 101.901 152.735 101.881C152.721 101.861 152.711 101.838 152.706 101.813C152.7 101.789 152.7 101.764 152.704 101.739C152.708 101.715 152.718 101.692 152.731 101.671C152.744 101.65 152.762 101.632 152.782 101.617C152.803 101.603 152.826 101.593 152.85 101.588C154.356 101.236 155.92 101.222 157.433 101.545C158.945 101.868 160.367 102.521 161.598 103.456C161.628 103.484 161.648 103.52 161.656 103.56C161.664 103.6 161.66 103.641 161.643 103.678C161.626 103.715 161.598 103.746 161.563 103.766C161.527 103.786 161.486 103.794 161.446 103.789Z" fill="white"/>
<path d="M18.6317 98.668C18.4344 96.2554 17.8781 93.8857 16.9813 91.6372C15.5011 88.0182 12.6962 84.3696 9.45089 83.6813C6.20562 82.993 4.82536 85.18 5.50994 87.3262C6.10201 89.1764 8.51468 90.7084 10.3464 92.3218C12.1781 93.9352 15.601 97.8317 16.552 101.599L18.3837 101.799L18.6317 98.668Z" fill="#E4D229"/>
<g opacity="0.15">
<path opacity="0.15" d="M18.6317 98.668C18.4344 96.2554 17.8781 93.8857 16.9813 91.6372C15.5011 88.0182 12.6962 84.3696 9.45089 83.6813C6.20562 82.993 4.82536 85.18 5.50994 87.3262C6.10201 89.1764 8.51468 90.7084 10.3464 92.3218C12.1781 93.9352 15.601 97.8317 16.552 101.599L18.3837 101.799L18.6317 98.668Z" fill="black"/>
</g>
<path d="M17.3809 100.367C17.3285 100.366 17.2783 100.345 17.2405 100.309C17.2028 100.272 17.1802 100.223 17.1774 100.17C16.837 90.701 7.57849 85.4094 7.48228 85.3687C7.43321 85.3422 7.39668 85.2973 7.38071 85.2438C7.36475 85.1904 7.37067 85.1328 7.39717 85.0837C7.42367 85.0347 7.46858 84.9981 7.52201 84.9822C7.57545 84.9662 7.63303 84.9721 7.6821 84.9986C7.77832 85.0541 17.2366 90.4605 17.5881 100.17C17.5892 100.225 17.5688 100.277 17.5314 100.317C17.494 100.356 17.4426 100.379 17.3883 100.381L17.3809 100.367Z" fill="white"/>
<path d="M17.4882 113.307C17.4882 113.307 15.5936 114.502 12.637 113.995C11.6813 113.87 10.7899 113.445 10.0911 112.781C9.32878 111.993 9.20667 111.201 8.98094 110.147C8.92237 109.707 8.77102 109.284 8.53689 108.907C7.90041 108.034 6.63487 108.049 5.57655 107.823C4.09637 107.501 2.70501 106.424 2.27206 104.959C1.83911 103.493 2.54219 101.702 3.95946 101.125L2.22026 100.015C1.68193 99.6987 1.18477 99.3172 0.740086 98.8789C0.294184 98.4312 0.0304406 97.8338 0 97.2026C0.0280846 96.7399 0.18649 96.2946 0.456918 95.9181C0.727347 95.5416 1.09877 95.2493 1.52828 95.0749C2.39536 94.7421 3.33542 94.6464 4.25179 94.7974C5.17837 94.9079 6.08951 95.1226 6.96791 95.4375C7.20749 95.5464 7.46706 95.6044 7.7302 95.6078C8.07878 95.549 8.40489 95.3968 8.6738 95.1674C10.6646 93.8538 13.9062 93.9537 14.9645 96.4293C15.1237 96.7993 15.2162 97.1693 15.3827 97.5394C16.0044 98.8715 17.7436 98.4719 18.8648 99.0936C19.2198 99.316 19.5212 99.6142 19.7477 99.9666C19.9741 100.319 20.1199 100.717 20.1747 101.132C20.3968 102.454 20.0304 103.956 19.8047 105.262C19.579 106.568 19.2533 107.778 18.8981 109.014C18.6095 110.036 18.2912 111.046 17.9508 112.049C17.8546 112.274 17.6954 113.174 17.4882 113.307Z" fill="#E4D229"/>
<path d="M18.665 110.254C17.6711 107.525 16.041 105.071 13.9099 103.097C13.888 103.051 13.8498 103.014 13.8026 102.994C13.1885 102.417 12.545 101.872 11.8747 101.362C11.6233 99.6076 11.8496 97.8179 12.5296 96.1813C12.5411 96.157 12.5476 96.1307 12.5488 96.1039C12.5501 96.0771 12.5461 96.0503 12.5369 96.025C12.5278 95.9998 12.5139 95.9765 12.4958 95.9567C12.4777 95.9368 12.4559 95.9207 12.4316 95.9093C12.4073 95.8979 12.381 95.8914 12.3542 95.8901C12.3273 95.8889 12.3005 95.8929 12.2753 95.902C12.25 95.9111 12.2268 95.9251 12.207 95.9432C12.1871 95.9613 12.171 95.9831 12.1596 96.0074C11.4918 97.589 11.2371 99.3144 11.4195 101.021C8.69371 99.057 5.67024 97.5428 2.46449 96.5366C2.43873 96.5293 2.41178 96.5273 2.38524 96.5307C2.3587 96.5341 2.33311 96.5428 2.30998 96.5562C2.28686 96.5697 2.26668 96.5877 2.25063 96.6091C2.23458 96.6305 2.22299 96.6549 2.21656 96.6809C2.20927 96.7064 2.20714 96.7331 2.21029 96.7594C2.21344 96.7858 2.2218 96.8112 2.23489 96.8343C2.24798 96.8574 2.26553 96.8776 2.28653 96.8939C2.30752 96.9101 2.33154 96.922 2.35717 96.9288C2.44228 96.9547 8.21865 98.5903 12.9848 102.794C10.0615 102.28 6.56826 103.693 6.40914 103.76C6.36521 103.778 6.32884 103.81 6.30631 103.852C6.28377 103.893 6.27647 103.942 6.28568 103.988C6.29489 104.035 6.32002 104.076 6.35674 104.106C6.39346 104.136 6.43948 104.152 6.48685 104.152C6.51248 104.157 6.53893 104.157 6.56456 104.152C6.60526 104.134 10.7053 102.476 13.5954 103.375C15.6952 105.312 17.3014 107.722 18.2801 110.406C18.2944 110.445 18.3205 110.48 18.3549 110.504C18.3893 110.529 18.4303 110.542 18.4725 110.543H18.5391C18.5678 110.534 18.5941 110.519 18.6165 110.499C18.6388 110.479 18.6565 110.455 18.6685 110.427C18.6804 110.4 18.6863 110.37 18.6857 110.34C18.6851 110.31 18.678 110.281 18.665 110.254Z" fill="white"/>
<path d="M12.1078 39.5685C11.5989 40.146 10.9409 40.5724 10.2058 40.8007L10.1281 40.8192H10.0689L9.93934 40.8414H9.79132H9.69511C9.68055 40.8452 9.66527 40.8452 9.65071 40.8414C9.35554 40.8426 9.06676 40.7555 8.82147 40.5913C8.57617 40.4271 8.38557 40.1934 8.27415 39.92C8.16783 39.6767 8.10041 39.4183 8.07433 39.154C8.18904 39.1022 8.30375 39.0393 8.42217 38.9727C9.27582 38.416 9.98611 37.6658 10.4953 36.783C11.0046 35.9002 11.2984 34.9097 11.3529 33.892C11.3529 33.7514 11.3529 33.6182 11.3529 33.4961C11.6762 33.3421 12.031 33.2661 12.389 33.2741H12.4519H12.5037C12.5221 33.2705 12.5409 33.2705 12.5592 33.2741C12.8132 33.3123 13.0529 33.416 13.2547 33.575C13.4565 33.7339 13.6134 33.9427 13.7101 34.1807C14.3132 35.5979 13.6028 37.9921 12.1078 39.5685Z" fill="#E4D229"/>
<path d="M17.5289 35.1206C17.5 35.1067 17.4685 35.0991 17.4364 35.0984L16.1857 35.028C16.1583 35.029 16.1311 35.0245 16.1055 35.0147C16.0799 35.0049 16.0566 34.9901 16.0369 34.9711C16.0172 34.9521 16.0016 34.9293 15.9909 34.9042C15.9802 34.879 15.9747 34.8519 15.9747 34.8245C15.9932 34.6247 16.0006 34.4286 16.0043 34.2399C16.0059 34.0322 15.996 33.8247 15.9747 33.6182C15.9786 33.4825 16.0282 33.3522 16.1154 33.2481L17.5104 31.5533C17.5529 31.5073 17.583 31.4512 17.5978 31.3904C17.6127 31.3296 17.6119 31.266 17.5955 31.2055L16.9331 29.7253C16.9247 29.7066 16.9104 29.691 16.8924 29.6809C16.8542 29.6681 16.8129 29.6677 16.7744 29.6796C16.7359 29.6916 16.7021 29.7153 16.6778 29.7475L15.1976 31.1093C15.1579 31.1544 15.1039 31.1845 15.0446 31.1946C14.9854 31.2047 14.9244 31.1942 14.872 31.1648C14.6802 31.0094 14.4655 30.8846 14.2355 30.7948C14.1842 30.7758 14.1411 30.7396 14.1134 30.6924C14.0857 30.6451 14.0753 30.5898 14.0838 30.5357L14.5427 28.445C14.5497 28.4168 14.5474 28.3871 14.5361 28.3604C14.5247 28.3337 14.5049 28.3114 14.4798 28.297C14.437 28.2771 14.3897 28.2694 14.3428 28.2748L12.8627 28.4191C12.7955 28.4273 12.7314 28.4519 12.676 28.4906C12.6205 28.5293 12.5753 28.5809 12.5444 28.6411L11.7525 30.7652C11.6838 30.9003 11.5718 31.0084 11.4343 31.0723C11.1165 31.2213 10.812 31.3971 10.524 31.5978C10.3982 31.6792 10.2613 31.6866 10.2095 31.5978L9.46938 30.4543C9.41758 30.3729 9.29546 30.3914 9.19925 30.4913L7.59697 32.1861C7.55087 32.2315 7.51562 32.2866 7.49383 32.3475C7.47205 32.4084 7.46429 32.4734 7.47115 32.5377L7.9189 34.0474C7.93767 34.1766 7.90873 34.3081 7.83749 34.4175C7.56615 34.8282 7.31903 35.2545 7.09741 35.6941C7.01909 35.8227 6.89471 35.9167 6.74957 35.9569L5.37671 36.2862C5.3082 36.3019 5.24436 36.3336 5.19036 36.3786C5.13636 36.4236 5.09371 36.4807 5.06587 36.5452L4.37389 38.8691C4.3666 38.8944 4.36558 38.9212 4.37093 38.947C4.37627 38.9729 4.38781 38.997 4.40456 39.0174C4.42131 39.0378 4.44276 39.0538 4.46707 39.0641C4.49138 39.0743 4.51782 39.0785 4.54411 39.0763L5.79856 39.1503C5.82603 39.1488 5.85353 39.1529 5.87932 39.1625C5.90511 39.1721 5.92865 39.1869 5.94845 39.206C5.96825 39.2251 5.98389 39.2481 5.9944 39.2736C6.0049 39.299 6.01003 39.3263 6.00948 39.3539C5.97436 39.7552 5.97436 40.1588 6.00948 40.5602C6.00854 40.6951 5.96154 40.8257 5.87627 40.9302L4.4775 42.625C4.43504 42.6711 4.40496 42.7271 4.39007 42.788C4.37519 42.8488 4.37598 42.9124 4.39239 42.9729L5.05477 44.453C5.0643 44.4721 5.07826 44.4886 5.09548 44.5011C5.11233 44.5065 5.13043 44.5065 5.14728 44.5011C5.20939 44.4966 5.26751 44.4689 5.3101 44.4234L6.79027 43.058C6.83048 43.0135 6.88471 42.9841 6.94395 42.9746C7.00319 42.9652 7.06387 42.9763 7.11591 43.0062C7.30727 43.1622 7.52207 43.2871 7.75238 43.3762C7.80442 43.3953 7.84811 43.4321 7.87584 43.4801C7.90356 43.5281 7.91356 43.5843 7.9041 43.6389L7.44155 45.7297C7.43618 45.7568 7.43935 45.7848 7.45061 45.81C7.46188 45.8352 7.4807 45.8563 7.50445 45.8703C7.54613 45.8934 7.59413 45.9025 7.64137 45.8962L9.12154 45.7519C9.18868 45.7437 9.25278 45.7191 9.30825 45.6804C9.36372 45.6417 9.40888 45.59 9.43978 45.5299L10.2317 43.4058C10.3011 43.2703 10.4128 43.1612 10.5499 43.095C10.7098 43.0223 10.8654 42.9408 11.0162 42.8508C11.1605 42.7656 11.3085 42.6731 11.4565 42.5732C11.6045 42.4733 11.7155 42.4844 11.7673 42.5732L12.5074 43.713C12.5169 43.7269 12.5296 43.7383 12.5444 43.7463C12.6036 43.787 12.6999 43.7463 12.7776 43.6759L14.3799 41.9848C14.429 41.9379 14.4658 41.8796 14.4871 41.8151C14.5084 41.7506 14.5135 41.6818 14.502 41.6148L14.0579 40.1013C14.0358 39.9721 14.065 39.8393 14.1393 39.7313C14.4128 39.3206 14.66 38.8929 14.8794 38.4509C14.9207 38.3853 14.9747 38.3285 15.0382 38.284C15.1018 38.2395 15.1736 38.2082 15.2495 38.1919L16.6186 37.8626C16.6871 37.8468 16.751 37.8152 16.805 37.7702C16.859 37.7252 16.9016 37.6681 16.9294 37.6035L17.6214 35.2797C17.6244 35.2468 17.6171 35.2139 17.6005 35.1854C17.5839 35.1569 17.5589 35.1342 17.5289 35.1206ZM10.2095 40.8007L10.1281 40.8192H10.0689L9.93934 40.8414H9.78762H9.6507C9.35511 40.8423 9.06602 40.7547 8.82068 40.5898C8.57535 40.4249 8.38499 40.1903 8.27414 39.9163C8.16742 39.6732 8.09997 39.4146 8.07432 39.1503C8.05935 39.009 8.05194 38.8669 8.05212 38.7248C8.14174 37.1695 8.78338 35.6973 9.86163 34.5729C10.1874 34.2233 10.5612 33.9218 10.9718 33.6774C11.0913 33.6072 11.2148 33.5442 11.3418 33.4887C11.6659 33.3375 12.0204 33.2628 12.3779 33.2703H12.4408H12.4926H12.5518C12.8052 33.3092 13.0441 33.4132 13.2452 33.5721C13.4462 33.731 13.6026 33.9394 13.699 34.1769C14.3169 35.5461 13.6065 37.9366 12.1115 39.5167C11.61 40.1141 10.9511 40.559 10.2095 40.8007Z" fill="#F5F5F5"/>
<path d="M11.7378 30.7763C11.6647 30.904 11.5552 31.0071 11.4232 31.0723C11.1088 31.221 10.8079 31.3968 10.524 31.5978C10.3982 31.6792 10.2613 31.6866 10.2095 31.5978L9.46939 30.458C9.46084 30.4433 9.44789 30.4317 9.43239 30.4247L8.02992 29.6143C8.18066 29.5243 8.33632 29.4427 8.49618 29.3701L8.54798 29.3405C8.60326 29.306 8.6542 29.265 8.6997 29.2184L8.75521 29.1592C8.76756 29.1462 8.77758 29.1312 8.78481 29.1148L8.80701 29.0741L11.7378 30.7763Z" fill="#EBEBEB"/>
<path d="M7.93372 34.1029C7.93619 34.2155 7.90529 34.3262 7.84491 34.4212C7.57421 34.8324 7.32711 35.2586 7.10482 35.6978C7.0865 35.7345 7.0628 35.7681 7.03452 35.7977L4.07417 34.0918C4.08986 34.0777 4.10355 34.0615 4.11488 34.0437C4.1296 34.0283 4.14206 34.0109 4.15188 33.9919C4.37125 33.5499 4.61845 33.1223 4.89197 32.7116C4.90656 32.6907 4.91896 32.6684 4.92897 32.645C4.92897 32.645 4.92897 32.6154 4.92897 32.6006C4.93058 32.592 4.93058 32.5832 4.92897 32.5747C4.93028 32.5537 4.93028 32.5327 4.92897 32.5118C4.93436 32.4799 4.93436 32.4474 4.92897 32.4156L7.93372 34.1029Z" fill="#EBEBEB"/>
<path d="M8.00772 29.6106L6.47575 28.7225C6.45563 28.7104 6.43261 28.704 6.40914 28.704C6.37672 28.7064 6.34517 28.7155 6.31649 28.7308C6.28781 28.7461 6.26265 28.7672 6.24262 28.7928L5.28421 29.8067L4.64033 30.4839C4.58768 30.5411 4.54849 30.6094 4.52562 30.6837L6.77918 31.9789L7.47856 32.3785C7.50237 32.3098 7.54017 32.2468 7.58957 32.1935L7.61178 32.1713L9.19186 30.4987C9.21759 30.4659 9.25217 30.4412 9.29151 30.4274C9.33086 30.4136 9.37332 30.4114 9.41388 30.421L8.00772 29.6106Z" fill="#F5F5F5"/>
<path d="M14.4391 28.2933C14.4004 28.2733 14.3561 28.2668 14.3133 28.2748L12.8331 28.4191C12.7431 28.4296 12.6589 28.4684 12.5926 28.5301L9.63222 26.8279C9.69725 26.7638 9.78197 26.7234 9.87275 26.7132L11.3529 26.5689C11.4026 26.5609 11.4534 26.57 11.4972 26.5948L11.8895 26.8242L12.0856 26.9352L13.3363 27.6753L13.6435 27.8529L13.8692 27.9824L14.4391 28.2933Z" fill="#F5F5F5"/>
<path d="M7.016 35.8125C6.93961 35.8887 6.84552 35.9446 6.74217 35.9754L5.36931 36.3047C5.26917 36.3286 5.17954 36.3844 5.11398 36.4638L2.15364 34.7653C2.22089 34.6821 2.31293 34.6225 2.41637 34.5951L3.78923 34.2658C3.89177 34.2401 3.98446 34.1848 4.05566 34.1067L7.016 35.8125Z" fill="#E6E6E6"/>
<path d="M5.97248 40.7304C5.948 40.8036 5.91176 40.8724 5.86517 40.9339L4.46641 42.6287C4.42607 42.6792 4.39591 42.737 4.37759 42.799L1.41725 41.0931C1.43244 41.0288 1.46291 40.9691 1.50606 40.9191L2.90482 39.2243C2.95139 39.1655 2.98767 39.0992 3.01214 39.0282L5.97248 40.7304Z" fill="#E6E6E6"/>
<path d="M2.18695 37.7516L2.22765 37.7775L2.17585 37.7442L2.07224 37.685L2.18695 37.7516Z" fill="#E0E0E0"/>
<path d="M12.1078 39.5685C11.5989 40.146 10.9409 40.5724 10.2058 40.8007L10.1281 40.8192H10.0689L9.93934 40.8414H9.79132H9.69511C9.68055 40.8452 9.66527 40.8452 9.65071 40.8414C9.35554 40.8426 9.06676 40.7555 8.82147 40.5913C8.57617 40.4271 8.38557 40.1934 8.27415 39.92C8.16783 39.6767 8.10041 39.4183 8.07433 39.154C8.18904 39.1022 8.30375 39.0393 8.42217 38.9727C9.27582 38.416 9.98611 37.6658 10.4953 36.783C11.0046 35.9002 11.2984 34.9097 11.3529 33.892C11.3529 33.7514 11.3529 33.6182 11.3529 33.4961C11.6762 33.3421 12.031 33.2661 12.389 33.2741H12.4519H12.5037C12.5221 33.2705 12.5409 33.2705 12.5592 33.2741C12.8132 33.3123 13.0529 33.416 13.2547 33.575C13.4565 33.7339 13.6134 33.9427 13.7101 34.1807C14.3132 35.5979 13.6028 37.9921 12.1078 39.5685Z" fill="#E0E0E0"/>
<path d="M7.9337 34.1029L4.97336 32.4007C4.97695 32.3824 4.97695 32.3636 4.97336 32.3452L4.52561 30.8355C4.51132 30.7859 4.51132 30.7333 4.52561 30.6837L6.77917 31.9789L7.47855 32.3785C7.46282 32.4329 7.46282 32.4907 7.47855 32.5451L7.9263 34.0548C7.93084 34.0705 7.93332 34.0867 7.9337 34.1029Z" fill="#E0E0E0"/>
<path d="M12.611 28.5301C12.5775 28.5611 12.551 28.599 12.5333 28.6411L11.7414 30.7652L8.7811 29.0593L9.58409 26.9315C9.59961 26.8893 9.6265 26.8521 9.6618 26.8242L12.611 28.5301Z" fill="#E0E0E0"/>
<path d="M16.8666 29.6772C16.8294 29.6692 16.7908 29.6715 16.7549 29.6839C16.7191 29.6963 16.6873 29.7183 16.663 29.7475L15.1829 31.113C15.1421 31.1578 15.0875 31.1877 15.0278 31.1977C14.9681 31.2078 14.9067 31.1975 14.8535 31.1685C14.6617 31.0131 14.447 30.8883 14.217 30.7985C14.1657 30.7795 14.1226 30.7433 14.0949 30.6961C14.0672 30.6488 14.0568 30.5935 14.0653 30.5394L14.5242 28.4487C14.5319 28.4205 14.5299 28.3906 14.5185 28.3637C14.5071 28.3369 14.4869 28.3146 14.4613 28.3007L13.9025 27.975C13.9196 27.9712 13.9373 27.9712 13.9543 27.975L13.9876 27.9972L16.8666 29.6772Z" fill="#E0E0E0"/>
<path d="M17.5215 35.1169C17.4926 35.103 17.4611 35.0954 17.429 35.0947L16.1783 35.0244C16.1509 35.0253 16.1237 35.0208 16.0981 35.011C16.0726 35.0013 16.0492 34.9864 16.0295 34.9674C16.0099 34.9484 15.9942 34.9257 15.9835 34.9005C15.9728 34.8753 15.9673 34.8482 15.9673 34.8208C15.9858 34.621 15.997 34.4249 15.997 34.2325L17.5215 35.1169Z" fill="#E0E0E0"/>
<path d="M4.10377 34.0437C4.09244 34.0615 4.07875 34.0777 4.06306 34.0918C4.07851 34.0775 4.09218 34.0613 4.10377 34.0437Z" fill="#E0E0E0"/>
<path d="M2.15735 34.7505C2.13708 34.7776 2.12087 34.8075 2.10925 34.8393L2.02414 35.128L1.57268 36.6451L1.42097 37.1632C1.41192 37.1908 1.41192 37.2207 1.42097 37.2483C1.42486 37.2651 1.43109 37.2813 1.43947 37.2964C1.45086 37.3097 1.46323 37.322 1.47647 37.3334H1.49868L1.7318 37.4703L1.79471 37.5036L1.97973 37.6072L2.07594 37.6665L2.19065 37.7331L2.23136 37.759L2.35347 37.8256L3.01955 38.1956L4.42571 39.0097C4.39752 38.9917 4.37607 38.9649 4.36469 38.9334C4.35332 38.902 4.35265 38.8677 4.36281 38.8358L4.97338 36.8339L5.05849 36.5452C5.07127 36.5102 5.09006 36.4776 5.11399 36.449L2.15735 34.7505Z" fill="#E0E0E0"/>
<path d="M12.5482 43.7499L11.0125 42.8433C11.1568 42.7582 11.3048 42.6657 11.4528 42.5658C11.6008 42.4659 11.7119 42.477 11.7637 42.5658L12.5038 43.7092C12.5142 43.7269 12.5297 43.7411 12.5482 43.7499Z" fill="#E0E0E0"/>
<path d="M7.93371 43.6389L7.47115 45.7334C7.46578 45.7605 7.46895 45.7885 7.48022 45.8137C7.49149 45.8389 7.5103 45.86 7.53406 45.874L5.16579 44.5048C5.22736 44.4984 5.28484 44.4709 5.32861 44.4271L6.80878 43.0654C6.84843 43.0202 6.90217 42.9898 6.96129 42.9791C7.0204 42.9683 7.08141 42.9779 7.13441 43.0062C7.32497 43.1634 7.53997 43.2884 7.77089 43.3762C7.82543 43.3926 7.8721 43.4283 7.9021 43.4767C7.93209 43.5251 7.94334 43.5828 7.93371 43.6389Z" fill="#E0E0E0"/>
<path d="M5.99839 40.5639C6.00268 40.6207 5.99382 40.6776 5.97249 40.7304L3.01215 39.0282C3.0318 38.9737 3.0406 38.9159 3.03805 38.858C3.03805 38.6545 3.01215 38.4472 3.01215 38.2326L4.41831 39.0467C4.44912 39.0631 4.48334 39.072 4.51822 39.0726L5.77267 39.1429C5.80032 39.1419 5.8279 39.1466 5.8537 39.1566C5.8795 39.1666 5.90299 39.1817 5.92274 39.2011C5.94248 39.2205 5.95806 39.2438 5.96852 39.2694C5.97898 39.295 5.98411 39.3225 5.98359 39.3502C5.95296 39.7544 5.95791 40.1605 5.99839 40.5639Z" fill="#E0E0E0"/>
<path d="M5.08067 44.4863L4.4812 44.1385L4.36649 44.0756L3.40067 43.5131L3.13794 43.3651L2.14623 42.7878C2.13733 42.7837 2.12966 42.7774 2.12403 42.7693C2.11534 42.7613 2.10895 42.7511 2.10553 42.7397L1.43945 41.2596C1.42619 41.2199 1.42619 41.1771 1.43945 41.1375C1.43945 41.1375 1.43945 41.1041 1.43945 41.0856L4.39979 42.7915C4.37912 42.8477 4.37912 42.9093 4.39979 42.9655L5.06217 44.4456C5.06561 44.4603 5.07189 44.4741 5.08067 44.4863Z" fill="#E0E0E0"/>
<path d="M21.7511 5.2618C21.6542 5.44041 21.5024 5.58312 21.3181 5.66885C20.8868 5.87531 20.4723 6.11534 20.0785 6.38673C19.9083 6.50145 19.7085 6.51255 19.6456 6.38673L18.6242 4.82145C18.6115 4.79977 18.592 4.78287 18.5687 4.77335L17.5548 4.18128C17.7694 4.05916 17.9804 3.94445 18.1913 3.84824L18.2653 3.80754C18.3413 3.76129 18.411 3.70531 18.4725 3.64102C18.5013 3.6154 18.5273 3.58688 18.5502 3.55591C18.5661 3.53924 18.5798 3.52058 18.5909 3.5004L18.6205 3.44489L21.7511 5.2618Z" fill="#EBEBEB"/>
<path d="M16.5002 9.83183C16.5038 9.98512 16.4612 10.1359 16.3781 10.2648C16.0062 10.8305 15.6677 11.4174 15.3642 12.0225C15.3379 12.0718 15.3042 12.1167 15.2643 12.1557L12.1152 10.3388C12.1378 10.3193 12.1577 10.2969 12.1744 10.2722C12.1921 10.2499 12.2082 10.2264 12.2225 10.2019C12.5201 9.58955 12.8575 8.99744 13.2327 8.42937C13.2531 8.40232 13.2693 8.37239 13.2808 8.34056C13.2939 8.32034 13.3027 8.29768 13.3067 8.27395C13.3088 8.26294 13.3088 8.25166 13.3067 8.24065C13.3067 8.21104 13.3067 8.18144 13.3067 8.15554C13.3157 8.11159 13.3157 8.06628 13.3067 8.02232L16.5002 9.83183Z" fill="#EBEBEB"/>
<path d="M17.5548 4.18128L15.4493 2.96384C15.4225 2.94751 15.3918 2.93858 15.3605 2.93794C15.3148 2.94111 15.2702 2.95358 15.2295 2.97457C15.1887 2.99557 15.1527 3.02466 15.1236 3.06005L13.8063 4.45141L12.9219 5.38392C12.8499 5.46357 12.7967 5.55843 12.7665 5.66145L14.9534 6.9122L15.9155 7.46356C15.9464 7.36817 15.9982 7.28091 16.0672 7.20823L16.0968 7.17863L18.269 4.88066C18.3038 4.83541 18.351 4.80121 18.4049 4.78217C18.4587 4.76313 18.5169 4.76007 18.5724 4.77335L17.5548 4.18128Z" fill="#F5F5F5"/>
<path d="M25.4663 1.85001C25.4119 1.82541 25.3517 1.81644 25.2924 1.82411L23.2831 2.02393C23.1605 2.04021 23.0457 2.09309 22.9537 2.17565L19.8047 0.358739C19.8968 0.273551 20.0132 0.21922 20.1377 0.203319L22.147 0.0034986C22.2147 -0.00693313 22.2839 0.00612542 22.3432 0.0405023L22.8834 0.355038L23.1499 0.510456L23.9603 0.980411L24.3858 1.22834C24.4931 1.28385 24.5967 1.34675 24.6929 1.40226L25.4663 1.85001Z" fill="#F5F5F5"/>
<path d="M15.2643 12.1594C15.1634 12.2657 15.0355 12.3424 14.8942 12.3814L13.007 12.8366C12.8712 12.8712 12.7504 12.9491 12.6629 13.0586L9.50641 11.2454C9.60058 11.1289 9.73071 11.0469 9.87645 11.0123L11.76 10.5608C11.9007 10.5227 12.0286 10.4472 12.13 10.3425L15.2643 12.1594Z" fill="#E6E6E6"/>
<path d="M13.8322 18.9386C13.7996 19.0398 13.7481 19.134 13.6805 19.2161L11.7636 21.5437C11.7073 21.6122 11.6658 21.6915 11.6415 21.7768L8.49617 19.9599C8.51738 19.8731 8.55785 19.7921 8.61458 19.7231L10.5388 17.3955C10.6033 17.3139 10.6522 17.221 10.6831 17.1217L13.8322 18.9386Z" fill="#E6E6E6"/>
<path d="M9.53599 15.3677L9.59519 15.4047L9.52119 15.3603L9.38057 15.2789L9.53599 15.3677Z" fill="#E0E0E0"/>
<path d="M22.2581 17.3437C21.5656 18.1337 20.6696 18.7186 19.6678 19.0348L19.5568 19.0607C19.531 19.0641 19.5048 19.0641 19.479 19.0607L19.3014 19.0903C19.2328 19.1014 19.1636 19.1088 19.0942 19.1125H18.9018C18.4958 19.1164 18.0982 18.9972 17.7613 18.7706C17.4244 18.544 17.1641 18.2207 17.0146 17.8433C16.8676 17.5083 16.774 17.1525 16.737 16.7886C16.8924 16.7183 17.0516 16.6332 17.2144 16.5444C19.4346 15.2567 21.2442 12.1335 21.2442 9.5617C21.2442 9.36928 21.2442 9.19166 21.222 9.01404C21.6662 8.80595 22.1525 8.70336 22.6429 8.71431H22.7317H22.802C22.8278 8.71071 22.854 8.71071 22.8797 8.71431C23.2289 8.76523 23.5585 8.90685 23.8358 9.12503C24.113 9.3432 24.3282 9.6303 24.4598 9.95765C25.2924 11.8856 24.3155 15.1753 22.2581 17.3437Z" fill="#E0E0E0"/>
<path d="M16.5002 9.83184L13.3511 8.01863C13.3549 7.9941 13.3549 7.96915 13.3511 7.94462L12.7443 5.86868C12.7245 5.80101 12.7245 5.72912 12.7443 5.66145L14.9312 6.9122L15.8933 7.46356C15.865 7.53654 15.8573 7.61593 15.8711 7.69299L16.4854 9.76523C16.4943 9.78637 16.4993 9.80893 16.5002 9.83184Z" fill="#E0E0E0"/>
<path d="M22.9538 2.17565C22.9067 2.21868 22.87 2.27181 22.8464 2.33107L21.7585 5.247L18.6095 3.43009C18.6095 3.43009 18.6095 3.43009 18.6095 3.40789L19.6974 0.491955C19.7192 0.434812 19.7548 0.383957 19.801 0.343937L22.9538 2.17565Z" fill="#E0E0E0"/>
<path d="M28.8004 3.75203C28.7483 3.74075 28.6942 3.74412 28.6439 3.76175C28.5936 3.77939 28.5491 3.8106 28.5155 3.85194L26.4692 5.72436C26.4131 5.78552 26.3381 5.82606 26.2562 5.83948C26.1744 5.8529 26.0904 5.83842 26.0177 5.79837C25.7546 5.58321 25.4585 5.41202 25.1407 5.29141C25.0686 5.26341 25.0084 5.21117 24.9706 5.14364C24.9328 5.07611 24.9197 4.99751 24.9335 4.92136L25.5663 2.05353C25.5768 2.01456 25.5737 1.97318 25.5576 1.93618C25.5414 1.89919 25.5132 1.86879 25.4775 1.85001L24.693 1.39856C24.7186 1.39327 24.745 1.39327 24.7707 1.39856L24.8151 1.42446L28.8004 3.75203Z" fill="#E0E0E0"/>
<path d="M29.6996 11.2269C29.6608 11.2067 29.6176 11.1965 29.5738 11.1973L27.8531 11.1011C27.8152 11.1021 27.7776 11.0954 27.7423 11.0815C27.7071 11.0676 27.6751 11.0467 27.6481 11.0201C27.6212 10.9935 27.5999 10.9617 27.5855 10.9267C27.5711 10.8916 27.564 10.854 27.5645 10.8161C27.5867 10.546 27.6015 10.2759 27.6015 10.0132L29.6996 11.2269Z" fill="#E0E0E0"/>
<path d="M12.1744 10.2796C12.1577 10.3043 12.1378 10.3267 12.1152 10.3462L12.1744 10.2796Z" fill="#E0E0E0"/>
<path d="M9.49899 11.2454C9.46046 11.2867 9.43142 11.336 9.41388 11.3897L9.31397 11.7598L8.696 13.8431L8.48507 14.5573C8.4721 14.5944 8.4721 14.6349 8.48507 14.672C8.48812 14.6949 8.49704 14.7165 8.51097 14.7349C8.52398 14.7548 8.54024 14.7723 8.55908 14.7867C8.56879 14.796 8.58007 14.8035 8.59238 14.8089L8.90692 14.9939L8.99573 15.042L9.24736 15.1864L9.38427 15.2678L9.53969 15.3566L9.5989 15.3936L9.76542 15.4861L10.6831 16.0152L11.7081 16.6073C11.6692 16.5825 11.6396 16.5453 11.6242 16.5017C11.6088 16.4581 11.6084 16.4106 11.623 16.3668L12.4556 13.5656L12.574 13.1733C12.5882 13.123 12.6149 13.0772 12.6518 13.0401L9.49899 11.2454Z" fill="#E0E0E0"/>
<path d="M22.8649 23.0831L20.7557 21.8582C20.9518 21.7435 21.159 21.614 21.3589 21.4882C21.5587 21.3624 21.7289 21.3661 21.7881 21.4882L22.8131 23.0572C22.8289 23.0685 22.8464 23.0772 22.8649 23.0831Z" fill="#E0E0E0"/>
<path d="M16.5002 22.9351L15.8674 25.8214C15.8578 25.8589 15.8609 25.8985 15.8763 25.9341C15.8917 25.9696 15.9185 25.999 15.9525 26.0175C15.823 25.9472 13.8396 24.7964 12.6962 24.134C12.7798 24.1257 12.8581 24.0891 12.9182 24.0304L14.9645 22.1432C15.0199 22.0823 15.094 22.0416 15.1751 22.0275C15.2562 22.0134 15.3396 22.0268 15.4123 22.0655C15.6752 22.2827 15.9713 22.4564 16.2893 22.5798C16.3605 22.6049 16.4207 22.6542 16.4592 22.7191C16.4978 22.7841 16.5123 22.8605 16.5002 22.9351Z" fill="#E0E0E0"/>
<path d="M13.8544 18.7092C13.8586 18.7874 13.846 18.8656 13.8174 18.9386L10.6683 17.1217C10.6977 17.0476 10.7115 16.9682 10.709 16.8886C10.6817 16.6045 10.6694 16.3191 10.672 16.0338L11.6971 16.6258C11.7392 16.6492 11.7859 16.6631 11.834 16.6665L13.5584 16.7627C13.5959 16.7617 13.6333 16.7683 13.6683 16.782C13.7032 16.7957 13.7351 16.8162 13.762 16.8424C13.7889 16.8687 13.8103 16.9 13.8249 16.9346C13.8395 16.9692 13.847 17.0064 13.847 17.044C13.7991 17.5981 13.8016 18.1555 13.8544 18.7092Z" fill="#E0E0E0"/>
<path d="M12.6073 24.1007L11.7822 23.6233L11.6267 23.5308L10.2983 22.7648C10.1725 22.6908 10.0541 22.6205 9.92824 22.5576L9.47309 22.2875C9.46064 22.2807 9.44939 22.272 9.43978 22.2616C9.4286 22.2498 9.41981 22.236 9.41388 22.2209L8.49987 20.2004C8.48259 20.1463 8.48259 20.0881 8.49987 20.0339C8.49837 20.0105 8.49837 19.987 8.49987 19.9636L11.6452 21.7805C11.6176 21.8596 11.6176 21.9457 11.6452 22.0247L12.5555 24.0415C12.5681 24.0649 12.5858 24.0852 12.6073 24.1007Z" fill="#E0E0E0"/>
<path d="M142.911 13.0031C143.416 13.5825 144.074 14.0092 144.809 14.2354H144.89H144.946L145.075 14.2576H145.227H145.32C145.334 14.2613 145.349 14.2613 145.364 14.2576C145.659 14.2587 145.948 14.1716 146.193 14.0074C146.438 13.8433 146.629 13.6095 146.74 13.3361C146.847 13.093 146.915 12.8345 146.94 12.5702C146.829 12.5184 146.711 12.4554 146.596 12.3888C145.741 11.833 145.03 11.083 144.52 10.2001C144.01 9.3172 143.716 8.3263 143.662 7.30815C143.662 7.16754 143.662 7.03802 143.662 6.91221C143.338 6.75823 142.984 6.68219 142.626 6.69018H142.563H142.511H142.455C142.201 6.72845 141.962 6.83216 141.76 6.99111C141.558 7.15007 141.401 7.3588 141.305 7.59678C140.701 9.03255 141.412 11.4267 142.911 13.0031Z" fill="#E4D229"/>
<path d="M137.412 8.74021L138.104 11.0641C138.132 11.1286 138.174 11.1857 138.228 11.2307C138.282 11.2757 138.346 11.3074 138.415 11.3231L139.787 11.6525C139.933 11.6899 140.058 11.7829 140.135 11.9115C140.356 12.3527 140.603 12.7803 140.875 13.1918C140.949 13.3002 140.978 13.4327 140.957 13.5619L140.513 15.0716C140.501 15.1386 140.506 15.2074 140.528 15.2719C140.549 15.3364 140.586 15.3947 140.635 15.4417L142.241 17.1328C142.318 17.2179 142.411 17.2438 142.47 17.2068C142.485 17.1989 142.498 17.1874 142.507 17.1735L143.247 16.0301C143.299 15.9487 143.44 15.9561 143.562 16.0301C143.684 16.1041 143.854 16.2262 144.002 16.3113C144.15 16.3964 144.313 16.4815 144.465 16.5555C144.602 16.6194 144.714 16.7275 144.783 16.8627L145.575 18.9867C145.606 19.0473 145.652 19.0993 145.708 19.1381C145.764 19.1768 145.829 19.2011 145.897 19.2087L147.355 19.353C147.402 19.3593 147.45 19.3502 147.492 19.3271C147.516 19.3134 147.534 19.2922 147.545 19.2668C147.556 19.2414 147.558 19.2132 147.551 19.1865L147.088 17.0958C147.08 17.0412 147.09 16.9853 147.118 16.9375C147.145 16.8896 147.188 16.8528 147.24 16.8331C147.472 16.744 147.688 16.6192 147.88 16.463C147.933 16.4343 147.994 16.4241 148.053 16.4342C148.112 16.4443 148.166 16.474 148.206 16.5185L149.686 17.8803C149.729 17.9251 149.787 17.9528 149.849 17.958C149.866 17.9618 149.884 17.9618 149.901 17.958C149.92 17.9475 149.934 17.9303 149.941 17.9099L150.604 16.4297C150.62 16.3693 150.621 16.3056 150.606 16.2448C150.591 16.184 150.561 16.1279 150.519 16.0819L149.124 14.3871C149.036 14.2836 148.987 14.1526 148.987 14.017C149.024 13.6158 149.024 13.2119 148.987 12.8107C148.987 12.7833 148.992 12.7562 149.003 12.7311C149.013 12.7059 149.029 12.6831 149.049 12.6641C149.069 12.6451 149.092 12.6303 149.117 12.6205C149.143 12.6107 149.17 12.6062 149.198 12.6072L150.452 12.5369C150.478 12.5384 150.505 12.5336 150.529 12.5229C150.553 12.5122 150.575 12.4958 150.591 12.4752C150.608 12.4546 150.62 12.4303 150.625 12.4043C150.63 12.3783 150.629 12.3515 150.622 12.3259L149.93 10.0021C149.902 9.93752 149.86 9.88043 149.806 9.83543C149.752 9.79043 149.688 9.75878 149.619 9.74303L148.25 9.4137C148.105 9.37584 147.98 9.28294 147.902 9.15466C147.682 8.71346 147.434 8.28591 147.162 7.87432C147.09 7.76538 147.061 7.63345 147.081 7.50427L147.529 5.9908C147.536 5.92646 147.529 5.86121 147.507 5.8002C147.485 5.7392 147.45 5.6841 147.403 5.63926L145.801 3.94446C145.704 3.84455 145.586 3.82975 145.53 3.91116L144.79 5.05089C144.739 5.1323 144.602 5.1249 144.48 5.05089C144.192 4.85187 143.889 4.67616 143.573 4.52543C143.435 4.46155 143.323 4.3534 143.255 4.21829L142.463 2.09425C142.432 2.03367 142.387 1.98164 142.332 1.94287C142.276 1.9041 142.212 1.87982 142.145 1.87222L140.687 1.7279C140.639 1.72278 140.59 1.73044 140.546 1.75011C140.521 1.76455 140.501 1.78683 140.49 1.81355C140.478 1.84027 140.476 1.86997 140.483 1.89812L140.96 3.98887C140.969 4.04297 140.96 4.09852 140.933 4.14631C140.906 4.19409 140.863 4.23124 140.812 4.2516C140.581 4.33975 140.364 4.4647 140.172 4.62164C140.12 4.65037 140.059 4.66052 140 4.65044C139.941 4.64037 139.887 4.61067 139.847 4.56613L138.366 3.20437C138.289 3.13407 138.207 3.10816 138.152 3.13777C138.136 3.1489 138.123 3.16426 138.115 3.18217L137.449 4.66234C137.432 4.72279 137.431 4.78641 137.446 4.84724C137.461 4.90808 137.491 4.96415 137.534 5.01019L138.929 6.67908C139.013 6.78428 139.062 6.91418 139.066 7.04912C139.045 7.25565 139.035 7.46318 139.036 7.67079C139.036 7.85951 139.036 8.04083 139.066 8.25546C139.066 8.28282 139.06 8.30991 139.05 8.33509C139.039 8.36028 139.023 8.38306 139.004 8.40205C138.984 8.42105 138.961 8.43589 138.935 8.44567C138.909 8.45545 138.882 8.45998 138.855 8.45898L137.604 8.52929C137.572 8.53056 137.541 8.5381 137.512 8.5515C137.475 8.56496 137.444 8.59173 137.425 8.62661C137.407 8.66148 137.402 8.70197 137.412 8.74021ZM142.907 13.0031C141.427 11.4267 140.687 9.03255 141.323 7.66339C141.418 7.42465 141.573 7.21509 141.775 7.05589C141.976 6.8967 142.216 6.79352 142.47 6.75679H142.526H142.577H142.629C142.986 6.74956 143.339 6.82426 143.662 6.97511C143.784 7.03062 143.91 7.09353 144.032 7.16383C144.443 7.4085 144.817 7.71137 145.142 8.06304C146.221 9.18555 146.863 10.6569 146.951 12.2112C146.955 12.3534 146.948 12.4957 146.929 12.6368C146.904 12.9011 146.836 13.1596 146.729 13.4028C146.619 13.6768 146.428 13.9113 146.183 14.0762C145.937 14.2411 145.648 14.3287 145.353 14.3279H145.22H145.068L144.938 14.3057H144.883L144.801 14.2835C144.063 14.041 143.407 13.5976 142.907 13.0031Z" fill="#F5F5F5"/>
<path d="M143.281 4.21089C143.348 4.34168 143.457 4.44596 143.591 4.50692C143.907 4.65765 144.21 4.83336 144.498 5.03238C144.62 5.11379 144.757 5.12119 144.809 5.03238L145.549 3.89265C145.557 3.87688 145.57 3.86398 145.586 3.85565L146.988 3.04525C146.833 2.95644 146.678 2.87133 146.526 2.80103C146.506 2.79342 146.488 2.78348 146.47 2.77142C146.415 2.73693 146.364 2.69594 146.319 2.64931L146.263 2.5901C146.252 2.57619 146.242 2.56133 146.234 2.54569L146.211 2.50499L143.281 4.21089Z" fill="#EBEBEB"/>
<path d="M147.103 7.53757C147.098 7.64873 147.128 7.75872 147.188 7.85211C147.46 8.2637 147.707 8.69125 147.928 9.13246C147.946 9.16935 147.971 9.20213 148.002 9.22867L150.963 7.52277C150.946 7.50947 150.932 7.49314 150.922 7.47466C150.907 7.4605 150.895 7.44429 150.885 7.42656C150.666 6.98335 150.418 6.55448 150.145 6.14251C150.132 6.12278 150.12 6.10169 150.112 6.0796C150.102 6.06497 150.096 6.04861 150.093 6.0315C150.093 6.0315 150.093 6.0315 150.093 6.00559C150.093 5.97969 150.093 6.00559 150.093 6.00559C150.092 5.98465 150.092 5.96363 150.093 5.94269C150.084 5.91125 150.084 5.87791 150.093 5.84647L147.103 7.53757Z" fill="#EBEBEB"/>
<path d="M147.007 3.04526L148.539 2.15716C148.561 2.15135 148.584 2.15135 148.605 2.15716C148.638 2.15948 148.671 2.16856 148.7 2.18384C148.729 2.19912 148.755 2.22027 148.776 2.24597L149.734 3.24878L150.378 3.92596C150.432 3.98395 150.471 4.05364 150.493 4.12948L148.239 5.42093L147.54 5.82058C147.518 5.75096 147.48 5.68753 147.429 5.63556L147.41 5.61336L145.826 3.94076C145.801 3.9076 145.766 3.88258 145.727 3.86878C145.688 3.85498 145.645 3.85299 145.604 3.86305L147.007 3.04526Z" fill="#F5F5F5"/>
<path d="M140.576 1.7279C140.617 1.71786 140.66 1.71786 140.701 1.7279L142.163 1.87222C142.253 1.88191 142.338 1.92091 142.404 1.98323L145.364 0.281037C145.298 0.216143 145.212 0.17568 145.12 0.166321L143.658 0.0220049C143.608 0.0140477 143.557 0.0231801 143.514 0.0479078L143.121 0.277335L142.929 0.388347L141.678 1.12843L141.367 1.30976L141.149 1.39856L140.576 1.7279Z" fill="#F5F5F5"/>
<path d="M148.002 9.23237C148.078 9.30992 148.172 9.36611 148.276 9.39519L149.649 9.72453C149.747 9.75076 149.835 9.80627 149.901 9.88365L152.861 8.18515C152.793 8.1023 152.701 8.04277 152.598 8.01493L151.229 7.68559C151.126 7.65904 151.032 7.60388 150.959 7.52647L148.002 9.23237Z" fill="#E6E6E6"/>
<path d="M149.042 14.165C149.066 14.2391 149.104 14.3081 149.153 14.3686L150.548 16.0634C150.59 16.1129 150.62 16.171 150.637 16.2336L153.597 14.5277C153.581 14.4637 153.551 14.4042 153.509 14.3538L152.11 12.659C152.063 12.6008 152.028 12.5342 152.006 12.4628L149.042 14.165Z" fill="#E6E6E6"/>
<path d="M152.828 11.1862L152.787 11.2121L152.839 11.1825L152.942 11.1233L152.828 11.1862Z" fill="#E0E0E0"/>
<path d="M142.911 13.0031C143.416 13.5825 144.074 14.0092 144.809 14.2354H144.89H144.946L145.075 14.2576H145.227H145.32C145.334 14.2613 145.349 14.2613 145.364 14.2576C145.659 14.2587 145.948 14.1716 146.193 14.0074C146.438 13.8433 146.629 13.6095 146.74 13.3361C146.847 13.093 146.915 12.8345 146.94 12.5702C146.829 12.5184 146.711 12.4554 146.596 12.3888C145.741 11.833 145.03 11.083 144.52 10.2001C144.01 9.3172 143.716 8.3263 143.662 7.30815C143.662 7.16754 143.662 7.03802 143.662 6.91221C143.338 6.75823 142.984 6.68219 142.626 6.69018H142.563H142.511H142.455C142.201 6.72845 141.962 6.83216 141.76 6.99111C141.558 7.15007 141.401 7.3588 141.305 7.59678C140.701 9.03255 141.412 11.4267 142.911 13.0031Z" fill="#E0E0E0"/>
<path d="M147.103 7.53758L150.063 5.83538C150.06 5.81833 150.06 5.80063 150.063 5.78358L150.511 4.2701C150.526 4.22181 150.526 4.17037 150.511 4.12209L148.258 5.41353L147.558 5.81318C147.574 5.86757 147.574 5.92531 147.558 5.9797L147.114 7.48948C147.107 7.50433 147.103 7.52087 147.103 7.53758Z" fill="#E0E0E0"/>
<path d="M142.404 1.96473C142.438 1.9954 142.464 2.03335 142.481 2.07574L143.273 4.19979L146.233 2.49389L145.442 0.369844C145.426 0.328497 145.401 0.291622 145.368 0.262531L142.404 1.96473Z" fill="#E0E0E0"/>
<path d="M138.148 3.11186C138.186 3.10504 138.225 3.10792 138.261 3.12022C138.297 3.13252 138.33 3.15384 138.355 3.18217L139.835 4.54763C139.875 4.59274 139.929 4.62285 139.988 4.63296C140.048 4.64306 140.109 4.63253 140.161 4.60313C140.353 4.4462 140.569 4.32125 140.801 4.23309C140.853 4.21331 140.896 4.17627 140.923 4.12833C140.95 4.08038 140.959 4.02453 140.949 3.97036L140.49 1.87962C140.483 1.85146 140.486 1.82176 140.497 1.79504C140.508 1.76832 140.528 1.74605 140.553 1.7316L141.149 1.39856C141.131 1.39477 141.112 1.39477 141.094 1.39856C141.083 1.39662 141.071 1.39662 141.06 1.39856L138.148 3.11186Z" fill="#E0E0E0"/>
<path d="M137.493 8.55149C137.522 8.5376 137.554 8.53003 137.586 8.52929L138.84 8.45898C138.867 8.45999 138.894 8.45545 138.92 8.44563C138.945 8.43581 138.968 8.42091 138.988 8.40186C139.007 8.38281 139.022 8.36 139.032 8.33482C139.043 8.30965 139.048 8.28264 139.047 8.25546C139.047 8.05563 139.021 7.85951 139.021 7.67079L137.493 8.55149Z" fill="#E0E0E0"/>
<path d="M150.911 7.47836C150.921 7.49684 150.935 7.51317 150.952 7.52647L150.911 7.47836Z" fill="#E0E0E0"/>
<path d="M152.857 8.18515C152.88 8.21223 152.896 8.24376 152.905 8.27766L152.991 8.5626L153.442 10.0798L153.597 10.6015C153.605 10.6294 153.605 10.6587 153.597 10.6866C153.594 10.7026 153.588 10.7177 153.579 10.731C153.57 10.7451 153.559 10.7575 153.546 10.7681H153.52L153.29 10.905L153.224 10.9383L153.042 11.0456L152.942 11.1048L152.828 11.1677L152.787 11.1936L152.665 11.2602L151.999 11.6303L150.593 12.4443C150.622 12.4262 150.644 12.3987 150.655 12.3665C150.666 12.3342 150.667 12.2991 150.656 12.2667L150.03 10.2796L149.945 9.99466C149.934 9.95778 149.915 9.92371 149.89 9.89475L152.857 8.18515Z" fill="#E0E0E0"/>
<path d="M142.466 17.1846L144.002 16.2928C143.862 16.2077 143.71 16.1152 143.566 16.0153C143.421 15.9153 143.306 15.9264 143.255 16.0153L142.515 17.1587C142.501 17.1715 142.485 17.1804 142.466 17.1846Z" fill="#E0E0E0"/>
<path d="M147.103 17.0736L147.562 19.168C147.569 19.1951 147.566 19.2236 147.555 19.2491C147.543 19.2745 147.524 19.2955 147.499 19.3086C147.592 19.2568 149.038 18.4242 149.871 17.9395C149.809 17.9342 149.751 17.9066 149.708 17.8618L148.228 16.5C148.189 16.4543 148.135 16.4237 148.075 16.4136C148.016 16.4035 147.955 16.4144 147.902 16.4445C147.71 16.6007 147.494 16.7255 147.262 16.8145C147.209 16.8315 147.164 16.867 147.135 16.9146C147.105 16.9621 147.094 17.0185 147.103 17.0736Z" fill="#E0E0E0"/>
<path d="M149.016 13.9985C149.013 14.0552 149.022 14.112 149.042 14.165L152.002 12.4628C151.981 12.4087 151.971 12.3508 151.973 12.2926C151.993 12.086 152.001 11.8785 151.999 11.671L150.593 12.485C150.562 12.5014 150.528 12.5103 150.493 12.5109L149.238 12.585C149.211 12.584 149.184 12.5885 149.158 12.5983C149.133 12.6081 149.109 12.6229 149.09 12.6419C149.07 12.6609 149.054 12.6837 149.043 12.7088C149.033 12.734 149.027 12.7611 149.027 12.7885C149.059 13.1914 149.055 13.5963 149.016 13.9985Z" fill="#E0E0E0"/>
<path d="M149.934 17.921L150.533 17.5768L150.648 17.5102L151.618 16.9515L151.877 16.7997L152.872 16.2225C152.879 16.2248 152.887 16.2248 152.894 16.2225L152.916 16.1929L153.579 14.7127C153.591 14.6729 153.591 14.6304 153.579 14.5906V14.5388L150.619 16.2447C150.639 16.3021 150.639 16.3649 150.619 16.4223L149.956 17.9025C149.95 17.9098 149.942 17.9161 149.934 17.921Z" fill="#E0E0E0"/>
<path d="M148.665 28.1897L149.616 31.3831C149.652 31.4742 149.71 31.5552 149.784 31.6195C149.858 31.6839 149.946 31.7297 150.041 31.7532L151.925 32.2083C152.128 32.2636 152.3 32.3966 152.406 32.5784C152.706 33.1845 153.043 33.7715 153.416 34.3361C153.514 34.4828 153.555 34.6607 153.531 34.8356L152.917 36.9116C152.906 36.9994 152.916 37.0885 152.946 37.1719C152.975 37.2553 153.023 37.3309 153.087 37.3926L155.288 39.7202C155.396 39.8349 155.525 39.8719 155.61 39.8201C155.63 39.808 155.646 39.7916 155.659 39.772L156.687 38.203C156.758 38.092 156.95 38.0994 157.116 38.203C157.283 38.3066 157.52 38.4695 157.72 38.5731C157.919 38.6767 158.145 38.8099 158.356 38.9061C158.545 38.9973 158.699 39.1464 158.796 39.3316L159.884 42.2476C159.926 42.3321 159.988 42.4046 160.065 42.4584C160.142 42.5121 160.231 42.5453 160.325 42.5547L162.33 42.7545C162.395 42.7622 162.461 42.7506 162.519 42.7212C162.553 42.7027 162.58 42.6733 162.595 42.6378C162.611 42.6023 162.614 42.5626 162.604 42.5251L161.971 39.6536C161.955 39.5773 161.967 39.4977 162.006 39.4296C162.044 39.3616 162.105 39.3097 162.179 39.2835C162.496 39.1599 162.792 38.9876 163.056 38.7729C163.128 38.7338 163.211 38.7198 163.292 38.7332C163.373 38.7466 163.448 38.7866 163.503 38.8469L165.553 40.723C165.613 40.7831 165.691 40.821 165.775 40.8303C165.8 40.8299 165.824 40.8236 165.846 40.8118C165.872 40.7986 165.891 40.7761 165.901 40.7489L166.815 38.7322C166.836 38.649 166.836 38.5621 166.815 38.4789C166.794 38.3958 166.754 38.3189 166.697 38.2548L164.776 35.9273C164.658 35.7832 164.593 35.603 164.591 35.4166C164.641 34.8651 164.641 34.3103 164.591 33.7588C164.591 33.7212 164.599 33.6841 164.613 33.6494C164.628 33.6148 164.649 33.5835 164.676 33.5573C164.703 33.5311 164.735 33.5105 164.77 33.4968C164.805 33.4831 164.842 33.4766 164.88 33.4776L166.601 33.3814C166.637 33.3847 166.674 33.379 166.708 33.3647C166.742 33.3505 166.772 33.3282 166.796 33.2997C166.819 33.2713 166.835 33.2375 166.842 33.2014C166.85 33.1654 166.848 33.128 166.838 33.0927L165.898 29.8919C165.859 29.8041 165.8 29.7266 165.727 29.6656C165.653 29.6046 165.566 29.5617 165.472 29.5403L163.589 29.0852C163.386 29.0295 163.213 28.8967 163.107 28.7151C162.807 28.1093 162.469 27.5223 162.097 26.9574C161.997 26.8114 161.956 26.6329 161.983 26.4579L162.597 24.3819C162.608 24.294 162.598 24.2049 162.568 24.1214C162.539 24.038 162.49 23.9625 162.427 23.9009L160.225 21.5733C160.092 21.4364 159.925 21.4105 159.855 21.5215L158.826 23.0905C158.756 23.2015 158.567 23.1941 158.397 23.0905C158.001 22.8187 157.586 22.5774 157.154 22.3689C156.965 22.2809 156.811 22.1324 156.717 21.947L155.629 19.0311C155.588 18.9471 155.527 18.8749 155.45 18.8212C155.374 18.7674 155.285 18.734 155.192 18.724L153.183 18.5241C153.118 18.5185 153.053 18.53 152.994 18.5574C152.959 18.5772 152.932 18.6077 152.916 18.6444C152.9 18.6811 152.896 18.722 152.905 18.761L153.538 21.6325C153.554 21.7083 153.542 21.7872 153.505 21.855C153.467 21.9228 153.407 21.9751 153.335 22.0025C153.016 22.1236 152.72 22.2961 152.458 22.5132C152.385 22.5528 152.3 22.5667 152.218 22.5526C152.137 22.5385 152.062 22.4973 152.006 22.4355L149.956 20.5631C149.922 20.5205 149.876 20.4892 149.824 20.4734C149.772 20.4575 149.716 20.4578 149.664 20.4743C149.641 20.4907 149.622 20.5122 149.608 20.5372L148.698 22.5576C148.676 22.6405 148.675 22.7274 148.695 22.8107C148.715 22.894 148.756 22.9711 148.813 23.035L150.733 25.3588C150.854 25.5019 150.92 25.6825 150.922 25.8695C150.896 26.147 150.885 26.432 150.885 26.7243C150.885 27.0166 150.903 27.2535 150.926 27.5273C150.926 27.5648 150.919 27.6021 150.905 27.6368C150.89 27.6714 150.869 27.7027 150.842 27.7288C150.815 27.7548 150.782 27.775 150.747 27.7881C150.712 27.8012 150.675 27.8069 150.637 27.8048L148.916 27.9047C148.873 27.904 148.829 27.9141 148.791 27.9343C148.742 27.9542 148.702 27.9911 148.679 28.0381C148.656 28.0852 148.651 28.1391 148.665 28.1897ZM156.214 34.0474C154.16 31.879 153.183 28.593 154.034 26.7095C154.165 26.3819 154.379 26.0944 154.656 25.8756C154.932 25.6568 155.262 25.5143 155.61 25.4624H155.688H155.762H155.851C156.341 25.4515 156.828 25.5541 157.272 25.7622C157.446 25.8389 157.615 25.9254 157.779 26.0212C158.341 26.3579 158.851 26.7728 159.296 27.2535C160.839 28.8816 161.775 31.1352 161.786 32.9558C161.789 33.1512 161.777 33.3466 161.753 33.5405C161.717 33.903 161.625 34.2576 161.479 34.5914C161.33 34.9694 161.069 35.2932 160.731 35.5198C160.393 35.7464 159.995 35.8653 159.588 35.8607H159.4L159.192 35.8421L159.015 35.8125L158.933 35.794L158.822 35.7644C157.811 35.4432 156.909 34.849 156.214 34.0474Z" fill="#F5F5F5"/>
<path d="M156.724 21.9655C156.82 22.1439 156.97 22.2866 157.153 22.3726C157.587 22.5795 158.002 22.8208 158.397 23.0942C158.563 23.2089 158.767 23.2163 158.826 23.0942L159.851 21.5252C159.865 21.5055 159.882 21.489 159.903 21.4771H159.921L160.939 20.885C160.724 20.7592 160.51 20.6482 160.303 20.552L160.225 20.5076C160.149 20.4606 160.08 20.4047 160.018 20.3411C159.991 20.3157 159.966 20.2885 159.944 20.2596C159.927 20.242 159.913 20.2221 159.903 20.2004L159.873 20.1449L156.724 21.9655Z" fill="#EBEBEB"/>
<path d="M161.975 26.5356C161.972 26.69 162.014 26.8419 162.097 26.9722C162.469 27.537 162.807 28.1226 163.111 28.7262C163.137 28.7761 163.17 28.8211 163.211 28.8594L166.36 27.0425C166.338 27.0231 166.318 27.0007 166.301 26.9759C166.282 26.9556 166.266 26.9332 166.253 26.9093C165.953 26.3019 165.615 25.7136 165.243 25.1479C165.222 25.12 165.205 25.0887 165.195 25.0554C165.181 25.037 165.172 25.0153 165.169 24.9925C165.167 24.9802 165.167 24.9677 165.169 24.9555C165.169 24.9555 165.169 24.8963 165.15 24.8704C165.141 24.8264 165.141 24.7811 165.15 24.7372L161.975 26.5356Z" fill="#EBEBEB"/>
<path d="M160.939 20.8887L163.045 19.6676C163.071 19.6512 163.102 19.6423 163.133 19.6417C163.179 19.6458 163.223 19.6591 163.263 19.6807C163.303 19.7023 163.338 19.7318 163.366 19.7675L164.684 21.1588L165.568 22.0914C165.64 22.1696 165.693 22.2633 165.724 22.3652L163.533 23.6196L162.575 24.171C162.543 24.0759 162.491 23.9887 162.423 23.9157L162.393 23.8861L160.221 21.5881C160.187 21.5417 160.14 21.5066 160.086 21.4875C160.032 21.4683 159.973 21.466 159.918 21.4808L160.939 20.8887Z" fill="#F5F5F5"/>
<path d="M153.009 18.5538C153.064 18.5313 153.124 18.5224 153.183 18.5279L155.189 18.7314C155.313 18.7437 155.43 18.797 155.522 18.8831L158.671 17.0662C158.58 16.9786 158.463 16.9228 158.338 16.9071L156.328 16.7072C156.261 16.6982 156.192 16.7112 156.132 16.7442L155.588 17.0588L155.325 17.2142L154.511 17.6879L154.09 17.9321C153.982 17.9913 153.879 18.0542 153.779 18.106L153.009 18.5538Z" fill="#F5F5F5"/>
<path d="M163.211 28.8631C163.313 28.9692 163.44 29.047 163.581 29.0889L165.465 29.5403C165.6 29.5772 165.722 29.6547 165.812 29.7623L168.969 27.9491C168.874 27.8346 168.744 27.7541 168.599 27.7197L166.715 27.2646C166.575 27.2264 166.447 27.151 166.345 27.0462L163.211 28.8631Z" fill="#E6E6E6"/>
<path d="M164.639 35.6423C164.674 35.7438 164.726 35.8388 164.791 35.9236L166.712 38.2511C166.768 38.3195 166.81 38.3989 166.834 38.4843L169.979 36.6673C169.957 36.5789 169.916 36.4966 169.857 36.4268L167.937 34.0992C167.871 34.0179 167.821 33.9251 167.789 33.8254L164.639 35.6423Z" fill="#E6E6E6"/>
<path d="M168.936 32.0714L168.88 32.1084L168.954 32.0677L169.095 31.9863L168.936 32.0714Z" fill="#E0E0E0"/>
<path d="M156.214 34.0474C156.912 34.8422 157.816 35.4287 158.826 35.7422L158.933 35.7681L159.011 35.7866L159.192 35.8162L159.4 35.8347H159.529C159.549 35.8385 159.569 35.8385 159.588 35.8347C159.995 35.8394 160.393 35.7205 160.731 35.4939C161.069 35.2673 161.33 34.9436 161.479 34.5655C161.626 34.2317 161.719 33.8772 161.757 33.5146C161.601 33.4406 161.442 33.3592 161.279 33.2667C159.059 31.9789 157.25 28.8594 157.25 26.2876C157.25 26.0915 157.25 25.9176 157.272 25.74C156.827 25.5291 156.339 25.4252 155.847 25.4365H155.762H155.688H155.61C155.262 25.4884 154.932 25.6309 154.656 25.8497C154.379 26.0685 154.165 26.356 154.034 26.6836C153.183 28.593 154.16 31.879 156.214 34.0474Z" fill="#E0E0E0"/>
<path d="M161.975 26.5356L165.121 24.7224C165.115 24.698 165.115 24.6727 165.121 24.6484L165.735 22.5724C165.756 22.505 165.756 22.4326 165.735 22.3652L163.544 23.6196L162.586 24.171C162.609 24.2444 162.609 24.3233 162.586 24.3967L161.975 26.4727C161.971 26.4934 161.971 26.5148 161.975 26.5356Z" fill="#E0E0E0"/>
<path d="M155.522 18.8831C155.568 18.9251 155.605 18.9769 155.629 19.0348L156.717 21.9544L159.866 20.1375L158.778 17.2179C158.756 17.1621 158.72 17.1126 158.674 17.0736L155.522 18.8831Z" fill="#E0E0E0"/>
<path d="M149.66 20.4595C149.711 20.4476 149.765 20.4504 149.814 20.4674C149.864 20.4844 149.908 20.515 149.941 20.5557L151.991 22.4281C152.047 22.4893 152.122 22.5298 152.204 22.5432C152.286 22.5566 152.37 22.5422 152.443 22.5021C152.706 22.2891 153.001 22.1181 153.316 21.9952C153.39 21.969 153.451 21.9171 153.489 21.8491C153.527 21.781 153.539 21.7014 153.523 21.6251L152.894 18.7536C152.883 18.715 152.886 18.6739 152.901 18.637C152.917 18.6001 152.944 18.5694 152.979 18.5501L153.749 18.1023C153.725 18.0967 153.699 18.0967 153.675 18.1023L153.631 18.1319L149.66 20.4595Z" fill="#E0E0E0"/>
<path d="M148.776 27.9306C148.815 27.9122 148.858 27.9021 148.902 27.901L150.622 27.8048C150.698 27.8048 150.77 27.7755 150.824 27.7229C150.878 27.6704 150.909 27.5989 150.911 27.5236C150.889 27.2498 150.87 26.9796 150.87 26.7169L148.776 27.9306Z" fill="#E0E0E0"/>
<path d="M166.312 26.9796C166.329 27.0044 166.349 27.0268 166.371 27.0462L166.312 26.9796Z" fill="#E0E0E0"/>
<path d="M168.976 27.9491C169.007 27.986 169.03 28.0289 169.043 28.075L169.161 28.4709L169.779 30.5542L169.99 31.2684C170.003 31.3068 170.003 31.3484 169.99 31.3868C169.986 31.408 169.977 31.4281 169.964 31.446C169.953 31.4674 169.937 31.4854 169.916 31.4979L169.883 31.5201L169.565 31.7051L169.48 31.7569L169.224 31.9049L169.091 31.9863L168.932 32.0714L168.876 32.1084L168.71 32.2009L167.792 32.7301L166.767 33.3259C166.807 33.3016 166.837 33.2646 166.853 33.221C166.869 33.1774 166.87 33.1296 166.856 33.0853L166.023 30.2804L165.905 29.8882C165.89 29.8382 165.863 29.7926 165.827 29.755L168.976 27.9491Z" fill="#E0E0E0"/>
<path d="M155.607 39.7905L157.72 38.5657C157.52 38.4472 157.316 38.3177 157.116 38.1956C156.917 38.0735 156.746 38.0735 156.687 38.1956L155.659 39.7646C155.643 39.7765 155.625 39.7853 155.607 39.7905Z" fill="#E0E0E0"/>
<path d="M161.975 39.6425L162.608 42.5177C162.617 42.5547 162.613 42.5935 162.598 42.6283C162.582 42.663 162.556 42.6918 162.523 42.7101C162.649 42.6398 164.636 41.4927 165.779 40.8266C165.694 40.8191 165.615 40.7825 165.553 40.723L163.507 38.8506C163.452 38.7897 163.378 38.749 163.297 38.7349C163.215 38.7208 163.132 38.7342 163.059 38.7729C162.795 38.9885 162.497 39.1608 162.179 39.2836C162.108 39.3101 162.049 39.3605 162.012 39.4261C161.975 39.4917 161.962 39.5683 161.975 39.6425Z" fill="#E0E0E0"/>
<path d="M164.606 35.4129C164.6 35.4909 164.611 35.5693 164.639 35.6423L167.789 33.8254C167.76 33.7513 167.747 33.6717 167.752 33.5923C167.778 33.3081 167.789 33.0228 167.785 32.7375L166.76 33.3333C166.718 33.3584 166.671 33.3724 166.623 33.374L164.899 33.4702C164.861 33.4687 164.823 33.4748 164.788 33.4883C164.753 33.5018 164.721 33.5224 164.694 33.5487C164.667 33.575 164.645 33.6066 164.631 33.6414C164.617 33.6763 164.609 33.7137 164.61 33.7514C164.659 34.3042 164.658 34.8603 164.606 35.4129Z" fill="#E0E0E0"/>
<path d="M165.864 40.8044C165.931 40.7674 166.257 40.5824 166.693 40.3271L166.849 40.2383L168.177 39.4686L168.547 39.2614L169.006 38.9949C169.019 38.9894 169.031 38.9804 169.039 38.969C169.049 38.9576 169.058 38.9452 169.065 38.932L169.975 36.9227C169.993 36.8673 169.993 36.8078 169.975 36.7525V36.6859L166.83 38.5028C166.858 38.5818 166.858 38.6679 166.83 38.747L165.916 40.76C165.904 40.7799 165.886 40.7954 165.864 40.8044Z" fill="#E0E0E0"/>
<path d="M104.419 5.70215V91.763C104.445 92.2442 104.584 92.7125 104.825 93.1302C105.065 93.5479 105.4 93.9035 105.803 94.1683L143.965 116.197C144.727 116.641 145.349 116.278 145.349 115.394V29.3368C145.323 28.8556 145.183 28.3873 144.943 27.9696C144.703 27.5519 144.368 27.1963 143.965 26.9315L105.803 4.90285C105.04 4.4588 104.419 4.81774 104.419 5.70215ZM106.413 15.9745C106.413 15.2344 106.946 14.9088 107.605 15.29L142.3 35.3167C142.646 35.5434 142.935 35.8484 143.142 36.2071C143.349 36.5657 143.469 36.968 143.491 37.3815V104.792C143.491 105.555 142.955 105.858 142.3 105.48L107.605 85.4501C106.946 85.08 106.413 84.5879 106.413 83.833V15.9745Z" fill="#E4D229"/>
<path opacity="0.5" d="M104.419 5.70215V91.763C104.445 92.2442 104.584 92.7125 104.825 93.1302C105.065 93.5479 105.4 93.9035 105.803 94.1683L143.965 116.197C144.727 116.641 145.349 116.278 145.349 115.394V29.3368C145.323 28.8556 145.183 28.3873 144.943 27.9696C144.703 27.5519 144.368 27.1963 143.965 26.9315L105.803 4.90285C105.04 4.4588 104.419 4.81774 104.419 5.70215ZM106.413 15.9745C106.413 15.2344 106.946 14.9088 107.605 15.29L142.3 35.3167C142.646 35.5434 142.935 35.8484 143.142 36.2071C143.349 36.5657 143.469 36.968 143.491 37.3815V104.792C143.491 105.555 142.955 105.858 142.3 105.48L107.605 85.4501C106.946 85.08 106.413 84.5879 106.413 83.833V15.9745Z" fill="black"/>
<path d="M144.135 116.282C144.548 116.456 144.993 116.539 145.44 116.524C145.887 116.509 146.326 116.398 146.726 116.197L148.313 115.279C148.719 115.017 149.056 114.662 149.298 114.244C149.54 113.826 149.679 113.356 149.705 112.874V26.8205C149.697 26.4622 149.615 26.1094 149.464 25.7844C149.416 25.6705 149.361 25.5594 149.301 25.4513L144.935 27.9713C145.027 28.1357 145.107 28.3063 145.175 28.482C145.279 28.7567 145.335 29.047 145.342 29.3405V115.398C145.349 116.212 144.82 116.582 144.135 116.282Z" fill="#E4D229"/>
<path opacity="0.7" d="M144.135 116.282C144.548 116.456 144.993 116.539 145.44 116.524C145.887 116.509 146.326 116.398 146.726 116.197L148.313 115.279C148.719 115.017 149.056 114.662 149.298 114.244C149.54 113.826 149.679 113.356 149.705 112.874V26.8205C149.697 26.4622 149.615 26.1094 149.464 25.7844C149.416 25.6705 149.361 25.5594 149.301 25.4513L144.935 27.9713C145.027 28.1357 145.107 28.3063 145.175 28.482C145.279 28.7567 145.335 29.047 145.342 29.3405V115.398C145.349 116.212 144.82 116.582 144.135 116.282Z" fill="black"/>
<path d="M124.553 97.6097C123.343 96.914 122.362 97.4802 122.362 98.8752C122.403 99.6357 122.623 100.376 123.003 101.036C123.384 101.695 123.915 102.256 124.553 102.672C125.763 103.368 126.743 102.801 126.743 101.406C126.702 100.646 126.483 99.9057 126.102 99.246C125.721 98.5864 125.191 98.0257 124.553 97.6097Z" stroke="#E6E6E6" stroke-miterlimit="10"/>
<path d="M124.867 17.7729C124.357 17.4769 123.938 17.7174 123.938 18.3095C123.957 18.6322 124.05 18.9462 124.211 19.2264C124.373 19.5065 124.597 19.745 124.867 19.9229C125.382 20.2189 125.8 19.9784 125.8 19.3826C125.782 19.0599 125.688 18.7459 125.526 18.4661C125.364 18.1864 125.138 17.9489 124.867 17.7729Z" fill="black"/>
<path d="M128.475 23.4309L121.293 19.2827C120.863 19.0385 120.516 19.2124 120.516 19.675C120.534 19.9362 120.615 20.1892 120.75 20.4136C120.885 20.638 121.071 20.8274 121.293 20.9664L128.475 25.1109C128.904 25.3588 129.252 25.1849 129.252 24.7186C129.233 24.4581 129.152 24.2057 129.017 23.982C128.882 23.7583 128.697 23.5695 128.475 23.4309Z" fill="black"/>
<path d="M106.413 83.833C106.413 84.5731 106.946 85.0726 107.605 85.4501L142.3 105.48C142.955 105.851 143.491 105.555 143.491 104.792V37.3815C143.469 36.968 143.349 36.5657 143.142 36.2071C142.935 35.8484 142.646 35.5434 142.3 35.3167L107.605 15.29C106.946 14.9199 106.413 15.2159 106.413 15.9745V83.833Z" fill="#E4D229"/>
<path opacity="0.5" d="M106.413 83.833C106.413 84.5731 106.946 85.0726 107.605 85.4501L142.3 105.48C142.955 105.851 143.491 105.555 143.491 104.792V37.3815C143.469 36.968 143.349 36.5657 143.142 36.2071C142.935 35.8484 142.646 35.5434 142.3 35.3167L107.605 15.29C106.946 14.9199 106.413 15.2159 106.413 15.9745V83.833Z" fill="white"/>
<path d="M108.733 21.0737V20.441C108.733 20.304 108.789 20.2226 108.855 20.2596L108.889 20.2818C108.931 20.322 108.964 20.3711 108.985 20.4255C109.006 20.4798 109.015 20.5382 109.011 20.5964V21.2291C109.011 21.3661 108.955 21.4475 108.889 21.4068H108.855C108.811 21.3642 108.777 21.3121 108.756 21.2544C108.735 21.1967 108.727 21.1349 108.733 21.0737Z" fill="#E4D229"/>
<path d="M109.285 21.3809V20.2707C109.285 20.1338 109.337 20.0524 109.403 20.0931H109.436C109.479 20.1342 109.511 20.1839 109.532 20.2388C109.553 20.2938 109.562 20.3526 109.559 20.4113V21.503C109.559 21.6399 109.503 21.7176 109.436 21.6806L109.403 21.6621C109.329 21.587 109.287 21.4863 109.285 21.3809Z" fill="#E4D229"/>
<path d="M109.832 21.7065V20.1523C109.832 20.0154 109.888 19.9377 109.955 19.9747L109.988 19.9932C110.03 20.0344 110.062 20.0842 110.083 20.1391C110.105 20.194 110.114 20.2527 110.11 20.3114V21.8656C110.11 22.0025 110.054 22.0802 109.988 22.0432H109.955C109.91 22 109.876 21.9472 109.855 21.8889C109.834 21.8306 109.826 21.7682 109.832 21.7065Z" fill="#E4D229"/>
<path d="M110.384 22.021V19.3419C110.384 19.205 110.436 19.1236 110.502 19.1643H110.535C110.577 19.2055 110.61 19.2553 110.631 19.3102C110.652 19.3651 110.661 19.4238 110.658 19.4825V22.1616C110.658 22.2986 110.602 22.38 110.535 22.3393H110.502C110.461 22.298 110.428 22.2482 110.408 22.1932C110.387 22.1383 110.379 22.0795 110.384 22.021Z" fill="#E4D229"/>
<path d="M111.871 23.0646C111.858 23.0329 111.852 22.9989 111.853 22.9646V22.5724L111.239 22.2024C111.223 22.194 111.209 22.1824 111.198 22.1684C111.188 22.1544 111.18 22.1382 111.176 22.121V21.9803C111.173 21.957 111.173 21.9334 111.176 21.91C111.181 21.8924 111.187 21.8751 111.194 21.8582L111.849 20.8258C111.849 20.8258 111.871 20.7962 111.882 20.7925C111.894 20.7888 111.905 20.7925 111.923 20.7925L112.008 20.8443C112.035 20.8574 112.056 20.8797 112.067 20.9072C112.074 20.9414 112.074 20.9766 112.067 21.0108V22.3874L112.204 22.4651C112.228 22.4789 112.248 22.4995 112.26 22.5243C112.266 22.5598 112.266 22.5961 112.26 22.6316V22.7241C112.268 22.7507 112.268 22.779 112.26 22.8055C112.26 22.8055 112.23 22.8055 112.204 22.8055L112.067 22.7278V23.1201C112.075 23.1466 112.075 23.1749 112.067 23.2015C112.067 23.2015 112.038 23.2015 112.008 23.2015L111.905 23.1423C111.885 23.1207 111.874 23.0934 111.871 23.0646ZM111.894 22.2616V21.281L111.446 22.021L111.894 22.2616Z" fill="#E4D229"/>
<path d="M112.6 23.2496C112.473 22.927 112.412 22.5823 112.419 22.2357C112.392 21.9555 112.455 21.6739 112.6 21.4327C112.724 21.2921 112.894 21.2847 113.111 21.4105C113.293 21.5138 113.444 21.6647 113.548 21.8471C113.553 21.8652 113.553 21.8845 113.548 21.9026C113.549 21.9149 113.549 21.9273 113.548 21.9396L113.492 22.0802C113.492 22.0802 113.492 22.1024 113.47 22.0987C113.459 22.0898 113.45 22.0784 113.444 22.0654C113.366 21.9381 113.258 21.8315 113.129 21.7546C112.981 21.6695 112.863 21.6732 112.782 21.7731C112.678 21.9561 112.634 22.167 112.656 22.3763C112.648 22.6286 112.69 22.8799 112.778 23.1164C112.84 23.2878 112.957 23.4336 113.111 23.5308C113.158 23.56 113.209 23.5824 113.263 23.5974C113.303 23.6079 113.345 23.6079 113.385 23.5974V22.9721L113.129 22.824C113.105 22.8098 113.085 22.7877 113.074 22.7611C113.067 22.7269 113.067 22.6917 113.074 22.6575V22.5687C113.074 22.5243 113.074 22.4984 113.074 22.4873C113.074 22.4762 113.104 22.4873 113.129 22.4873L113.537 22.7241C113.566 22.7403 113.588 22.7666 113.599 22.7981C113.612 22.8375 113.619 22.8788 113.618 22.9202V23.8305C113.621 23.8551 113.621 23.88 113.618 23.9046C113.615 23.918 113.607 23.9299 113.596 23.9379C113.514 23.9665 113.426 23.974 113.341 23.9598C113.256 23.9456 113.175 23.91 113.107 23.8565C112.877 23.7145 112.699 23.5015 112.6 23.2496Z" fill="#E4D229"/>
<path d="M140.683 36.9227C140.644 36.7759 140.558 36.6458 140.439 36.5526L138.588 35.4869C138.429 35.3944 138.307 35.5757 138.307 35.9013V37.2927C138.309 37.4847 138.344 37.675 138.411 37.8552C138.437 37.9273 138.471 37.9967 138.511 38.0624C138.547 38.124 138.596 38.177 138.655 38.2178L140.505 39.2835C140.664 39.3723 140.79 39.191 140.79 38.8654V37.4851C140.787 37.2929 140.75 37.1027 140.683 36.9227ZM138.485 37.7553C138.457 37.677 138.443 37.5942 138.444 37.511V36.1308C138.444 35.8902 138.544 35.7422 138.659 35.8125L140.509 36.8783C140.541 36.8972 140.568 36.924 140.587 36.956C140.599 36.9771 140.609 36.9995 140.616 37.0226C140.644 37.1021 140.658 37.1861 140.657 37.2705V38.6471C140.657 38.8876 140.557 39.0356 140.442 38.9653L138.592 37.8996C138.538 37.8637 138.499 37.8079 138.485 37.7442V37.7553Z" fill="#E4D229"/>
<path d="M139.647 36.6192V38.2511L138.655 37.6627L138.622 37.6368C138.624 37.6184 138.624 37.5998 138.622 37.5813V36.3417C138.622 36.1678 138.699 36.0568 138.785 36.1049L139.647 36.6192Z" fill="#E4D229"/>
<path d="M140.879 37.5369C140.949 37.5739 141.005 37.8367 141.005 38.1179V38.3732C141.005 38.6582 140.949 38.8617 140.879 38.8284L140.753 38.7692V37.4666L140.879 37.5369Z" fill="#E4D229"/>
<path d="M136.302 36.3343C136.302 36.6377 136.142 36.7931 135.932 36.6784C135.816 36.589 135.722 36.474 135.658 36.3424C135.594 36.2109 135.561 36.0662 135.562 35.9198C135.562 35.6164 135.721 35.4647 135.932 35.5757C136.048 35.6647 136.142 35.7796 136.206 35.9113C136.27 36.043 136.303 36.1878 136.302 36.3343Z" fill="#E4D229"/>
<path d="M135.943 34.6765C135.873 34.6263 135.792 34.5937 135.707 34.5813C135.621 34.569 135.535 34.5773 135.453 34.6056C135.372 34.6339 135.299 34.6814 135.24 34.7439C135.181 34.8065 135.137 34.8824 135.114 34.9651C135.1 35.0138 135.096 35.0649 135.102 35.1151C135.108 35.1654 135.125 35.2139 135.151 35.2575C135.217 35.3759 135.317 35.4055 135.358 35.3093C135.373 35.2497 135.402 35.1947 135.444 35.1494C135.485 35.1041 135.537 35.0697 135.595 35.0495C135.653 35.0294 135.715 35.0239 135.776 35.0337C135.837 35.0435 135.894 35.0683 135.943 35.1058C136.239 35.3173 136.447 35.6309 136.527 35.9865C136.568 36.1271 136.668 36.2159 136.738 36.1715C136.768 36.1374 136.787 36.0956 136.793 36.0511C136.8 36.0065 136.794 35.961 136.775 35.9198C136.656 35.4189 136.36 34.9777 135.943 34.6765Z" fill="#E4D229"/>
<path d="M135.943 33.7958C135.84 33.7209 135.722 33.6699 135.597 33.6466C135.473 33.6234 135.344 33.6285 135.222 33.6615C135.099 33.6946 134.986 33.7547 134.889 33.8375C134.793 33.9203 134.717 34.0237 134.666 34.1399C134.649 34.1903 134.642 34.2437 134.647 34.2967C134.652 34.3498 134.669 34.401 134.696 34.4471C134.758 34.5655 134.855 34.5951 134.899 34.51C134.94 34.415 135.002 34.3304 135.08 34.2627C135.159 34.1949 135.251 34.1457 135.351 34.1186C135.451 34.0916 135.556 34.0875 135.658 34.1065C135.759 34.1256 135.856 34.1674 135.939 34.2288C136.447 34.5872 136.816 35.11 136.982 35.7089C137.027 35.8421 137.123 35.9273 137.186 35.8828C137.245 35.8458 137.256 35.7274 137.216 35.609C137.011 34.8771 136.561 34.2372 135.943 33.7958Z" fill="#E4D229"/>
<path d="M104.43 5.46902C104.53 4.72893 105.107 4.4847 105.803 4.88805L143.965 26.9315C144.375 27.1871 144.713 27.5439 144.946 27.9676L149.312 25.4476C149.077 25.0255 148.738 24.6702 148.328 24.4152L110.173 2.38286C109.742 2.16384 109.266 2.04967 108.783 2.04967C108.3 2.04967 107.824 2.16384 107.394 2.38286L105.803 3.29687C105.432 3.54013 105.118 3.8598 104.881 4.23444C104.644 4.60907 104.491 5.03001 104.43 5.46902Z" fill="#E4D229"/>
<path opacity="0.2" d="M104.43 5.46902C104.53 4.72893 105.107 4.4847 105.803 4.88805L143.965 26.9315C144.375 27.1871 144.713 27.5439 144.946 27.9676L149.312 25.4476C149.077 25.0255 148.738 24.6702 148.328 24.4152L110.173 2.38286C109.742 2.16384 109.266 2.04967 108.783 2.04967C108.3 2.04967 107.824 2.16384 107.394 2.38286L105.803 3.29687C105.432 3.54013 105.118 3.8598 104.881 4.23444C104.644 4.60907 104.491 5.03001 104.43 5.46902Z" fill="black"/>
<path d="M61.0423 4.90285L22.8797 26.9315C22.4771 27.1963 22.1421 27.5519 21.9018 27.9696C21.6614 28.3873 21.5224 28.8556 21.4958 29.3368V115.394C21.4958 116.278 22.1175 116.641 22.8797 116.197L61.0423 94.1683C61.4449 93.9035 61.7799 93.5479 62.0202 93.1302C62.2606 92.7125 62.3996 92.2442 62.4262 91.763V5.70215C62.4262 4.81774 61.8046 4.4588 61.0423 4.90285ZM60.4317 83.833C60.4317 84.5731 59.8988 85.0726 59.2402 85.4501L24.5449 105.48C23.89 105.851 23.3534 105.555 23.3534 104.792V37.3815C23.3763 36.968 23.4961 36.5657 23.703 36.2071C23.91 35.8484 24.1984 35.5434 24.5449 35.3167L59.2402 15.29C59.8988 14.9199 60.4317 15.2159 60.4317 15.9745V83.833Z" fill="#E4D229"/>
<path opacity="0.5" d="M61.0423 4.90285L22.8797 26.9315C22.4771 27.1963 22.1421 27.5519 21.9018 27.9696C21.6614 28.3873 21.5224 28.8556 21.4958 29.3368V115.394C21.4958 116.278 22.1175 116.641 22.8797 116.197L61.0423 94.1683C61.4449 93.9035 61.7799 93.5479 62.0202 93.1302C62.2606 92.7125 62.3996 92.2442 62.4262 91.763V5.70215C62.4262 4.81774 61.8046 4.4588 61.0423 4.90285ZM60.4317 83.833C60.4317 84.5731 59.8988 85.0726 59.2402 85.4501L24.5449 105.48C23.89 105.851 23.3534 105.555 23.3534 104.792V37.3815C23.3763 36.968 23.4961 36.5657 23.703 36.2071C23.91 35.8484 24.1984 35.5434 24.5449 35.3167L59.2402 15.29C59.8988 14.9199 60.4317 15.2159 60.4317 15.9745V83.833Z" fill="black"/>
<path d="M22.7095 116.282C22.2973 116.456 21.8522 116.539 21.405 116.524C20.9578 116.509 20.5191 116.398 20.1192 116.197L18.5317 115.279C18.1263 115.017 17.7888 114.662 17.5469 114.244C17.3051 113.826 17.1658 113.356 17.1404 112.874V26.8205C17.148 26.4622 17.2299 26.1094 17.3809 25.7844C17.4292 25.6705 17.4836 25.5594 17.5437 25.4513L21.9102 27.9713C21.8181 28.1357 21.7378 28.3063 21.6697 28.482C21.5659 28.7567 21.5096 29.047 21.5032 29.3405V115.398C21.4958 116.212 22.0249 116.582 22.7095 116.282Z" fill="#E4D229"/>
<path opacity="0.7" d="M22.7095 116.282C22.2973 116.456 21.8522 116.539 21.405 116.524C20.9578 116.509 20.5191 116.398 20.1192 116.197L18.5317 115.279C18.1263 115.017 17.7888 114.662 17.5469 114.244C17.3051 113.826 17.1658 113.356 17.1404 112.874V26.8205C17.148 26.4622 17.2299 26.1094 17.3809 25.7844C17.4292 25.6705 17.4836 25.5594 17.5437 25.4513L21.9102 27.9713C21.8181 28.1357 21.7378 28.3063 21.6697 28.482C21.5659 28.7567 21.5096 29.047 21.5032 29.3405V115.398C21.4958 116.212 22.0249 116.582 22.7095 116.282Z" fill="black"/>
<path d="M42.2922 97.6097C43.5022 96.914 44.4828 97.4802 44.4828 98.8752C44.4419 99.6357 44.2222 100.376 43.8415 101.036C43.4609 101.695 42.9301 102.256 42.2922 102.672C41.0822 103.368 40.1015 102.801 40.1015 101.406C40.1425 100.646 40.3622 99.9057 40.7428 99.246C41.1235 98.5864 41.6543 98.0257 42.2922 97.6097V97.6097Z" stroke="#E6E6E6" stroke-miterlimit="10"/>
<path d="M41.9776 17.7729C42.4883 17.4769 42.9065 17.7174 42.9065 18.3095C42.8882 18.6322 42.7947 18.9462 42.6334 19.2264C42.4721 19.5065 42.2476 19.745 41.9776 19.9229C41.4633 20.2189 41.0451 19.9784 41.0451 19.3826C41.0629 19.0599 41.1566 18.7459 41.3187 18.4661C41.4807 18.1864 41.7065 17.9489 41.9776 17.7729Z" fill="black"/>
<path d="M38.3697 23.4309L45.5523 19.2827C45.9815 19.0385 46.3294 19.2124 46.3294 19.675C46.3105 19.9362 46.2303 20.1892 46.0953 20.4136C45.9603 20.638 45.7742 20.8274 45.5523 20.9664L38.3697 25.1109C37.9405 25.3588 37.5927 25.1849 37.5927 24.7186C37.6121 24.4581 37.6925 24.2057 37.8275 23.982C37.9625 23.7583 38.1483 23.5695 38.3697 23.4309Z" fill="black"/>
<path d="M60.4317 83.833C60.4317 84.5731 59.8988 85.0726 59.2402 85.4501L24.5449 105.48C23.89 105.851 23.3534 105.555 23.3534 104.792V37.3815C23.3763 36.968 23.4961 36.5657 23.7031 36.2071C23.91 35.8484 24.1984 35.5434 24.5449 35.3167L59.2402 15.29C59.8988 14.9199 60.4317 15.2159 60.4317 15.9745V83.833Z" fill="#E4D229"/>
<path opacity="0.9" d="M60.4317 83.833C60.4317 84.5731 59.8988 85.0726 59.2402 85.4501L24.5449 105.48C23.89 105.851 23.3534 105.555 23.3534 104.792V37.3815C23.3763 36.968 23.4961 36.5657 23.7031 36.2071C23.91 35.8484 24.1984 35.5434 24.5449 35.3167L59.2402 15.29C59.8988 14.9199 60.4317 15.2159 60.4317 15.9745V83.833Z" fill="white"/>
<path d="M51.4026 24.1821C51.4026 24.4892 51.5618 24.6409 51.7727 24.5262C51.887 24.4395 51.9797 24.3276 52.0439 24.1993C52.1081 24.071 52.1419 23.9296 52.1427 23.7861C52.1427 23.4827 51.9836 23.3273 51.7727 23.442C51.6584 23.5288 51.5656 23.6406 51.5015 23.7689C51.4373 23.8973 51.4035 24.0386 51.4026 24.1821Z" fill="#E4D229"/>
<path d="M50.929 23.775C50.9106 23.8162 50.9043 23.8617 50.9108 23.9063C50.9174 23.9508 50.9365 23.9926 50.966 24.0267C51.0363 24.0674 51.1362 23.9786 51.1769 23.838C51.2587 23.4833 51.4664 23.1703 51.7616 22.9572C51.8105 22.9198 51.868 22.8952 51.9289 22.8856C51.9897 22.876 52.052 22.8817 52.1101 22.9023C52.1682 22.9229 52.2202 22.9577 52.2614 23.0034C52.3027 23.0492 52.3318 23.1046 52.3463 23.1645C52.387 23.257 52.4869 23.2311 52.5535 23.109C52.5799 23.0649 52.5968 23.0158 52.6031 22.9648C52.6095 22.9139 52.6052 22.8621 52.5905 22.8129C52.5664 22.7305 52.5229 22.655 52.4636 22.5929C52.4044 22.5307 52.331 22.4837 52.2498 22.4558C52.1686 22.4279 52.0819 22.4199 51.9969 22.4324C51.9119 22.445 51.8312 22.4778 51.7616 22.528C51.3432 22.8301 51.0476 23.2728 50.929 23.775Z" fill="#E4D229"/>
<path d="M50.4886 23.4642C50.4479 23.5826 50.459 23.701 50.5182 23.738C50.5811 23.7787 50.6774 23.6973 50.7218 23.5641C50.8906 22.9661 51.2588 22.4438 51.7653 22.0839C51.8489 22.0227 51.9453 21.9811 52.0472 21.9623C52.1491 21.9435 52.254 21.9479 52.354 21.9753C52.454 22.0027 52.5465 22.0523 52.6246 22.1205C52.7027 22.1886 52.7644 22.2735 52.8051 22.3689C52.8495 22.4503 52.9457 22.4244 53.0086 22.306C53.0348 22.2596 53.0506 22.2082 53.0551 22.1552C53.0595 22.1022 53.0525 22.0489 53.0345 21.9988C52.9837 21.883 52.9075 21.78 52.8114 21.6976C52.7154 21.6152 52.6021 21.5554 52.4799 21.5227C52.3576 21.49 52.2296 21.4852 52.1053 21.5087C51.9809 21.5322 51.8635 21.5834 51.7616 21.6584C51.1441 22.0979 50.6951 22.735 50.4886 23.4642Z" fill="#E4D229"/>
<path d="M25.5478 39.439V38.8913C25.5465 38.8348 25.5581 38.7787 25.5818 38.7274C25.6056 38.6761 25.6408 38.6309 25.6847 38.5953L25.7254 38.5731C25.7994 38.5287 25.8623 38.5731 25.8623 38.7063V39.2539C25.8636 39.3105 25.852 39.3665 25.8282 39.4178C25.8045 39.4692 25.7693 39.5144 25.7254 39.55L25.6847 39.5722C25.607 39.6166 25.5478 39.5574 25.5478 39.439Z" fill="#E4D229"/>
<path d="M26.1805 39.0726V38.1253C26.1792 38.0688 26.1909 38.0127 26.2146 37.9614C26.2384 37.9101 26.2735 37.8649 26.3175 37.8293L26.3582 37.8071C26.4359 37.7627 26.4988 37.8071 26.4988 37.9403V38.8876C26.4997 38.9444 26.4874 39.0007 26.463 39.052C26.4387 39.1034 26.4028 39.1484 26.3582 39.1836L26.3175 39.2058C26.2435 39.2502 26.1805 39.191 26.1805 39.0726Z" fill="#E4D229"/>
<path d="M26.8059 38.7063V37.3593C26.8056 37.3031 26.8181 37.2476 26.8425 37.1969C26.8668 37.1463 26.9024 37.1018 26.9465 37.067L26.9835 37.0448C27.0612 37.0004 27.1242 37.0448 27.1242 37.178V38.5212C27.125 38.5781 27.1128 38.6343 27.0884 38.6857C27.064 38.737 27.0281 38.782 26.9835 38.8173L26.9465 38.8395C26.8762 38.8839 26.8059 38.8247 26.8059 38.7063Z" fill="#E4D229"/>
<path d="M27.4498 38.3399V36.0161C27.449 35.9601 27.461 35.9048 27.4847 35.8542C27.5084 35.8035 27.5433 35.7589 27.5867 35.7237L27.6274 35.7015C27.7051 35.6571 27.768 35.7015 27.768 35.8347V38.1549C27.7693 38.2114 27.7577 38.2675 27.7339 38.3188C27.7102 38.3701 27.675 38.4153 27.6311 38.4509L27.5904 38.4731C27.5127 38.5175 27.4498 38.4583 27.4498 38.3399Z" fill="#E4D229"/>
<path d="M29.1668 37.5073C29.1668 37.5073 29.1668 37.474 29.1668 37.4407V37.1003L28.4526 37.511C28.4156 37.5332 28.3971 37.511 28.3971 37.4703V37.3482C28.3949 37.3261 28.3949 37.3038 28.3971 37.2816L28.423 37.2113L29.1631 35.5535C29.1736 35.5304 29.186 35.5081 29.2001 35.4869C29.2146 35.4717 29.2308 35.458 29.2482 35.4462L29.3481 35.3907C29.3777 35.371 29.3999 35.371 29.4147 35.3907C29.4238 35.4145 29.4238 35.4409 29.4147 35.4647V36.6525L29.5738 36.5637C29.6034 36.5452 29.6219 36.5415 29.6367 36.5637C29.6515 36.5859 29.6367 36.597 29.6367 36.634V36.7154C29.6433 36.7447 29.6433 36.775 29.6367 36.8043C29.6215 36.8293 29.5997 36.8498 29.5738 36.8635L29.4147 36.956V37.2927C29.4178 37.3237 29.4113 37.3548 29.3961 37.382C29.3808 37.4091 29.3576 37.4309 29.3296 37.4444L29.2112 37.511C29.2001 37.511 29.1779 37.5147 29.1668 37.5073ZM29.1927 36.7673V35.9162L28.6783 37.0633L29.1927 36.7673Z" fill="#E4D229"/>
<path d="M30.0105 36.8116C29.8699 36.708 29.8032 36.486 29.8032 36.1456C29.7985 35.8311 29.8696 35.5201 30.0105 35.239C30.144 34.9823 30.3482 34.7692 30.5988 34.6247C30.6881 34.5718 30.7839 34.5307 30.8838 34.5026C30.956 34.4799 31.0335 34.4799 31.1058 34.5026C31.1081 34.5065 31.1093 34.511 31.1093 34.5155C31.1093 34.5201 31.1081 34.5245 31.1058 34.5285C31.1085 34.5419 31.1085 34.5557 31.1058 34.5692L31.0392 34.7542C31.0392 34.7801 31.0392 34.7949 31.0133 34.7986H30.9837C30.8534 34.786 30.7227 34.8187 30.6136 34.8911C30.4421 34.9925 30.3023 35.1399 30.2103 35.3167C30.1087 35.525 30.0592 35.7548 30.066 35.9864C30.066 36.2492 30.1141 36.4194 30.2066 36.4897C30.2991 36.56 30.4323 36.5526 30.5951 36.4601C30.6562 36.4241 30.7144 36.3832 30.7691 36.338C30.8212 36.2981 30.8684 36.2521 30.9097 36.2011V35.6497L30.6136 35.8199C30.584 35.8384 30.5618 35.8421 30.5507 35.8199C30.5422 35.7973 30.5422 35.7723 30.5507 35.7496V35.6719C30.5436 35.6415 30.5436 35.6098 30.5507 35.5794C30.566 35.5544 30.5877 35.5339 30.6136 35.5202L31.0873 35.2501C31.1206 35.2279 31.1428 35.2279 31.1576 35.2501C31.1724 35.2723 31.1798 35.2908 31.1798 35.3352V36.1234C31.1823 36.148 31.1823 36.1728 31.1798 36.1974C31.1736 36.2176 31.1636 36.2365 31.1502 36.2529C31.0018 36.4588 30.8097 36.6293 30.5877 36.7524C30.3472 36.8931 30.1363 36.9227 30.0105 36.8116Z" fill="#E4D229"/>
<path d="M57.1161 19.0755C57.0803 19.038 57.0324 19.0144 56.9809 19.009C56.9294 19.0036 56.8776 19.0167 56.8349 19.0459L54.7034 20.2707C54.5991 20.3536 54.5153 20.4596 54.4588 20.5803C54.4023 20.701 54.3746 20.8332 54.3778 20.9664V22.158C54.3721 22.2247 54.38 22.2919 54.401 22.3555C54.4219 22.4191 54.4556 22.4778 54.4999 22.528C54.5309 22.56 54.5709 22.5819 54.6146 22.5909C54.6723 22.6011 54.7318 22.5892 54.7811 22.5576L56.9126 21.3291C57.0169 21.2462 57.1006 21.1402 57.1571 21.0195C57.2136 20.8988 57.2414 20.7666 57.2382 20.6334V19.4418C57.2434 19.3757 57.2353 19.3092 57.2143 19.2463C57.1933 19.1834 57.1599 19.1253 57.1161 19.0755ZM54.5776 22.3615C54.5425 22.3121 54.5267 22.2515 54.5332 22.1913V21.0108C54.5321 20.9097 54.5538 20.8096 54.5968 20.7179C54.6397 20.6263 54.7027 20.5456 54.7811 20.4817L56.9126 19.2531C56.939 19.2363 56.9701 19.2285 57.0014 19.2309H57.0384C57.0735 19.2803 57.0893 19.3409 57.0828 19.4011V20.5927C57.0839 20.6938 57.0621 20.7939 57.0192 20.8855C56.9763 20.9771 56.9133 21.0579 56.8349 21.1218L54.7034 22.3504C54.6516 22.3874 54.6072 22.3911 54.5776 22.3615Z" fill="#E4D229"/>
<path d="M55.9209 20.0265V21.4401L54.7738 22.1024H54.7368C54.7388 22.0865 54.7388 22.0703 54.7368 22.0543V21.0108C54.7369 20.9359 54.7536 20.8619 54.7856 20.7941C54.8175 20.7263 54.864 20.6664 54.9218 20.6186L55.9209 20.0265Z" fill="#E4D229"/>
<path d="M57.3455 19.3826C57.4233 19.3382 57.4862 19.501 57.4862 19.7527V19.9747C57.5048 20.1651 57.4535 20.3558 57.3419 20.5113L57.2012 20.6038V19.4936L57.3455 19.3826Z" fill="#E4D229"/>
<path d="M62.4151 5.46902C62.3152 4.72894 61.738 4.48471 61.0423 4.88805L22.8798 26.9315C22.4695 27.1871 22.1318 27.5439 21.8991 27.9676L17.5326 25.4513C17.7678 25.0292 18.1065 24.6739 18.517 24.4189L56.6721 2.38287C57.1019 2.16388 57.5774 2.04971 58.0597 2.04971C58.5421 2.04971 59.0176 2.16388 59.4474 2.38287L61.0423 3.29687C61.4127 3.54013 61.7269 3.8598 61.9637 4.23444C62.2004 4.60908 62.3544 5.03002 62.4151 5.46902Z" fill="#E4D229"/>
<path opacity="0.2" d="M62.4151 5.46902C62.3152 4.72894 61.738 4.48471 61.0423 4.88805L22.8798 26.9315C22.4695 27.1871 22.1318 27.5439 21.8991 27.9676L17.5326 25.4513C17.7678 25.0292 18.1065 24.6739 18.517 24.4189L56.6721 2.38287C57.1019 2.16388 57.5774 2.04971 58.0597 2.04971C58.5421 2.04971 59.0176 2.16388 59.4474 2.38287L61.0423 3.29687C61.4127 3.54013 61.7269 3.8598 61.9637 4.23444C62.2004 4.60908 62.3544 5.03002 62.4151 5.46902Z" fill="black"/>
<path d="M132.679 88.2032C132.679 88.2032 128.723 92.1627 123.465 90.6492C123.465 90.6492 125.049 92.2108 128.775 91.1635C131.287 90.4567 132.679 88.2032 132.679 88.2032Z" fill="#E4D229"/>
<path d="M140.531 63.9358C140.531 63.9358 142.552 69.1534 139.051 73.3497C139.051 73.3497 141.12 72.5356 141.667 68.7019C142.026 66.1042 140.531 63.9358 140.531 63.9358Z" fill="#E4D229"/>
<path d="M132.268 89.8647C135.969 86.0569 137.578 81.6127 137.615 77.0723C137.615 77.0723 138.692 79.7736 137.012 84.0365C135.332 88.2994 132.268 89.8647 132.268 89.8647Z" fill="#E4D229"/>
<path d="M30.1844 84.3585C30.1844 84.3585 30.1363 89.9535 34.9024 92.6437C34.9024 92.6437 32.6822 92.6067 30.832 89.2171C29.5553 86.9303 30.1844 84.3585 30.1844 84.3585Z" fill="#E4D229"/>
<path d="M28.9781 86.6009C28.1555 81.8675 29.2368 77.0008 31.9865 73.0611C31.9865 73.0611 29.5516 74.6485 28.4711 79.1038C27.3906 83.5592 28.9781 86.6009 28.9781 86.6009Z" fill="#E4D229"/>
<path d="M111.864 55.4248L113.429 50.7438C109.307 51.4838 108.186 52.0463 106.968 55.4544L106.162 58.1705L101.225 73.3645C100.056 73.6716 85.4984 77.6829 84.9915 77.7458C84.9915 77.7458 84.9693 77.7828 84.9545 77.8013C80.1994 78.1047 78.6637 78.3156 78.6637 78.3156C79.9996 81.8088 82.5048 83.7775 85.9647 84.488V84.4066V84.4325C92.0889 83.3889 102.136 81.0207 105.403 79.9364C106.78 79.4961 107.368 77.9456 107.934 76.6504C110.247 71.3625 112.663 64.2355 113.485 59.9467C114.018 57.3638 113.237 56.0724 111.864 55.4248Z" fill="#B16668"/>
<path d="M113.429 50.7253C113.429 50.7253 109.333 50.0962 107.557 53.8558C106.365 56.3943 102.72 67.2662 102.72 67.2662C102.72 67.2662 105.311 70.5966 110.983 70.8001C110.983 70.8001 116.341 58.4962 116.042 58.1039C115.742 57.7117 113.429 50.7253 113.429 50.7253Z" fill="#37474F"/>
<path d="M112.678 50.6476C111.683 50.7438 109.159 54.1186 109.107 59.8616C109.037 67.5548 112.808 76.9724 113.755 79.0039C114.702 81.0355 116.545 85.0134 119.676 87.9664C120.686 88.9137 127.583 91.5965 132.028 86.6009C136.55 81.5202 135.835 74.8447 134.932 72.7539C133.419 69.2533 130.744 65.1791 130.84 60.5721C130.274 57.2639 129.189 52.9825 126.718 51.1878C125.7 50.9288 122.495 50.518 121.87 50.6032L112.678 50.6476Z" fill="#FAFAFA"/>
<path d="M125.704 56.7533L124.442 58.337C124.812 60.8496 126.717 64.4798 128.934 67.3772C130.662 69.6382 134.178 71.9694 135.595 75.9622C135.555 74.8653 135.339 73.782 134.955 72.7539C133.441 69.2533 130.766 65.1791 130.862 60.5721C130.769 60.0244 130.658 59.462 130.533 58.8662L129.348 57.7931L125.704 56.7533Z" fill="#EBEBEB"/>
<path d="M126.717 51.1878C128.882 51.7207 130.048 52.8641 131.942 55.0289C134.118 57.4711 138.559 62.6073 138.559 62.6073C141.664 67.9878 138.873 73.4607 136.546 72.5615C136.546 72.5615 131.299 67.4364 128.079 63.551C125.922 60.9607 124.823 59.4805 124.701 56.6274C124.597 54.385 124.997 52.0944 126.717 51.1878Z" fill="#B16668"/>
<path d="M125.585 50.9843C125.585 50.9843 127.454 50.5698 129.885 52.5274C132.316 54.4849 138.259 60.9532 138.259 60.9532C138.259 60.9532 138.437 67.8027 134.074 70.8926C134.074 70.8926 127.635 64.4317 126.048 62.1966C124.943 60.5524 124.316 58.6347 124.234 56.6557C124.152 54.6768 124.62 52.7139 125.585 50.9843Z" fill="#37474F"/>
<path d="M124.442 38.0328C124.442 38.0328 123.502 43.7722 123.061 44.7269C122.766 45.3189 122.253 45.7737 121.629 45.9961L121.537 42.0108L124.442 38.0328Z" fill="#263238"/>
<path d="M121.389 29.7031C121.389 29.7031 122.939 28.9223 124.001 29.9103C125.063 30.8984 125.134 34.2954 124.334 38.6952L121.663 38.5546L121.389 29.7031Z" fill="#263238"/>
<path d="M113.19 42.4597C117.238 41.659 119.87 37.7285 119.07 33.6807C118.269 29.6329 114.338 27.0007 110.291 27.8014C106.243 28.6022 103.611 32.5327 104.411 36.5804C105.212 40.6282 109.143 43.2604 113.19 42.4597Z" fill="#263238"/>
<path d="M121.611 30.2841L123.924 28.1601C123.792 28.0015 123.629 27.8714 123.445 27.7777C123.261 27.6839 123.06 27.6285 122.854 27.6146C122.649 27.6008 122.442 27.6289 122.247 27.6972C122.053 27.7655 121.874 27.8726 121.722 28.012C121.415 28.3037 121.232 28.7027 121.211 29.1258C121.19 29.549 121.334 29.9638 121.611 30.2841Z" fill="#263238"/>
<path d="M107.775 30.7615C107.305 31.5719 104.955 34.9762 105.814 41.3706C106.62 47.3912 108.556 48.8047 109.584 49.123C110.613 49.4412 112.678 49.2599 114.484 48.7529L114.809 51.3099C114.809 51.3099 113.755 53.0047 115.18 53.9409C116.604 54.8771 119.738 54.1889 120.464 53.6116C122.17 52.2461 121.911 51.0953 121.911 51.0953L121.541 42.7915C121.541 42.7915 122.825 43.8499 124.479 42.6028C126.04 41.4298 126.111 38.3288 124.793 37.2631C123.476 36.1974 121.363 36.8339 121.074 38.5472C121.074 38.5472 121.019 32.1824 117.403 30.4913C112.774 28.3229 107.775 30.7615 107.775 30.7615Z" fill="#B16668"/>
<path d="M120.66 39.3761C120.863 39.2687 121.211 37.5665 122.214 36.9893C123.135 36.4564 121.396 28.8483 121.389 28.8113C121.285 28.2526 120.712 27.5976 120.338 27.1905C119.773 26.5912 119.065 26.1455 118.281 25.8954C117.202 25.5661 116.06 25.4976 114.95 25.6956C113.226 25.962 111.572 26.6799 109.829 26.6873C108.175 26.6873 106.595 26.0471 104.974 25.7252C104.664 25.6278 104.328 25.6502 104.034 25.7881C103.883 25.8923 103.765 26.0373 103.693 26.2062C103.49 26.696 103.471 27.2432 103.642 27.7456C103.819 28.243 104.069 28.7117 104.382 29.137C103.804 28.8668 102.99 28.8446 102.657 29.3849C102.395 29.8104 102.557 30.3655 102.798 30.8022C103.812 32.6228 105.614 33.4221 107.509 33.855C108.305 33.99 109.11 34.0642 109.918 34.077C111.96 34.1918 113.921 33.374 115.805 32.5747C116.323 32.3526 117.333 31.9752 117.899 32.434C118.602 33.0039 118.569 34.8467 118.78 36.3602C119.102 38.7322 119.89 39.7905 120.66 39.3761Z" fill="#263238"/>
<path d="M114.136 43.9535L112.075 44.8749C112.13 45.0141 112.212 45.1408 112.317 45.2474C112.421 45.3541 112.547 45.4384 112.685 45.4955C112.823 45.5525 112.971 45.581 113.121 45.5793C113.271 45.5776 113.418 45.5456 113.555 45.4855C113.83 45.3535 114.044 45.1209 114.152 44.8357C114.26 44.5505 114.254 44.2346 114.136 43.9535Z" fill="#9A4A4D"/>
<path d="M106.735 39.0356C106.75 39.1852 106.809 39.3271 106.903 39.4437C106.998 39.5603 107.125 39.6464 107.269 39.6912C107.412 39.736 107.566 39.7377 107.71 39.6959C107.855 39.6541 107.984 39.5708 108.081 39.4563C108.178 39.3417 108.24 39.2011 108.258 39.0518C108.276 38.9026 108.25 38.7514 108.182 38.617C108.115 38.4826 108.01 38.3709 107.879 38.296C107.749 38.2211 107.599 38.1862 107.449 38.1956C107.243 38.2126 107.053 38.3106 106.919 38.468C106.785 38.6255 106.719 38.8296 106.735 39.0356Z" fill="#263238"/>
<path d="M112.678 38.6693C112.693 38.8189 112.751 38.9608 112.846 39.0774C112.941 39.1939 113.068 39.28 113.212 39.3249C113.355 39.3697 113.509 39.3713 113.653 39.3296C113.798 39.2878 113.927 39.2044 114.024 39.0899C114.121 38.9754 114.183 38.8347 114.201 38.6855C114.219 38.5363 114.193 38.385 114.125 38.2506C114.058 38.1162 113.952 38.0046 113.822 37.9297C113.692 37.8548 113.542 37.8198 113.392 37.8293C113.29 37.8372 113.191 37.8653 113.099 37.9119C113.008 37.9584 112.927 38.0226 112.86 38.1007C112.794 38.1787 112.744 38.2692 112.712 38.3668C112.681 38.4644 112.669 38.5672 112.678 38.6693Z" fill="#263238"/>
<path d="M110.665 38.8321L110.528 43.4243L108.112 42.6694L110.665 38.8321Z" fill="#9A4A4D"/>
<path d="M114.484 48.764C116.001 48.4162 118.969 47.1395 119.531 46.0294C119.531 46.0294 119.587 46.7362 118.688 47.8093C117.788 48.8824 114.636 49.9556 114.636 49.9556L114.484 48.764Z" fill="#9A4A4D"/>
<path d="M106.132 37.4407L107.845 36.7006C107.739 36.4714 107.549 36.2919 107.314 36.1995C107.079 36.1071 106.817 36.109 106.583 36.2048C106.471 36.2545 106.37 36.3264 106.286 36.4161C106.202 36.5058 106.137 36.6115 106.095 36.7268C106.053 36.8422 106.035 36.9649 106.041 37.0875C106.047 37.2102 106.078 37.3303 106.132 37.4407Z" fill="#263238"/>
<path d="M113.141 36.3343L114.776 37.2224C114.893 36.9984 114.918 36.7378 114.845 36.4959C114.772 36.254 114.608 36.05 114.388 35.9273C114.28 35.8686 114.161 35.8327 114.039 35.8215C113.917 35.8103 113.793 35.8242 113.677 35.8623C113.56 35.9004 113.452 35.9619 113.36 36.0431C113.268 36.1242 113.193 36.2233 113.141 36.3343Z" fill="#263238"/>
<path d="M63.8879 49.9556H51.1362C48.0914 49.9546 45.1711 48.7467 43.0153 46.5964C40.8596 44.4462 39.6441 41.5291 39.6353 38.4843V36.4823C39.6294 33.5446 40.7905 30.7248 42.8633 28.643C44.936 26.5612 47.7507 25.3879 50.6885 25.381H52.7681C54.2228 25.3767 55.6641 25.6591 57.0096 26.2122C58.3551 26.7653 59.5783 27.5782 60.6093 28.6044C61.6404 29.6307 62.459 30.8501 63.0184 32.193C63.5778 33.5358 63.867 34.9758 63.8694 36.4305L63.8879 49.9556Z" fill="#263238"/>
<path d="M53.3343 50.6735C57.908 50.3293 60.7907 52.4497 60.8869 56.7015C60.9387 58.844 59.0811 67.3735 59.0811 67.3735L53.3343 50.6735Z" fill="#FFA8A7"/>
<path d="M53.3343 50.6735C55.6618 50.9066 58.2299 54.8808 60.465 59.9911C61.342 62.0042 62.9443 64.7129 60.9239 68.4799C59.6731 70.8075 57.0976 71.7474 57.0976 71.7474C56.1652 74.6674 54.8194 77.4388 53.1012 79.9772C52.0279 83.3945 50.0755 86.4699 47.4395 88.8952C46.4034 89.8129 40.0719 95.419 34.9691 91.0932C31.9347 88.5214 30.8764 84.4325 31.1872 80.5729C31.3685 78.3046 31.8718 76.0621 33.4667 74.4376C34.3862 73.502 35.2359 72.5002 36.0089 71.4403C36.8193 67.5807 35.8905 64.9608 35.7943 60.339C36.3604 57.0308 37.7629 54.2259 40.2348 52.4349C42.0655 51.7104 43.991 51.2531 45.9519 51.0768L53.3343 50.6735Z" fill="#E4D229"/>
<path opacity="0.1" d="M53.2566 79.7477L52.9457 77.2573C52.9457 77.2573 42.2145 60.4352 41.7593 59.9615C41.4929 59.6766 38.9174 57.9596 36.9044 56.6311C36.3774 57.812 36.0043 59.0557 35.7942 60.3316C35.8905 64.9386 36.8193 67.5585 36.0089 71.4329C36.0089 71.4329 35.4575 72.2137 34.5657 73.2387C36.1569 73.6531 38.7509 71.6512 38.7509 71.6512C38.7509 71.6512 43.9315 78.9743 46.211 81.5757C48.3387 84.0143 49.6116 84.377 51.1843 84.2697C51.9936 82.9185 52.6372 81.4748 53.1011 79.9697C53.1567 79.8994 53.2048 79.8217 53.2566 79.7477Z" fill="black"/>
<path opacity="0.05" d="M60.9238 68.4799C61.0312 68.2764 61.1311 68.0766 61.2199 67.8767C59.1365 69.4753 57.686 68.3504 55.9394 68.0137C54.1336 67.6658 52.794 70.2339 49.4155 69.9157C44.975 69.4864 43.3653 66.6926 43.3653 66.6926C43.3653 66.6926 43.2469 71.5291 48.7494 72.5911C52.4277 73.3016 53.7783 71.3144 54.7959 71.3144C55.24 71.3144 55.6359 71.6586 57.0976 71.7474C57.0976 71.7474 59.6731 70.8075 60.9238 68.4799Z" fill="black"/>
<path d="M59.6768 31.372C60.1357 32.1639 62.4151 35.4684 61.5825 41.674C60.7981 47.517 58.9182 48.468 57.9191 48.7788C56.92 49.0897 54.9181 48.9084 53.1641 48.4088L52.7681 51.9242C52.7681 51.9242 54.4703 54.3443 54.1336 55.9355C53.7968 57.5267 50.3962 57.3231 48.2647 55.4914C46.9817 54.3652 46.1595 52.8051 45.9556 51.1101L46.3257 43.0432C46.3257 43.0432 45.0786 44.0719 43.4726 42.8619C41.9592 41.7221 41.8889 38.7137 43.1692 37.6813C44.4496 36.6488 46.4996 37.2631 46.7771 38.9246C46.7771 38.9246 50.744 39.8423 54.2557 38.1845C58.7369 36.0827 59.3919 33.0372 59.6768 31.372Z" fill="#FFA8A7"/>
<path d="M46.8511 41.1412L46.7438 37.4703C47.2426 37.469 47.7225 37.661 48.0827 38.006C48.4429 38.351 48.6553 38.8222 48.6754 39.3206C48.6794 39.5611 48.635 39.7999 48.5447 40.0229C48.4544 40.2458 48.3201 40.4483 48.1498 40.6182C47.9796 40.7881 47.7768 40.922 47.5537 41.0118C47.3306 41.1017 47.0916 41.1457 46.8511 41.1412Z" fill="#263238"/>
<path d="M54.8737 44.4641L56.8719 45.3596C56.8184 45.4939 56.7385 45.616 56.637 45.7188C56.5355 45.8216 56.4145 45.903 56.2809 45.9582C56.1474 46.0134 56.0042 46.0413 55.8597 46.0402C55.7152 46.0391 55.5725 46.009 55.4398 45.9517C55.1713 45.8252 54.9623 45.5995 54.8568 45.3221C54.7512 45.0447 54.7572 44.7372 54.8737 44.4641Z" fill="#F28F8F"/>
<path d="M60.6833 39.4575C60.6835 39.5585 60.663 39.6585 60.6231 39.7513C60.5831 39.8441 60.5246 39.9278 60.4511 39.9971C60.3776 40.0665 60.2907 40.12 60.1957 40.1545C60.1007 40.189 59.9997 40.2036 59.8988 40.1975C59.6987 40.1806 59.5135 40.085 59.3838 39.9317C59.2541 39.7784 59.1905 39.5799 59.2068 39.3798C59.2196 39.1835 59.3098 39.0003 59.4576 38.8705C59.5308 38.8063 59.6159 38.7571 59.7082 38.7257C59.8004 38.6943 59.8979 38.6815 59.995 38.6878C60.0922 38.6941 60.1872 38.7195 60.2746 38.7625C60.362 38.8055 60.44 38.8654 60.5043 38.9386C60.5685 39.0117 60.6177 39.0969 60.6491 39.1891C60.6804 39.2813 60.6933 39.3788 60.687 39.476L60.6833 39.4575Z" fill="#263238"/>
<path d="M55.3214 39.883C55.3059 40.0271 55.2485 40.1634 55.1563 40.2751C55.0641 40.3869 54.9411 40.4691 54.8026 40.5115C54.6641 40.554 54.5162 40.5549 54.3771 40.5141C54.2381 40.4733 54.1142 40.3926 54.0206 40.2821C53.927 40.1715 53.8679 40.0358 53.8507 39.892C53.8335 39.7481 53.8589 39.6024 53.9237 39.4728C53.9885 39.3433 54.0899 39.2356 54.2154 39.1631C54.3408 39.0907 54.4848 39.0566 54.6294 39.0652C54.7294 39.0712 54.8271 39.0973 54.9167 39.1421C55.0063 39.187 55.0858 39.2495 55.1505 39.3259C55.2152 39.4024 55.2637 39.4912 55.2931 39.587C55.3225 39.6827 55.3321 39.7834 55.3214 39.883Z" fill="#263238"/>
<path d="M57.4677 39.4093L57.6009 43.8684L59.9469 43.1357L57.4677 39.4093Z" fill="#F28F8F"/>
<path d="M53.164 48.394C51.6839 48.0573 48.8123 46.8176 48.2647 45.7408C48.2647 45.7408 48.2129 46.4291 49.0862 47.4689C49.9595 48.5087 53.0345 49.5337 53.0345 49.5337L53.164 48.394Z" fill="#F28F8F"/>
<path d="M60.9202 37.4703L59.2587 36.7524C59.3622 36.5305 59.547 36.3567 59.775 36.2672C60.0029 36.1777 60.2566 36.1792 60.4835 36.2714C60.5925 36.3195 60.6907 36.3892 60.7721 36.4762C60.8536 36.5632 60.9166 36.6658 60.9573 36.7778C60.9981 36.8898 61.0158 37.0089 61.0095 37.1279C61.0031 37.2469 60.9727 37.3634 60.9202 37.4703Z" fill="#263238"/>
<path d="M50.9697 82.9671L54.5813 76.0584C55.7803 76.2323 56.9792 76.3988 58.1781 76.5653C60.5649 76.8947 69.5828 78.0011 70.0935 78.0085C71.0891 77.9927 72.0715 77.7789 72.9835 77.3794C74.4119 76.8429 75.4702 75.9844 76.6248 75.7476C77.1596 75.6421 77.7071 75.6172 78.2493 75.6735C78.9338 75.7216 78.7562 76.088 79.4334 76.2064C79.6276 76.2238 79.8127 76.2971 79.9663 76.4173C80.2253 76.6616 80.0366 76.8096 79.8996 77.0094C79.7543 77.2622 79.6612 77.5415 79.6258 77.8309C79.574 78.0788 79.3705 78.9225 79.722 79.0594C81.4279 79.7218 81.6203 80.6987 83.8332 82.597C84.8915 83.5036 85.4614 84.1586 86.1756 84.6212C86.6233 85.2984 86.6566 85.7313 85.0654 86.6638C84.0071 87.2929 82.1051 88.514 78.993 87.5371C75.6034 86.4751 73.8679 84.5768 72.9946 84.5361C66.8001 84.1882 54.3408 83.6739 50.9697 82.9671Z" fill="#FFA8A7"/>
<path d="M54.5813 76.0584L45.4561 61.0976C45.4561 61.0976 43.9574 52.7383 40.2385 52.4497C40.2385 52.4497 36.8341 53.3267 36.057 55.3693C35.1208 57.8412 35.1652 60.2613 37.959 65.7305C40.0682 69.875 45.7854 77.6866 48.0723 80.3324C48.9974 81.4018 50.0076 82.6563 50.9697 82.9523" fill="#FFA8A7"/>
<path d="M73.1057 84.5472C73.4554 84.6353 73.7814 84.7995 74.0604 85.0282C74.6311 84.9257 75.1632 84.6699 75.5997 84.2881C77.3093 83.0411 83.1856 85.5463 81.7388 87.156C80.6878 88.3253 79.6628 88.6361 77.9865 88.1144C75.5146 87.3595 72.8799 86.2309 73.1057 84.5472Z" fill="#B16668"/>
<path d="M78.8043 75.8808C76.8579 76.2175 74.8375 77.6385 73.7828 78.0677C72.7282 78.497 71.6403 78.7523 72.6098 79.6811C73.5793 80.6099 75.9402 79.6811 77.5721 79.1038C78.6822 78.7042 80.0847 79.1039 80.71 79.3629C81.1689 79.5516 80.9247 78.312 80.9247 78.312C80.5546 77.7717 85.1469 78.312 84.9951 77.7791C82.5677 77.8827 80.3733 75.5218 78.8043 75.8808Z" fill="#B16668"/>
</svg>
