<svg width="19" height="19" viewBox="0 0 19 19" fill="none" xmlns="http://www.w3.org/2000/svg">
<path d="M17.6923 10.6516C18.8296 8.48498 16.5178 6.9825 13.4953 6.24566C13.7227 5.7288 13.7887 5.05222 13.1474 4.40622C12.3251 3.57942 12.8716 2.375 12.8716 2.375C12.8716 2.375 11.1456 3.96714 12.2354 5.06498C12.6374 5.46963 12.8467 5.82498 12.9467 6.12216C12.1123 5.95017 11.2674 5.83374 10.4176 5.77362C10.6715 5.08369 10.6961 4.21711 9.89632 3.38734C8.80145 2.25002 9.53057 0.59375 9.53057 0.59375C9.53057 0.59375 7.2289 2.78291 8.68211 4.29222C9.21262 4.84263 9.49198 5.32713 9.62736 5.73325C8.72664 5.70623 7.85976 5.74572 7.08967 5.85348C7.1814 5.40966 7.10481 4.89933 6.61526 4.40652C5.79292 3.57972 6.33976 2.375 6.33976 2.375C6.33976 2.375 4.61343 3.96714 5.70356 5.06498C6.04496 5.40877 6.24506 5.71573 6.35995 5.98322C6.22992 6.01172 6.10375 6.04259 5.98232 6.07614C2.22923 5.72494 0.59226 6.50038 1.34009 8.02156C0.0350258 9.32662 0.525463 10.816 2.15857 11.9557C3.0106 15.4651 3.22999 18.4062 9.64725 18.4062C15.3734 18.4062 16.1645 16.0639 16.8738 13.0661C19.0018 12.6424 18.5485 11.6224 17.6923 10.6516ZM17.1617 10.301C16.449 11.821 13.3555 12.9651 9.64725 12.9651C5.93928 12.9651 2.84584 11.821 2.13274 10.301C2.1176 10.2558 2.10306 10.2089 2.08851 10.1632C2.42814 9.30169 3.53192 8.55416 5.0822 8.05363C4.71793 8.40572 4.64223 8.93148 5.60084 9.11584C5.87515 9.16869 6.62832 8.98581 6.29909 8.05125C6.25307 7.92063 6.17796 7.83305 6.08564 7.7802C7.15082 7.53647 8.36 7.39605 9.64725 7.39605C9.79153 7.39605 9.93314 7.40109 10.0753 7.40436C9.33256 7.66798 8.72664 8.48023 10.2434 8.71981C10.5782 8.77266 11.4977 8.58978 11.0957 7.65522C11.0606 7.57192 11.0043 7.49926 10.9324 7.44444C12.3536 7.54894 13.6411 7.82266 14.682 8.2172C13.7667 8.16614 12.7514 8.7302 14.3774 9.52434C14.7262 9.69475 15.786 9.8512 15.6403 8.81927C15.6297 8.74471 15.6034 8.67326 15.5631 8.60967C16.3952 9.04816 16.9756 9.57986 17.2057 10.1632L17.1617 10.301Z" fill="#12120E"/>
<path d="M7.67035 10.9372C8.63015 10.9372 9.27021 10.0694 9.77163 9.72979C10.4723 9.25479 12.2339 9.06954 10.6824 9.03213C9.21084 8.9968 7.39396 10.1914 6.17974 10.1092C4.1693 9.97263 6.22843 10.9372 7.67035 10.9372ZM9.74432 12.7101C10.0834 12.7754 11.0152 12.5492 10.6076 11.3935C10.1472 10.0857 7.35982 12.2511 9.74432 12.7101ZM4.46707 9.84973C4.14318 9.39254 3.67352 8.81274 3.47907 9.11466C3.21337 9.52762 3.12965 10.3586 3.32262 10.3954C4.83549 10.6854 4.72951 10.2199 4.46707 9.84973ZM13.262 10.035C13.5348 9.69713 12.9901 8.88399 12.6403 9.02619C12.0929 9.24885 11.7773 9.09804 11.5369 9.43588C10.9737 10.2271 12.8912 10.4936 13.262 10.035ZM13.0916 11.0031C12.6991 10.83 12.7917 11.4098 12.2119 10.9446C11.7969 10.6115 10.9039 11.4517 11.4929 12.0223C12.1484 12.6573 12.323 12.0537 12.5985 12.1045C13.1584 12.2075 14.1211 11.4573 13.0916 11.0031ZM6.56568 11.2014C6.36113 11.0001 6.08682 11.243 5.93185 11.5392C5.77837 11.4638 5.65338 11.4463 5.65338 11.4463C5.53612 11.112 5.18729 10.8829 5.18729 10.8829C5.18729 10.8829 5.21905 11.2305 5.26507 11.4C4.87973 11.2631 4.86785 10.5744 4.86785 10.5744C4.86785 10.5744 4.60927 10.7291 4.63273 10.9918C4.20849 10.6495 3.84719 10.8095 3.84719 10.8095C3.84719 10.8095 4.38543 11.1123 4.45965 11.3166C4.15743 11.34 3.98108 11.4445 3.87837 11.6877C3.87866 11.6898 4.47568 11.4036 4.91743 11.6102C4.74316 11.7527 4.82985 12.1086 4.82985 12.1086C5.24102 11.6728 5.56937 11.7194 5.8321 11.7975C5.80033 11.9308 5.80241 12.0525 5.85882 12.1265C6.31452 12.7256 7.90191 12.5908 8.32823 12.1478C8.84449 11.612 7.40999 12.0324 6.56568 11.2014Z" fill="#12120E"/>
<path d="M7.68698 8.94485C7.5519 9.21619 7.55101 9.42103 7.70717 9.63419C7.70924 9.63478 7.7701 8.97572 8.17415 8.7026C8.2071 8.92525 8.55682 9.03332 8.55682 9.03332C8.27717 8.04294 9.09357 7.99128 9.08971 7.63593C8.65687 7.67244 8.41106 7.98713 8.41106 7.98713C8.06401 7.91617 7.68787 8.09757 7.68787 8.09757C7.68787 8.09757 8.00285 8.24867 8.17178 8.29647C7.85649 8.55683 7.25918 8.21335 7.25918 8.21335C7.25918 8.21335 7.25918 8.51497 7.49668 8.62927C6.98517 8.81778 6.93707 9.20966 6.93707 9.20966C6.93707 9.20966 7.47323 8.90358 7.68698 8.94485ZM15.2724 10.2974C15.3953 10.0641 15.216 9.82152 15.216 9.82152C15.216 9.82152 14.9402 10.453 14.532 10.4313C14.6395 10.2924 14.8028 9.98361 14.8028 9.98361C14.8028 9.98361 14.3925 10.0617 14.1556 10.325C14.1556 10.325 13.7708 10.2184 13.4015 10.4464C13.6099 10.7344 14.2969 10.29 14.6612 11.2525C14.6612 11.2525 14.8779 10.9577 14.7719 10.7591C15.2594 10.738 15.7005 11.2314 15.702 11.2296C15.7002 10.9654 15.5779 10.8015 15.3075 10.6638C15.4547 10.5037 16.0681 10.431 16.0681 10.431C16.0681 10.431 15.7961 10.1445 15.2724 10.2974Z" fill="#12120E"/>
</svg>
