<svg width="17" height="17" viewBox="0 0 17 17" fill="none" xmlns="http://www.w3.org/2000/svg">
<path d="M16.562 8.37013L8.91928 0.733017C8.86426 0.67788 8.79889 0.634137 8.72694 0.604291C8.65498 0.574445 8.57785 0.559082 8.49995 0.559082C8.42205 0.559082 8.34492 0.574445 8.27296 0.604291C8.201 0.634137 8.13564 0.67788 8.08061 0.733017L0.437939 8.37013C0.215283 8.59278 0.0891113 8.89522 0.0891113 9.21065C0.0891113 9.86563 0.621631 10.3982 1.27661 10.3982H2.08188V15.8477C2.08188 16.1761 2.34722 16.4414 2.67563 16.4414H7.31245V12.2852H9.39057V16.4414H14.3243C14.6527 16.4414 14.918 16.1761 14.918 15.8477V10.3982H15.7233C16.0387 10.3982 16.3412 10.2738 16.5638 10.0493C17.0258 9.58546 17.0258 8.83399 16.562 8.37013Z" fill="#12120E"/>
</svg>
