<svg width="18" height="11" viewBox="0 0 18 11" fill="none" xmlns="http://www.w3.org/2000/svg">
<path d="M0 8.45543L1.8 8.45648C2.29922 8.45648 2.7 8.0797 2.7 7.61194V1.71598H0V8.45543ZM1.35 6.7732C1.59609 6.7732 1.8 6.96088 1.8 7.19481C1.8 7.42532 1.59609 7.61643 1.35 7.61643C1.10391 7.61643 0.9 7.42447 0.9 7.19508C0.9 6.96041 1.10391 6.7732 1.35 6.7732ZM9.81 0.0205664C9.58666 0.0205664 9.36956 0.0988506 9.20475 0.240152L6.43781 2.61246C6.435 2.61773 6.435 2.62301 6.42938 2.62301C5.9625 3.03434 5.97094 3.69088 6.37031 4.09957C6.72891 4.44498 7.47787 4.56416 7.94897 4.17208C7.95375 4.16812 7.95656 4.16812 7.95937 4.16549L10.206 2.23805C10.3888 2.08325 10.6771 2.09313 10.8422 2.26441C11.0109 2.4357 10.9969 2.70264 10.8141 2.86084L10.0794 3.49022L14.175 6.60445C14.2559 6.67027 14.3297 6.73618 14.3965 6.80859V1.68434C13.2439 0.604336 11.683 0 10.054 0L9.81 0.0205664ZM9.41062 4.06529L8.56687 4.79013C7.73016 5.50494 6.45047 5.43586 5.70375 4.67488C4.95 3.90182 5.00906 2.70211 5.83031 1.99547L8.13094 0.0205664H7.94531C6.31969 0.0205664 4.75594 0.629121 3.60562 1.70543L3.6 7.60904L4.11328 7.61002L6.65859 9.76738C7.43203 10.3572 8.56406 10.2452 9.18984 9.52359L9.69947 9.92543C10.1461 10.2445 10.807 10.2023 11.1727 9.78381L12.0552 8.76603L12.2064 8.88463C12.5931 9.17467 13.1592 9.12199 13.472 8.75944L13.7402 8.44884C14.053 8.08629 13.9944 7.55815 13.6082 7.26416L9.41062 4.06529ZM15.3 1.71861V7.61432C15.3 8.07891 15.7008 8.45938 16.1747 8.45938L18 8.45807V1.7107L15.3 1.71861ZM16.65 7.61432C16.4039 7.61432 16.2 7.42326 16.2 7.1927C16.2 6.9587 16.4039 6.77109 16.65 6.77109C16.8961 6.77109 17.1 6.96041 17.1 7.19508C17.1 7.42447 16.8975 7.61432 16.65 7.61432Z" fill="#12120E"/>
</svg>
