<svg width="10" height="15" viewBox="0 0 10 15" fill="none" xmlns="http://www.w3.org/2000/svg">
<path d="M5.01338 0C2.74519 0 1.27607 0.929311 0.122668 2.58666C-0.0865637 2.88731 -0.0220578 3.29952 0.26981 3.52083L1.49565 4.45031C1.79042 4.67381 2.20982 4.62155 2.44059 4.33244C3.1524 3.44069 3.68041 2.92726 4.79227 2.92726C5.66648 2.92726 6.74779 3.48988 6.74779 4.33761C6.74779 4.97846 6.21876 5.30759 5.35558 5.79152C4.34897 6.35588 3.01691 7.05822 3.01691 8.8152V9.09334C3.01691 9.47001 3.32225 9.77534 3.69891 9.77534H5.7583C6.13496 9.77534 6.4403 9.47001 6.4403 9.09334V8.92929C6.4403 7.71135 10 7.66063 10 4.3648C10 1.88278 7.42542 0 5.01338 0ZM4.72862 10.6125C3.64321 10.6125 2.76016 11.4955 2.76016 12.5809C2.76016 13.6663 3.64321 14.5493 4.72862 14.5493C5.81402 14.5493 6.69707 13.6663 6.69707 12.5809C6.69707 11.4955 5.81402 10.6125 4.72862 10.6125Z" fill="#12120E"/>
</svg>
