<svg width="12" height="16" viewBox="0 0 12 16" fill="none" xmlns="http://www.w3.org/2000/svg">
<path d="M8 0.5C8 0.367392 7.94732 0.240215 7.85355 0.146447C7.75979 0.0526784 7.63261 0 7.5 0L4.5 0C4.36739 0 4.24021 0.0526784 4.14645 0.146447C4.05268 0.240215 4 0.367392 4 0.5C4 0.632608 3.94732 0.759785 3.85355 0.853553C3.75979 0.947322 3.63261 1 3.5 1C3.36739 1 3.24021 1.05268 3.14645 1.14645C3.05268 1.24021 3 1.36739 3 1.5V2C3 2.13261 3.05268 2.25979 3.14645 2.35355C3.24021 2.44732 3.36739 2.5 3.5 2.5H8.5C8.63261 2.5 8.75979 2.44732 8.85355 2.35355C8.94732 2.25979 9 2.13261 9 2V1.5C9 1.36739 8.94732 1.24021 8.85355 1.14645C8.75979 1.05268 8.63261 1 8.5 1C8.36739 1 8.24021 0.947322 8.14645 0.853553C8.05268 0.759785 8 0.632608 8 0.5Z" fill="#12120E"/>
<path d="M2.085 1H1.5C1.10218 1 0.720644 1.15804 0.43934 1.43934C0.158035 1.72064 0 2.10218 0 2.5V14.5C0 14.8978 0.158035 15.2794 0.43934 15.5607C0.720644 15.842 1.10218 16 1.5 16H10.5C10.8978 16 11.2794 15.842 11.5607 15.5607C11.842 15.2794 12 14.8978 12 14.5V2.5C12 2.10218 11.842 1.72064 11.5607 1.43934C11.2794 1.15804 10.8978 1 10.5 1H9.915C9.97 1.156 10 1.325 10 1.5V2C10 2.39782 9.84196 2.77936 9.56066 3.06066C9.27936 3.34196 8.89782 3.5 8.5 3.5H3.5C3.10218 3.5 2.72064 3.34196 2.43934 3.06066C2.15804 2.77936 2 2.39782 2 2V1.5C2 1.325 2.03 1.156 2.085 1ZM8.854 7.854L5.854 10.854C5.80755 10.9006 5.75238 10.9375 5.69163 10.9627C5.63089 10.9879 5.56577 11.0009 5.5 11.0009C5.43423 11.0009 5.36911 10.9879 5.30837 10.9627C5.24762 10.9375 5.19245 10.9006 5.146 10.854L3.646 9.354C3.59951 9.30751 3.56264 9.25232 3.53748 9.19158C3.51232 9.13084 3.49937 9.06574 3.49937 9C3.49937 8.93426 3.51232 8.86916 3.53748 8.80842C3.56264 8.74768 3.59951 8.69249 3.646 8.646C3.73989 8.55211 3.86722 8.49937 4 8.49937C4.06574 8.49937 4.13084 8.51232 4.19158 8.53748C4.25232 8.56264 4.30751 8.59951 4.354 8.646L5.5 9.793L8.146 7.146C8.23989 7.05211 8.36722 6.99937 8.5 6.99937C8.63278 6.99937 8.76011 7.05211 8.854 7.146C8.94789 7.23989 9.00063 7.36722 9.00063 7.5C9.00063 7.63278 8.94789 7.76011 8.854 7.854Z" fill="#12120E"/>
</svg>
