<svg width="74" height="71" viewBox="0 0 74 71" fill="none" xmlns="http://www.w3.org/2000/svg">
<path d="M52.8616 46.5579C55.2249 45.44 57.9299 44.8036 60.8108 44.8036H60.8206C61.1135 44.8036 61.2502 44.4941 61.0354 44.3221C58.0394 41.9544 54.6171 40.0422 50.9084 38.6636C50.8694 38.6464 50.8303 38.6378 50.7913 38.6206C56.8557 34.7422 60.801 28.4387 60.801 21.3269C60.801 9.5455 49.9807 0 36.6311 0C23.2815 0 12.4709 9.5455 12.4709 21.3269C12.4709 28.4387 16.4163 34.7422 22.4905 38.6206C22.4514 38.6378 22.4124 38.6464 22.3733 38.6636C18.0081 40.2889 14.092 42.6194 10.7229 45.5948C7.37322 48.5392 4.70643 52.0296 2.87134 55.8713C1.0658 59.6332 0.091372 63.6639 0.000244199 67.7472C-0.0023623 67.839 0.0159192 67.9303 0.0540121 68.0158C0.0921049 68.1012 0.149238 68.1791 0.222045 68.2448C0.294852 68.3106 0.38186 68.3628 0.477941 68.3984C0.574023 68.4341 0.677235 68.4524 0.781494 68.4524H6.6311C7.05103 68.4524 7.40259 68.1514 7.41235 67.7816C7.60767 61.1428 10.6252 54.9253 15.967 50.2128C21.4846 45.3368 28.8284 42.6538 36.6409 42.6538C42.178 42.6538 47.4905 44.0039 52.0706 46.5321C52.1882 46.5972 52.3233 46.6339 52.4621 46.6384C52.601 46.643 52.7388 46.6152 52.8616 46.5579V46.5579ZM36.6409 36.1181C32.1682 36.1181 27.9592 34.5788 24.7854 31.7839C23.2238 30.4124 21.9859 28.7823 21.1428 26.9876C20.2998 25.1929 19.8683 23.2691 19.8733 21.3269C19.8733 17.3797 21.6213 13.6647 24.7854 10.8698C27.9495 8.07497 32.1584 6.53566 36.6409 6.53566C41.1233 6.53566 45.3225 8.07497 48.4963 10.8698C50.0579 12.2414 51.2959 13.8715 52.1389 15.6661C52.982 17.4608 53.4134 19.3847 53.4084 21.3269C53.4084 25.2741 51.6604 28.9891 48.4963 31.7839C45.3225 34.5788 41.1135 36.1181 36.6409 36.1181ZM72.5588 56.585H64.3557V49.3614C64.3557 48.983 64.0042 48.6734 63.5745 48.6734H58.1057C57.676 48.6734 57.3245 48.983 57.3245 49.3614V56.585H49.1213C48.6917 56.585 48.3401 56.8946 48.3401 57.273V62.0887C48.3401 62.4671 48.6917 62.7767 49.1213 62.7767H57.3245V70.0003C57.3245 70.3787 57.676 70.6883 58.1057 70.6883H63.5745C64.0042 70.6883 64.3557 70.3787 64.3557 70.0003V62.7767H72.5588C72.9885 62.7767 73.3401 62.4671 73.3401 62.0887V57.273C73.3401 56.8946 72.9885 56.585 72.5588 56.585Z" fill="#FFC727"/>
</svg>
