<svg width="334" height="334" viewBox="0 0 334 334" fill="none" xmlns="http://www.w3.org/2000/svg">
<path d="M334 255.443H0V255.61H334V255.443Z" fill="#EBEBEB"/>
<path d="M90.2735 266.191H68.1494V266.358H90.2735V266.191Z" fill="#EBEBEB"/>
<path d="M143.413 261.135H114.322V261.302H143.413V261.135Z" fill="#EBEBEB"/>
<path d="M67.4814 259.992H35.0433V260.159H67.4814V259.992Z" fill="#EBEBEB"/>
<path d="M188.309 262.25H165.404V262.417H188.309V262.25Z" fill="#EBEBEB"/>
<path d="M300.533 262.25H295.563V262.417H300.533V262.25Z" fill="#EBEBEB"/>
<path d="M226.699 262.25H194.254V262.417H226.699V262.25Z" fill="#EBEBEB"/>
<path d="M280.76 265.069H218.182V265.236H280.76V265.069Z" fill="#EBEBEB"/>
<path d="M158.316 225.65H29.3319C28.3214 225.649 27.353 225.246 26.6391 224.531C25.9252 223.816 25.5243 222.847 25.5243 221.836V40.5209C25.5331 39.5162 25.9379 38.5556 26.6508 37.8477C27.3637 37.1398 28.3272 36.7417 29.3319 36.74H158.316C159.328 36.74 160.298 37.1419 161.013 37.8572C161.728 38.5725 162.13 39.5427 162.13 40.5543V221.836C162.13 222.848 161.728 223.818 161.013 224.533C160.298 225.249 159.328 225.65 158.316 225.65ZM29.3319 36.8736C28.3657 36.8754 27.4397 37.2604 26.7572 37.9442C26.0746 38.628 25.6913 39.5547 25.6913 40.5209V221.836C25.6913 222.802 26.0746 223.729 26.7572 224.413C27.4397 225.097 28.3657 225.482 29.3319 225.483H158.316C159.283 225.482 160.209 225.097 160.893 224.413C161.577 223.73 161.962 222.803 161.963 221.836V40.5209C161.962 39.5541 161.577 38.6274 160.893 37.9438C160.209 37.2602 159.283 36.8754 158.316 36.8736H29.3319Z" fill="#EBEBEB"/>
<path d="M302.811 225.65H173.82C172.809 225.649 171.84 225.246 171.125 224.531C170.41 223.816 170.008 222.847 170.006 221.836V40.5209C170.017 39.5156 170.423 38.555 171.137 37.8473C171.851 37.1395 172.815 36.7417 173.82 36.74H302.811C303.815 36.7435 304.776 37.1423 305.488 37.85C306.199 38.5578 306.603 39.5174 306.612 40.5209V221.836C306.612 222.845 306.212 223.814 305.5 224.528C304.787 225.243 303.82 225.647 302.811 225.65ZM173.82 36.8736C172.853 36.8754 171.927 37.2602 171.243 37.9438C170.56 38.6274 170.175 39.5541 170.173 40.5209V221.836C170.175 222.803 170.56 223.73 171.243 224.413C171.927 225.097 172.853 225.482 173.82 225.483H302.811C303.778 225.482 304.705 225.097 305.388 224.413C306.072 223.73 306.457 222.803 306.458 221.836V40.5209C306.457 39.5541 306.072 38.6274 305.388 37.9438C304.705 37.2602 303.778 36.8754 302.811 36.8736H173.82Z" fill="#EBEBEB"/>
<path d="M134.709 251.115H140.627V184.134H134.709V251.115Z" fill="#F0F0F0"/>
<path d="M47.7486 255.356H138.356V251.115H47.7486V255.356Z" fill="#F0F0F0"/>
<path d="M134.709 184.134H45.4774V251.115H134.709V184.134Z" fill="#F5F5F5"/>
<path d="M125.885 192.377H54.295C51.9929 192.377 50.1267 194.243 50.1267 196.546V210.173C50.1267 212.475 51.9929 214.341 54.295 214.341H125.885C128.187 214.341 130.053 212.475 130.053 210.173V196.546C130.053 194.243 128.187 192.377 125.885 192.377Z" fill="#F0F0F0"/>
<path d="M54.295 220.901H125.891C126.997 220.901 128.057 221.34 128.839 222.122C129.62 222.904 130.06 223.964 130.06 225.069V238.703C130.06 239.25 129.952 239.791 129.743 240.296C129.534 240.801 129.227 241.259 128.841 241.646C128.454 242.032 127.995 242.339 127.491 242.548C126.986 242.757 126.444 242.865 125.898 242.865H54.295C53.746 242.868 53.2016 242.763 52.6932 242.556C52.1849 242.348 51.7225 242.042 51.3327 241.656C50.9429 241.269 50.6333 240.809 50.4218 240.302C50.2102 239.796 50.1009 239.252 50.1 238.703V225.069C50.1 224.52 50.2087 223.975 50.4198 223.468C50.631 222.96 50.9404 222.5 51.3303 222.112C51.7202 221.725 52.1829 221.418 52.6917 221.211C53.2005 221.003 53.7454 220.897 54.295 220.901Z" fill="#F0F0F0"/>
<path d="M66.486 204.869H113.7C114.427 204.869 115.016 204.28 115.016 203.553V203.172C115.016 202.445 114.427 201.856 113.7 201.856H66.486C65.7593 201.856 65.1701 202.445 65.1701 203.172V203.553C65.1701 204.28 65.7593 204.869 66.486 204.869Z" fill="#F5F5F5"/>
<path d="M66.486 233.393H113.7C114.427 233.393 115.016 232.803 115.016 232.077V231.696C115.016 230.969 114.427 230.38 113.7 230.38H66.486C65.7593 230.38 65.1701 230.969 65.1701 231.696V232.077C65.1701 232.803 65.7593 233.393 66.486 233.393Z" fill="#F5F5F5"/>
<path d="M258.155 250.801H282.05V113.366H258.155V250.801Z" fill="#F0F0F0"/>
<path d="M185.711 255.437H277.46V250.794H185.711V255.437Z" fill="#F0F0F0"/>
<path d="M258.155 113.36H181.122V250.794H258.155V113.36Z" fill="#F5F5F5"/>
<path d="M244.789 189.572H194.488C192.293 189.572 190.514 191.351 190.514 193.546V209.632C190.514 211.827 192.293 213.606 194.488 213.606H244.789C246.984 213.606 248.763 211.827 248.763 209.632V193.546C248.763 191.351 246.984 189.572 244.789 189.572Z" fill="#F0F0F0"/>
<path d="M244.789 217.995H194.488C192.293 217.995 190.514 219.775 190.514 221.97V238.055C190.514 240.25 192.293 242.03 194.488 242.03H244.789C246.984 242.03 248.763 240.25 248.763 238.055V221.97C248.763 219.775 246.984 217.995 244.789 217.995Z" fill="#F0F0F0"/>
<path d="M244.789 122.13H194.488C192.293 122.13 190.514 123.91 190.514 126.105V181.215C190.514 183.41 192.293 185.19 194.488 185.19H244.789C246.984 185.19 248.763 183.41 248.763 181.215V126.105C248.763 123.91 246.984 122.13 244.789 122.13Z" fill="#F0F0F0"/>
<path d="M177.935 113.36L258.155 113.36V109.385L177.935 109.385V113.36Z" fill="#F0F0F0"/>
<path d="M285.39 109.392H258.155V113.366H285.39V109.392Z" fill="#E6E6E6"/>
<path d="M245.149 89.2046H225.316V109.385H245.149V89.2046Z" fill="#F0F0F0"/>
<path d="M190.133 109.392H225.316V89.2113H190.133V109.392Z" fill="#F5F5F5"/>
<g style="mix-blend-mode:multiply" opacity="0.7">
<path d="M245.149 92.2507H189.919V93.8806H245.149V92.2507Z" fill="#E6E6E6"/>
</g>
<path d="M246.245 88.2227H225.316V92.9387H246.245V88.2227Z" fill="#F0F0F0"/>
<path d="M189.031 92.9321H225.31V88.2161H189.031V92.9321Z" fill="#F5F5F5"/>
<path d="M270.259 96.4392H257.534V109.392H270.259V96.4392Z" fill="#F0F0F0"/>
<path d="M234.956 109.385H257.534V96.4325H234.956V109.385Z" fill="#F5F5F5"/>
<g style="mix-blend-mode:multiply" opacity="0.7">
<path d="M270.266 98.3896H234.822V99.4384H270.266V98.3896Z" fill="#E6E6E6"/>
</g>
<path d="M270.968 95.8044H257.534V98.8305H270.968V95.8044Z" fill="#F0F0F0"/>
<path d="M234.248 98.8306H257.534V95.8045H234.248V98.8306Z" fill="#F5F5F5"/>
<path d="M85.5441 125.51H111.102L111.102 50.9216H85.5441L85.5441 125.51Z" fill="#F0F0F0"/>
<path d="M80.0598 125.51H109.452L109.452 50.9216H80.0598L80.0598 125.51Z" fill="#F5F5F5"/>
<path d="M82.518 53.854V122.578H106.987V53.854H82.518Z" fill="white"/>
<path d="M88.4499 61.4494V114.983H101.055V61.4494H88.4499Z" fill="#F5F5F5"/>
<path d="M48.8108 141.576H74.3684L74.3684 66.9871H48.8108L48.8108 141.576Z" fill="#F0F0F0"/>
<path d="M43.3265 141.576H72.7185L72.7185 66.9871H43.3265L43.3265 141.576Z" fill="#F5F5F5"/>
<path d="M45.7914 69.9263L45.7914 138.65H70.2602V69.9263H45.7914Z" fill="white"/>
<path d="M51.7232 82.5515V126.018C51.7232 128.8 53.9783 131.055 56.76 131.055H59.2917C62.0734 131.055 64.3284 128.8 64.3284 126.018V82.5515C64.3284 79.7697 62.0734 77.5147 59.2917 77.5147H56.76C53.9783 77.5147 51.7232 79.7697 51.7232 82.5515Z" fill="#F5F5F5"/>
<path d="M121.142 152.284H146.699V77.6951H121.142L121.142 152.284Z" fill="#F0F0F0"/>
<path d="M115.658 152.284H145.049V77.6951H115.658L115.658 152.284Z" fill="#F5F5F5"/>
<path d="M118.116 80.6275V149.351H142.585V80.6275H118.116Z" fill="white"/>
<path d="M124.048 93.2529V136.72C124.048 139.501 126.303 141.756 129.084 141.756H131.616C134.398 141.756 136.653 139.501 136.653 136.72V93.2529C136.653 90.4712 134.398 88.2161 131.616 88.2161H129.084C126.303 88.2161 124.048 90.4712 124.048 93.2529Z" fill="#F5F5F5"/>
<path d="M167 285.61C238.531 285.61 296.519 282.225 296.519 278.048C296.519 273.872 238.531 270.487 167 270.487C95.4689 270.487 37.4815 273.872 37.4815 278.048C37.4815 282.225 95.4689 285.61 167 285.61Z" fill="#F5F5F5"/>
<path d="M255.256 200.654H98.677C97.7464 200.66 96.8245 200.475 95.9681 200.111C95.1116 199.747 94.3388 199.212 93.6973 198.538C93.0558 197.864 92.5591 197.065 92.2379 196.192C91.9168 195.318 91.7779 194.388 91.83 193.459L97.7551 72.3176C97.873 70.3871 98.7166 68.5726 100.117 67.2382C101.517 65.9038 103.37 65.1483 105.304 65.1232H261.856C262.787 65.1162 263.709 65.3002 264.566 65.6639C265.423 66.0275 266.196 66.563 266.838 67.2373C267.48 67.9115 267.976 68.7103 268.297 69.5841C268.618 70.4579 268.756 71.3883 268.703 72.3176L262.778 193.459C262.66 195.385 261.82 197.196 260.426 198.53C259.032 199.863 257.185 200.622 255.256 200.654Z" fill="#E7B200"/>
<path opacity="0.8" d="M255.256 200.654H98.677C97.7464 200.66 96.8245 200.475 95.9681 200.111C95.1116 199.747 94.3388 199.212 93.6973 198.538C93.0558 197.864 92.5591 197.065 92.2379 196.192C91.9168 195.318 91.7779 194.388 91.83 193.459L97.7551 72.3176C97.873 70.3871 98.7166 68.5726 100.117 67.2382C101.517 65.9038 103.37 65.1483 105.304 65.1232H261.856C262.787 65.1162 263.709 65.3002 264.566 65.6639C265.423 66.0275 266.196 66.563 266.838 67.2373C267.48 67.9115 267.976 68.7103 268.297 69.5841C268.618 70.4579 268.756 71.3883 268.703 72.3176L262.778 193.459C262.66 195.385 261.82 197.196 260.426 198.53C259.032 199.863 257.185 200.622 255.256 200.654Z" fill="white"/>
<path d="M146.82 63.019H143.62V63.6202H146.82V63.019Z" fill="#E7B200"/>
<path d="M140.019 63.019H126.927V63.6202H140.019V63.019Z" fill="#E7B200"/>
<path d="M261.856 65.1232H105.304C103.37 65.1483 101.517 65.9038 100.117 67.2382C98.7166 68.5726 97.873 70.3871 97.7551 72.3176H268.763C268.817 71.3831 268.677 70.4477 268.352 69.5698C268.028 68.6918 267.526 67.8902 266.878 67.215C266.229 66.5399 265.449 66.0056 264.585 65.6457C263.721 65.2858 262.792 65.1079 261.856 65.1232Z" fill="#E7B200"/>
<path d="M260.186 84.9094H105.07C104.82 84.9127 104.571 84.8642 104.341 84.7671C104.11 84.67 103.902 84.5263 103.73 84.3451C103.557 84.1639 103.424 83.949 103.339 83.7139C103.253 83.4788 103.217 83.2286 103.233 82.9789L103.426 79.0444C103.457 78.5296 103.68 78.045 104.051 77.6872C104.422 77.3294 104.915 77.1247 105.43 77.1138H260.567C260.817 77.1116 261.064 77.1607 261.294 77.2581C261.525 77.3556 261.732 77.4993 261.904 77.6803C262.077 77.8613 262.21 78.0758 262.296 78.3105C262.382 78.5451 262.418 78.7949 262.404 79.0444L262.21 82.9789C262.18 83.4971 261.954 83.9845 261.578 84.3428C261.203 84.701 260.705 84.9035 260.186 84.9094Z" fill="white"/>
<path opacity="0.3" d="M150.46 83.0456H108.443C108.312 83.0467 108.183 83.021 108.063 82.9701C107.942 82.9192 107.834 82.8442 107.744 82.7496C107.653 82.6551 107.584 82.5431 107.539 82.4205C107.493 82.2979 107.474 82.1674 107.481 82.0369L107.581 79.9862C107.598 79.7167 107.716 79.4637 107.912 79.2778C108.108 79.0919 108.367 78.987 108.637 78.9842H150.661C150.79 78.983 150.919 79.0086 151.039 79.0591C151.158 79.1097 151.266 79.1843 151.355 79.2782C151.445 79.3721 151.514 79.4834 151.559 79.6052C151.604 79.7269 151.623 79.8566 151.616 79.9862L151.516 82.0369C151.501 82.3075 151.383 82.5623 151.187 82.7496C150.991 82.9368 150.731 83.0426 150.46 83.0456Z" fill="#E7B200"/>
<path d="M259.591 96.9602H104.482C104.231 96.9625 103.983 96.9132 103.753 96.8154C103.522 96.7175 103.314 96.5732 103.142 96.3915C102.969 96.2097 102.836 95.9944 102.751 95.759C102.665 95.5235 102.629 95.273 102.645 95.023L102.839 91.0951C102.867 90.5798 103.09 90.0943 103.461 89.7362C103.833 89.3782 104.327 89.1739 104.843 89.1646H259.952C260.202 89.1624 260.45 89.2115 260.681 89.3089C260.911 89.4063 261.119 89.5498 261.292 89.7308C261.465 89.9117 261.599 90.1261 261.685 90.3607C261.772 90.5954 261.81 90.8454 261.796 91.0951L261.602 95.023C261.572 95.5396 261.348 96.0258 260.976 96.3849C260.603 96.7439 260.109 96.9493 259.591 96.9602Z" fill="white"/>
<path opacity="0.3" d="M156.706 95.0896H107.849C107.719 95.0908 107.59 95.0653 107.471 95.0147C107.351 94.9641 107.243 94.8896 107.154 94.7956C107.064 94.7017 106.995 94.5904 106.95 94.4687C106.905 94.3469 106.886 94.2172 106.893 94.0876L106.994 92.0369C107.009 91.7663 107.126 91.5115 107.322 91.3243C107.518 91.137 107.778 91.0312 108.049 91.0282H156.907C157.037 91.026 157.167 91.051 157.287 91.1017C157.408 91.1523 157.516 91.2274 157.606 91.3223C157.696 91.4172 157.765 91.5297 157.809 91.6527C157.853 91.7757 157.871 91.9066 157.862 92.0369L157.762 94.0876C157.746 94.3576 157.629 94.6116 157.432 94.7978C157.236 94.984 156.977 95.0884 156.706 95.0896Z" fill="#E7B200"/>
<path d="M257.18 188.977H102.057C101.805 188.981 101.555 188.933 101.323 188.836C101.09 188.739 100.88 188.595 100.706 188.414C100.532 188.232 100.397 188.016 100.31 187.78C100.223 187.543 100.185 187.291 100.2 187.04L104.248 104.382C104.277 103.866 104.499 103.381 104.871 103.023C105.243 102.665 105.736 102.46 106.252 102.451H261.362C261.612 102.449 261.86 102.498 262.09 102.595C262.321 102.693 262.529 102.836 262.701 103.017C262.874 103.198 263.008 103.412 263.095 103.647C263.181 103.882 263.219 104.132 263.205 104.382L259.184 187.04C259.157 187.556 258.935 188.043 258.563 188.403C258.191 188.762 257.697 188.968 257.18 188.977Z" fill="white"/>
<path opacity="0.3" d="M134.669 108.71H107.281C107.15 108.711 107.021 108.686 106.901 108.635C106.781 108.584 106.673 108.509 106.583 108.414C106.494 108.319 106.425 108.207 106.38 108.085C106.336 107.962 106.317 107.832 106.326 107.702L106.426 105.651C106.441 105.38 106.558 105.125 106.754 104.938C106.95 104.751 107.21 104.645 107.481 104.642H134.869C135 104.641 135.129 104.667 135.25 104.718C135.37 104.769 135.479 104.844 135.569 104.938C135.659 105.033 135.729 105.145 135.774 105.267C135.819 105.39 135.838 105.52 135.831 105.651L135.731 107.702C135.716 107.973 135.597 108.229 135.4 108.416C135.202 108.604 134.941 108.709 134.669 108.71Z" fill="#E7B200"/>
<path opacity="0.3" d="M186.639 117.02H106.8C106.67 117.022 106.541 116.997 106.421 116.947C106.301 116.897 106.193 116.822 106.103 116.728C106.013 116.634 105.944 116.523 105.899 116.4C105.855 116.278 105.836 116.148 105.845 116.018L105.945 113.967C105.96 113.697 106.078 113.442 106.273 113.255C106.469 113.068 106.729 112.962 107 112.959H186.84C186.97 112.958 187.1 112.983 187.22 113.034C187.34 113.085 187.449 113.16 187.539 113.255C187.629 113.349 187.699 113.461 187.744 113.584C187.789 113.706 187.809 113.837 187.802 113.967L187.701 116.018C187.684 116.289 187.565 116.543 187.368 116.729C187.171 116.915 186.91 117.019 186.639 117.02Z" fill="#E7B200"/>
<path opacity="0.3" d="M171.783 123.213H106.499C106.369 123.214 106.24 123.188 106.12 123.137C106 123.086 105.892 123.011 105.802 122.916C105.712 122.822 105.643 122.71 105.599 122.587C105.554 122.464 105.536 122.334 105.544 122.204L105.644 120.153C105.661 119.884 105.779 119.631 105.975 119.445C106.171 119.259 106.43 119.154 106.7 119.151H171.983C172.113 119.15 172.242 119.176 172.361 119.226C172.481 119.277 172.588 119.351 172.678 119.445C172.768 119.539 172.837 119.65 172.882 119.772C172.926 119.894 172.946 120.024 172.939 120.153L172.838 122.204C172.823 122.475 172.706 122.729 172.51 122.917C172.314 123.104 172.054 123.21 171.783 123.213Z" fill="#E7B200"/>
<path d="M242.785 196.158H254.274C254.919 196.149 255.537 195.897 256.003 195.453C256.47 195.008 256.752 194.404 256.793 193.76C256.811 193.45 256.765 193.14 256.659 192.849C256.553 192.558 256.387 192.292 256.174 192.067C255.96 191.842 255.703 191.663 255.417 191.542C255.132 191.421 254.825 191.36 254.515 191.362H243.018C242.373 191.369 241.755 191.621 241.287 192.066C240.82 192.51 240.539 193.116 240.5 193.76C240.483 194.07 240.529 194.38 240.636 194.671C240.743 194.963 240.909 195.229 241.123 195.454C241.337 195.678 241.595 195.857 241.881 195.978C242.167 196.099 242.474 196.16 242.785 196.158Z" fill="#E7B200"/>
<path opacity="0.4" d="M229.852 193.76C229.838 193.992 229.873 194.225 229.952 194.443C230.032 194.662 230.156 194.861 230.317 195.03C230.477 195.198 230.67 195.332 230.885 195.423C231.099 195.513 231.33 195.559 231.562 195.557C232.047 195.554 232.512 195.367 232.863 195.033C233.215 194.699 233.425 194.244 233.453 193.76C233.466 193.528 233.432 193.295 233.352 193.077C233.272 192.858 233.148 192.658 232.988 192.49C232.828 192.321 232.634 192.188 232.42 192.097C232.206 192.006 231.975 191.961 231.743 191.963C231.258 191.967 230.794 192.155 230.443 192.489C230.092 192.822 229.881 193.277 229.852 193.76Z" fill="#E7B200"/>
<path opacity="0.4" d="M221.355 193.76C221.341 193.992 221.376 194.225 221.455 194.443C221.535 194.662 221.659 194.861 221.82 195.03C221.98 195.198 222.173 195.332 222.388 195.423C222.602 195.514 222.833 195.559 223.065 195.557C223.549 195.553 224.014 195.365 224.365 195.031C224.716 194.698 224.927 194.243 224.956 193.76C224.969 193.527 224.935 193.294 224.855 193.075C224.774 192.856 224.65 192.656 224.489 192.488C224.328 192.319 224.134 192.185 223.918 192.095C223.703 192.005 223.472 191.96 223.239 191.963C222.755 191.967 222.292 192.155 221.942 192.489C221.592 192.823 221.382 193.277 221.355 193.76Z" fill="#E7B200"/>
<path opacity="0.4" d="M212.852 193.76C212.838 193.993 212.872 194.226 212.952 194.445C213.033 194.664 213.157 194.864 213.318 195.032C213.48 195.201 213.674 195.335 213.889 195.425C214.104 195.515 214.335 195.56 214.568 195.557C215.052 195.552 215.515 195.364 215.865 195.031C216.215 194.697 216.425 194.243 216.452 193.76C216.466 193.528 216.432 193.295 216.352 193.077C216.272 192.858 216.148 192.658 215.987 192.49C215.827 192.321 215.634 192.188 215.419 192.097C215.205 192.006 214.975 191.961 214.742 191.963C214.258 191.967 213.793 192.155 213.442 192.489C213.091 192.822 212.88 193.277 212.852 193.76Z" fill="#E7B200"/>
<path opacity="0.1" d="M178.356 181.596V181.195L178.423 179.712C178.463 178.723 178.423 177.741 178.423 176.753C178.383 174.789 178.269 172.831 178.049 170.908C177.828 168.984 177.534 167.06 177.14 165.17C177.033 164.689 176.933 164.208 176.813 163.733L178.443 162.397C178.443 162.397 175.804 153.219 173.099 152.551H173.039C172.861 152.51 172.68 152.486 172.498 152.478C168.906 151.972 165.283 151.717 161.656 151.716C159.579 149.712 159.899 145.671 160.647 142.07C160.781 141.85 160.908 141.629 161.021 141.402C164.084 139.417 166.352 136.419 167.428 132.932C169.077 133.313 171.562 133.293 174.622 131.436C173.546 131.696 172.431 131.748 171.335 131.589C172.668 131.06 173.807 130.137 174.601 128.944C175.395 127.75 175.805 126.342 175.778 124.909C175.782 124.151 175.621 123.402 175.303 122.713C174.986 122.025 174.521 121.415 173.941 120.927C173.362 120.438 172.682 120.084 171.95 119.888C171.218 119.691 170.451 119.659 169.705 119.792C168.009 120.103 166.5 121.061 165.497 122.464H165.23C164.194 121.706 162.94 121.306 161.656 121.322C158.443 117.22 144.495 118.349 142.224 123.84C141.015 126.766 141.81 128.516 143.159 129.505C142.898 130.515 142.768 131.555 142.772 132.598C142.595 132.739 142.43 132.893 142.277 133.059C142.247 133.088 142.222 133.122 142.206 133.161C142.189 133.199 142.181 133.241 142.181 133.283C142.181 133.324 142.189 133.366 142.206 133.404C142.222 133.443 142.247 133.478 142.277 133.506C142.319 133.539 142.369 133.56 142.422 133.567C142.475 133.574 142.529 133.567 142.578 133.546C142.635 133.526 142.685 133.491 142.725 133.446L142.792 133.386C142.863 134.455 143.088 135.508 143.46 136.512C143.491 138.813 143.885 141.095 144.629 143.272C145.965 147.04 149.659 148.536 153.313 147.701C153.313 147.969 153.353 148.236 153.353 148.503C153.353 150.293 152.458 151.516 149.131 152.511C147.314 152.778 145.41 153.139 143.693 153.493C141.581 153.956 139.713 155.184 138.45 156.94C135.905 159.679 132.732 168.376 132.732 168.376L134.822 169.512C134.595 170.393 134.368 171.275 134.154 172.184C134.14 172.22 134.129 172.258 134.121 172.297H119.144C118.658 172.293 118.176 172.39 117.728 172.581C117.28 172.771 116.876 173.052 116.542 173.405C116.207 173.759 115.949 174.177 115.783 174.635C115.617 175.092 115.547 175.579 115.577 176.065L115.945 182.898C115.885 182.935 115.829 182.977 115.778 183.025L114.522 184.201L114.809 190.166C115.306 190.49 115.831 190.768 116.379 190.994L116.553 194.334C116.579 194.759 116.676 195.177 116.84 195.57C109.492 196.238 105.43 198.102 104.428 200.734H164.996C165.312 198.746 165.464 196.735 165.45 194.722L166.025 194.688C166.339 194.688 166.579 194.461 166.499 194.281L165.965 191.89C165.916 191.822 165.85 191.77 165.773 191.738C165.696 191.706 165.612 191.696 165.53 191.709H165.497C165.497 190.988 165.55 190.273 165.577 189.572C167.303 189.599 169.027 189.444 170.721 189.111C172.025 188.862 173.283 188.411 174.448 187.775C175.193 187.338 175.868 186.794 176.452 186.158C177.111 185.432 177.616 184.58 177.935 183.653C178.085 183.22 178.19 182.772 178.249 182.317C178.356 182.003 178.356 181.803 178.356 181.596ZM172.144 182.437C172.071 182.562 171.967 182.665 171.843 182.738C171.29 183.097 170.684 183.365 170.046 183.533C168.706 183.915 167.333 184.166 165.945 184.281C166.339 180.117 167.008 175.985 167.949 171.91C168.035 171.516 168.129 171.108 168.222 170.701C168.263 170.534 168.296 170.367 168.336 170.193C168.376 170.019 168.443 169.752 168.496 169.525C168.757 169.932 168.924 170.193 168.924 170.193L170.654 168.79C170.908 170.046 171.155 171.315 171.322 172.604C171.562 174.348 171.763 176.111 171.91 177.882C171.957 178.77 172.037 179.658 172.063 180.554L172.124 182.384C172.124 182.384 172.157 182.364 172.137 182.437H172.144Z" fill="#E7B200"/>
<path d="M176.392 221.676H110.741C110.596 221.676 110.454 221.643 110.324 221.578C110.195 221.514 110.082 221.421 109.994 221.306C109.907 221.19 109.847 221.056 109.82 220.914C109.794 220.772 109.8 220.626 109.839 220.487V220.413C111.135 215.737 115.965 211.996 120.607 211.996H178.556C178.7 211.997 178.842 212.031 178.971 212.096C179.1 212.16 179.212 212.254 179.299 212.369C179.385 212.484 179.444 212.618 179.471 212.759C179.497 212.901 179.491 213.047 179.452 213.185L177.26 220.994C177.209 221.186 177.096 221.357 176.94 221.479C176.783 221.602 176.591 221.671 176.392 221.676Z" fill="#E7B200"/>
<path d="M177.668 278.048H180.28L170.487 221.676H167.875L177.668 278.048Z" fill="#E7B200"/>
<path opacity="0.6" d="M177.668 278.048H180.28L170.487 221.676H167.875L177.668 278.048Z" fill="white"/>
<path d="M162.979 278.048H165.591L160.694 221.676H158.082L162.979 278.048Z" fill="#E7B200"/>
<path opacity="0.6" d="M162.979 278.048H165.591L160.694 221.676H158.082L162.979 278.048Z" fill="white"/>
<path d="M110.781 278.048H108.169L117.962 221.676H120.574L110.781 278.048Z" fill="#E7B200"/>
<path opacity="0.6" d="M110.781 278.048H108.169L117.962 221.676H120.574L110.781 278.048Z" fill="white"/>
<path d="M125.47 278.048H122.859L127.762 221.676H130.367L125.47 278.048Z" fill="#E7B200"/>
<path opacity="0.6" d="M125.47 278.048H122.859L127.762 221.676H130.367L125.47 278.048Z" fill="white"/>
<path d="M157.561 131.92C160.72 131.395 162.83 128.256 162.275 124.908C161.719 121.56 158.708 119.27 155.549 119.794C152.39 120.318 150.279 123.458 150.835 126.806C151.39 130.154 154.401 132.444 157.561 131.92Z" fill="#263238"/>
<path d="M152.605 131.977C152.605 131.977 156.699 134.916 161.957 131.442C159.211 132.17 156.172 131.008 156.172 131.008L152.605 131.977Z" fill="#263238"/>
<path d="M156.312 127C156.8 129.926 155.083 132.651 152.484 133.079C149.886 133.506 147.388 131.489 146.9 128.563C146.412 125.637 148.129 122.912 150.728 122.478C153.326 122.043 155.811 124.074 156.312 127Z" fill="#E7B200"/>
<path d="M147.034 142.658C152.231 141.289 158.536 132.638 152.939 124.074C150.821 124.074 145.023 126.031 145.023 126.031L147.034 142.658Z" fill="#263238"/>
<path d="M133.513 122.792C129.505 126.352 127.581 135.998 136.613 142.037C138.503 141.082 142.805 136.726 142.805 136.726L133.513 122.792Z" fill="#263238"/>
<path d="M134.669 162.598C134.669 163.573 134.595 164.415 134.522 165.303C134.448 166.192 134.368 167.06 134.268 167.929C134.088 169.679 133.847 171.409 133.56 173.139C132.987 176.59 132.24 180.01 131.322 183.386L130.594 185.911L129.792 188.416C129.406 189.709 128.68 190.875 127.692 191.794C126.703 192.712 125.486 193.35 124.168 193.64C122.102 194.047 119.967 193.946 117.949 193.346C117.038 193.106 116.145 192.803 115.277 192.437C114.416 192.086 113.579 191.677 112.772 191.215L114.108 188.089C114.823 188.229 115.651 188.403 116.419 188.51C117.187 188.617 117.975 188.703 118.73 188.737C120.044 188.863 121.369 188.708 122.618 188.282C122.973 188.151 123.282 187.919 123.507 187.614C123.589 187.492 123.656 187.359 123.707 187.22C123.707 187.147 123.76 187.06 123.787 186.973C123.791 186.924 123.791 186.875 123.787 186.826L123.841 186.626L124.448 184.234L125.003 181.823C125.711 178.603 126.285 175.35 126.753 172.083C126.993 170.454 127.194 168.817 127.381 167.18C127.468 166.365 127.548 165.544 127.615 164.736C127.682 163.927 127.755 163.079 127.795 162.357L134.669 162.598Z" fill="#FF8B7B"/>
<path d="M129.839 156.232C127.401 157.715 124.916 168.336 124.916 168.336L135.424 173.68C135.424 173.68 139.899 162.23 137.815 159.171C135.604 155.944 133.386 154.061 129.839 156.232Z" fill="#E7B200"/>
<path opacity="0.2" d="M127.802 164.201C127.32 166.038 127.334 167.969 127.842 169.799L135.41 173.68C135.41 173.68 138.022 167 138.323 162.471C135.644 159.806 129.492 159.472 127.802 164.201Z" fill="black"/>
<path d="M115.417 188.53L108.65 184.107L109.712 190.073C109.712 190.073 112.177 191.616 113.72 191.275L115.417 188.53Z" fill="#FF8B7B"/>
<path d="M128.122 161.155C128.51 167.06 129.792 177.628 133.627 195.016L160.794 193.413C159.685 182.384 159.271 175.564 163.219 152.558C159.37 151.997 155.486 151.716 151.596 151.716C147.469 151.668 143.344 151.911 139.251 152.444C137.474 152.711 135.624 153.072 133.947 153.426C132.209 153.798 130.663 154.784 129.593 156.204C128.523 157.624 128.001 159.381 128.122 161.155Z" fill="#E7B200"/>
<path opacity="0.2" d="M141.175 157.648C141.175 157.648 143.847 161.028 147.481 162.124C151.115 163.219 152.157 155.798 151.596 151.723C148.229 150.881 141.175 157.648 141.175 157.648Z" fill="black"/>
<path d="M141.175 157.648C141.175 157.648 144.188 160.674 147.855 161.763C151.522 162.852 152.17 155.798 151.623 151.743C148.229 150.881 141.175 157.648 141.175 157.648Z" fill="white"/>
<path opacity="0.2" d="M141.175 157.648C140.046 159.56 138.283 161.016 136.192 161.763C132.631 163.099 136.426 153.934 139.251 152.451C142.618 151.636 141.175 157.648 141.175 157.648Z" fill="black"/>
<path d="M141.175 157.648C139.933 159.44 138.105 160.742 136.005 161.329C132.371 162.418 136.426 153.934 139.251 152.451C142.618 151.636 141.175 157.648 141.175 157.648Z" fill="white"/>
<path d="M161.108 191.796L161.95 194.187C162.05 194.368 161.843 194.575 161.529 194.595L133.56 196.245C133.319 196.245 133.106 196.151 133.079 195.998L132.692 193.58C132.692 193.413 132.872 193.259 133.139 193.239L160.654 191.616C160.739 191.604 160.825 191.615 160.905 191.647C160.984 191.678 161.054 191.73 161.108 191.796Z" fill="white"/>
<path d="M157.501 195.096L158.243 195.056C158.389 195.056 158.496 194.962 158.476 194.869L157.949 191.729C157.949 191.636 157.802 191.569 157.655 191.582L156.913 191.622C156.766 191.622 156.659 191.716 156.679 191.803L157.207 194.942C157.227 195.056 157.354 195.103 157.501 195.096Z" fill="#263238"/>
<path d="M135.651 196.392L136.386 196.345C136.533 196.345 136.639 196.258 136.626 196.165L136.092 193.025C136.092 192.932 135.945 192.865 135.798 192.872L135.056 192.918C134.909 192.918 134.802 193.012 134.822 193.099L135.35 196.238C135.37 196.325 135.504 196.392 135.651 196.392Z" fill="#263238"/>
<path d="M146.533 195.724L147.267 195.677C147.414 195.677 147.521 195.59 147.508 195.497L146.96 192.384C146.96 192.29 146.813 192.224 146.666 192.23L145.931 192.277C145.784 192.277 145.677 192.37 145.691 192.457L146.219 195.597C146.252 195.684 146.386 195.724 146.533 195.724Z" fill="#263238"/>
<path opacity="0.2" d="M162.625 156.112C160.272 157.232 158.405 159.166 157.367 161.556C156.158 164.602 159.652 170.661 160.487 172.023C160.874 167.741 161.562 162.625 162.625 156.112Z" fill="black"/>
<path d="M149.632 139.385C149.091 143.393 148.65 149.231 151.589 151.716C147.524 154.367 144.001 157.767 141.209 161.736C136.472 155.477 139.245 152.424 139.245 152.424C143.613 151.088 143.393 149.318 142.438 146.279L149.632 139.385Z" fill="#FF8B7B"/>
<path opacity="0.2" d="M146.706 142.21L142.451 146.292C142.683 146.997 142.853 147.721 142.959 148.456C144.635 148.116 147.207 146.512 147.468 144.655C147.588 143.78 146.873 142.611 146.706 142.21Z" fill="black"/>
<path d="M149.505 130.006C150.561 136.572 151.142 139.325 148.617 143.366C144.816 149.472 136.519 149.331 133.527 143.212C130.855 137.701 129.559 127.888 135.317 123.887C136.585 122.999 138.06 122.45 139.6 122.293C141.141 122.135 142.696 122.375 144.118 122.988C145.54 123.601 146.781 124.568 147.724 125.796C148.667 127.025 149.28 128.474 149.505 130.006Z" fill="#FF8B7B"/>
<path d="M147.702 121.282C141.022 116.492 124.535 118.523 127.067 124.074C130.113 130.754 135.344 130.928 135.344 130.928C135.344 130.928 133.259 129.926 133.306 128.59C138.203 127.067 141.95 130.146 144.068 128.136C143.139 131.93 149.225 135.517 149.225 135.517C150.921 134.037 152.287 132.216 153.233 130.173C154.675 126.873 153.526 121.462 147.702 121.282Z" fill="#263238"/>
<path d="M139.559 134.041C139.672 134.568 139.492 135.056 139.144 135.136C138.797 135.216 138.43 134.849 138.309 134.321C138.189 133.794 138.376 133.299 138.717 133.226C139.058 133.152 139.438 133.513 139.559 134.041Z" fill="#263238"/>
<path d="M133.6 135.377C133.72 135.904 133.533 136.392 133.193 136.472C132.852 136.552 132.471 136.185 132.351 135.657C132.231 135.13 132.418 134.642 132.765 134.562C133.112 134.482 133.48 134.849 133.6 135.377Z" fill="#263238"/>
<path d="M132.932 134.555L131.596 134.475C131.596 134.475 132.438 135.317 132.932 134.555Z" fill="#263238"/>
<path d="M135.644 135.918C135.447 137.226 135.069 138.501 134.522 139.706C134.834 139.837 135.17 139.899 135.509 139.886C135.847 139.874 136.178 139.787 136.479 139.632L135.644 135.918Z" fill="#FF5652"/>
<path d="M139.819 141.055C139.572 141.154 139.317 141.232 139.058 141.289C139.037 141.293 139.016 141.294 138.995 141.291C138.974 141.287 138.954 141.28 138.936 141.269C138.918 141.257 138.902 141.243 138.89 141.226C138.878 141.208 138.869 141.189 138.864 141.168C138.859 141.148 138.858 141.126 138.862 141.106C138.865 141.085 138.873 141.065 138.884 141.047C138.895 141.029 138.91 141.013 138.927 141.001C138.944 140.988 138.963 140.979 138.984 140.975C139.643 140.842 140.261 140.557 140.789 140.142C141.317 139.726 141.74 139.192 142.023 138.583C142.031 138.563 142.042 138.545 142.057 138.53C142.071 138.515 142.088 138.502 142.108 138.493C142.127 138.485 142.148 138.48 142.169 138.479C142.19 138.479 142.211 138.482 142.231 138.49C142.25 138.496 142.268 138.507 142.283 138.521C142.299 138.535 142.311 138.551 142.32 138.57C142.329 138.589 142.333 138.609 142.334 138.63C142.335 138.65 142.331 138.671 142.324 138.69C142.085 139.231 141.74 139.719 141.31 140.125C140.88 140.531 140.373 140.847 139.819 141.055Z" fill="#263238"/>
<path d="M152.037 135.09C151.836 136.36 151.139 137.499 150.1 138.256C148.71 139.251 147.428 138.149 147.341 136.539C147.247 135.09 147.862 132.825 149.485 132.471C149.841 132.401 150.209 132.422 150.555 132.53C150.902 132.638 151.216 132.83 151.469 133.09C151.722 133.35 151.907 133.669 152.006 134.018C152.105 134.367 152.116 134.735 152.037 135.09Z" fill="#FF8B7B"/>
<path d="M140.467 131.188C140.403 131.207 140.334 131.204 140.271 131.18C140.208 131.156 140.155 131.112 140.12 131.055C139.325 129.819 137.448 129.719 137.448 129.719C137.406 129.718 137.365 129.709 137.326 129.692C137.288 129.675 137.254 129.65 137.225 129.62C137.197 129.589 137.174 129.553 137.16 129.514C137.145 129.475 137.139 129.433 137.14 129.392C137.142 129.349 137.152 129.308 137.17 129.27C137.188 129.232 137.213 129.197 137.244 129.169C137.275 129.14 137.311 129.118 137.351 129.103C137.39 129.089 137.432 129.082 137.474 129.084C137.561 129.084 139.712 129.198 140.681 130.708C140.703 130.742 140.719 130.781 140.726 130.821C140.733 130.862 140.733 130.904 140.724 130.944C140.715 130.984 140.699 131.023 140.675 131.056C140.652 131.09 140.622 131.119 140.587 131.142C140.551 131.166 140.51 131.182 140.467 131.188Z" fill="#263238"/>
<path d="M130.2 133.506C130.135 133.534 130.063 133.54 129.995 133.522C129.927 133.504 129.866 133.464 129.824 133.407C129.782 133.351 129.759 133.282 129.761 133.212C129.762 133.141 129.788 133.073 129.832 133.019C130.133 132.613 130.526 132.285 130.979 132.063C131.433 131.841 131.933 131.731 132.438 131.743C132.479 131.746 132.519 131.758 132.556 131.777C132.593 131.796 132.626 131.822 132.652 131.853C132.679 131.885 132.699 131.922 132.712 131.961C132.724 132.001 132.729 132.042 132.725 132.084C132.716 132.167 132.676 132.244 132.613 132.298C132.55 132.353 132.468 132.381 132.384 132.377C131.985 132.372 131.59 132.463 131.233 132.642C130.877 132.821 130.568 133.083 130.333 133.406C130.3 133.452 130.253 133.487 130.2 133.506Z" fill="#263238"/>
<path d="M99.6923 272.13L93.7805 269.511L99.5253 254.455L105.43 257.073L99.6923 272.13Z" fill="#FF8B7B"/>
<path d="M93.5534 268.262L100.688 270.68C100.811 270.72 100.916 270.804 100.983 270.916C101.049 271.028 101.073 271.16 101.048 271.288L99.9462 277.22C99.9122 277.368 99.8476 277.506 99.7567 277.627C99.6658 277.748 99.5505 277.849 99.4183 277.922C99.2861 277.996 99.14 278.041 98.9893 278.055C98.8385 278.068 98.6866 278.05 98.5434 278.002C96.0718 277.113 94.9228 276.565 91.7899 275.497C89.8594 274.829 85.7779 274.161 83.1059 273.259C80.4339 272.357 81.1954 269.672 82.3844 269.812C87.7284 270.433 90.2268 269.144 92.4044 268.309C92.771 268.163 93.1762 268.147 93.5534 268.262Z" fill="#263238"/>
<g opacity="0.2">
<path opacity="0.2" d="M105.43 257.08L99.5186 254.461L96.0985 263.446L102.311 265.269L105.43 257.08Z" fill="black"/>
</g>
<path d="M146.606 194.254C146.606 194.254 110.133 196.873 108.697 209.244C106.245 230.293 96.005 259.378 96.005 259.378L104.208 262.865C104.208 262.865 119.425 234.855 123.66 216.579C130.721 212.571 165.904 226.893 160.768 193.413L146.606 194.254Z" fill="#263238"/>
<path d="M105.13 264.074L94.2949 260.754L95.0698 256.759L107.107 260.326L105.13 264.074Z" fill="#E7B200"/>
<path d="M89.9529 267.962L89.9128 267.895C89.8373 267.76 89.7977 267.608 89.7977 267.454C89.7977 267.299 89.8373 267.148 89.9128 267.013C89.9489 266.924 90.0093 266.846 90.0873 266.789C90.1652 266.733 90.2575 266.699 90.3537 266.692C91.2087 266.606 92.7117 268.503 92.8787 268.696C92.8982 268.721 92.9088 268.752 92.9088 268.783C92.9088 268.815 92.8982 268.845 92.8787 268.87C92.8642 268.897 92.8417 268.92 92.8143 268.934C92.7869 268.948 92.7558 268.954 92.7251 268.95C91.9035 268.897 90.4205 268.656 89.9529 267.962ZM92.4111 268.63C91.7832 267.888 90.8547 266.973 90.4071 267.02C90.3642 267.023 90.3233 267.039 90.289 267.065C90.2547 267.091 90.2285 267.126 90.2134 267.167C90.1631 267.256 90.1367 267.358 90.1367 267.461C90.1367 267.563 90.1631 267.665 90.2134 267.754C90.4071 268.149 91.2288 268.463 92.4111 268.616V268.63Z" fill="#E7B200"/>
<path d="M92.5046 268.723C92.0437 268.055 91.516 266.545 91.8366 265.944C91.9022 265.832 92.0046 265.746 92.1264 265.701C92.2482 265.656 92.3819 265.654 92.5046 265.697C92.6245 265.721 92.7375 265.771 92.8357 265.844C92.9338 265.916 93.0147 266.01 93.0724 266.118C93.5601 266.959 92.9455 268.79 92.9188 268.87C92.9102 268.896 92.8944 268.92 92.8731 268.937C92.8519 268.955 92.826 268.966 92.7986 268.97C92.7721 268.976 92.7446 268.975 92.7188 268.966C92.693 268.958 92.6698 268.943 92.6516 268.923C92.5984 268.86 92.5493 268.793 92.5046 268.723ZM92.7785 266.231C92.7423 266.174 92.6945 266.124 92.6382 266.086C92.5818 266.049 92.5181 266.023 92.4512 266.011C92.2508 265.971 92.1773 266.011 92.1372 266.104C91.9034 266.512 92.2775 267.788 92.7184 268.469C92.8854 267.848 93.0925 266.779 92.8052 266.271L92.7785 266.231Z" fill="#E7B200"/>
<path d="M116.9 253.205L111.362 256.539L102.338 243.185L107.875 239.852L116.9 253.205Z" fill="#FF8B7B"/>
<path d="M110.22 256.004L116.299 251.555C116.4 251.488 116.522 251.457 116.643 251.467C116.765 251.478 116.879 251.531 116.967 251.615L121.175 255.917C121.277 256.029 121.354 256.162 121.402 256.306C121.449 256.45 121.465 256.602 121.449 256.753C121.434 256.904 121.386 257.049 121.31 257.181C121.234 257.312 121.131 257.425 121.008 257.514C118.864 259.024 117.755 259.645 115.083 261.602C113.44 262.804 110.521 265.777 108.249 267.434C105.978 269.09 104.241 266.939 105.01 266.044C108.583 262.036 108.978 259.244 109.525 256.999C109.631 256.596 109.878 256.243 110.22 256.004Z" fill="#263238"/>
<g opacity="0.2">
<path opacity="0.2" d="M107.875 239.859L102.338 243.192L107.722 251.155L112.785 247.113L107.875 239.859Z" fill="black"/>
</g>
<path d="M130.26 195.016C130.26 195.016 91.7498 193.246 89.512 205.497C85.6977 226.345 104.328 248.917 104.328 248.917L111.917 244.187C111.917 244.187 106.179 228.155 103.994 213.807C111.302 210.28 150.567 228.015 147.615 194.274L130.26 195.016Z" fill="#263238"/>
<path opacity="0.2" d="M117.521 200.547C116.902 200.548 116.29 200.687 115.731 200.954C111.282 203.052 107.996 205.757 107.448 209.244C107.241 210.58 107 211.916 106.733 213.299C107.174 213.299 107.642 213.299 108.143 213.299C108.356 211.916 108.543 210.554 108.697 209.224C109.124 205.51 112.705 202.678 117.521 200.54V200.547Z" fill="black"/>
<path d="M113.433 244.121L104.482 251.088L101.663 248.149L111.503 240.353L113.433 244.121Z" fill="#E7B200"/>
<path d="M107.889 258.776H107.809C107.655 258.756 107.51 258.697 107.386 258.604C107.262 258.512 107.164 258.39 107.1 258.249C107.052 258.165 107.027 258.071 107.027 257.975C107.027 257.879 107.052 257.784 107.1 257.701C107.528 256.959 109.946 256.819 110.22 256.799C110.251 256.798 110.282 256.806 110.308 256.823C110.334 256.84 110.355 256.864 110.367 256.893C110.383 256.919 110.391 256.949 110.391 256.98C110.391 257.01 110.383 257.04 110.367 257.066C109.772 257.721 108.724 258.797 107.889 258.776ZM109.839 257.147C108.871 257.233 107.588 257.467 107.368 257.861C107.344 257.897 107.332 257.939 107.332 257.982C107.332 258.024 107.344 258.066 107.368 258.102C107.407 258.196 107.47 258.278 107.551 258.341C107.632 258.403 107.727 258.442 107.829 258.456C108.303 258.516 109.031 258.022 109.839 257.18V257.147Z" fill="#E7B200"/>
<path d="M109.98 257.126C109.151 257.126 107.628 256.686 107.341 256.058C107.288 255.944 107.276 255.816 107.306 255.694C107.337 255.573 107.408 255.465 107.508 255.39C107.596 255.306 107.702 255.243 107.817 255.203C107.932 255.164 108.055 255.15 108.176 255.163C109.145 255.256 110.293 256.806 110.34 256.873C110.353 256.897 110.36 256.925 110.36 256.953C110.36 256.981 110.353 257.008 110.34 257.033C110.328 257.057 110.31 257.078 110.288 257.094C110.266 257.11 110.24 257.121 110.213 257.126C110.135 257.132 110.057 257.132 109.98 257.126ZM108.096 255.47C108.028 255.469 107.96 255.481 107.897 255.507C107.834 255.532 107.777 255.569 107.728 255.617C107.575 255.757 107.595 255.851 107.628 255.924C107.822 256.352 109.078 256.779 109.893 256.812C109.485 256.311 108.724 255.53 108.149 255.476L108.096 255.47Z" fill="#E7B200"/>
<path d="M138.877 133.219L137.541 133.139C137.541 133.139 138.403 133.981 138.877 133.219Z" fill="#263238"/>
<path d="M151.416 185.143L144.956 181.863L146.512 188.503C146.512 188.503 150.654 189.659 152.585 187.648L151.416 185.143Z" fill="#FF8B7B"/>
<path d="M166.552 159.492C166.833 160.046 167.027 160.474 167.22 160.948C167.414 161.422 167.615 161.883 167.802 162.351C168.176 163.286 168.523 164.228 168.85 165.17C169.485 167.06 170.019 168.977 170.494 170.908C170.968 172.838 171.322 174.789 171.623 176.753C171.756 177.741 171.896 178.723 171.983 179.712L172.11 181.195L172.144 181.596C172.144 181.803 172.144 182.003 172.144 182.217C172.139 182.666 172.092 183.113 172.003 183.553C171.811 184.467 171.411 185.324 170.834 186.058C170.328 186.699 169.713 187.246 169.017 187.675C167.919 188.318 166.72 188.769 165.47 189.011C163.397 189.416 161.281 189.564 159.171 189.451C155.244 189.276 151.347 188.692 147.541 187.708L148.116 184.368C151.779 184.605 155.454 184.605 159.118 184.368C160.805 184.274 162.476 183.991 164.101 183.526C164.708 183.361 165.282 183.092 165.798 182.731C165.911 182.658 166.002 182.554 166.058 182.431C166.058 182.371 166.058 182.391 166.058 182.364L165.764 180.534C165.617 179.639 165.43 178.75 165.27 177.862C164.896 176.092 164.462 174.328 164.001 172.584C163.54 170.841 162.965 169.118 162.364 167.421C162.07 166.566 161.756 165.724 161.429 164.896L160.928 163.667C160.768 163.279 160.574 162.832 160.44 162.538L166.552 159.492Z" fill="#FF8B7B"/>
<path d="M163.219 152.558C165.991 153.226 169.812 162.404 169.812 162.404L161.249 170.18C161.249 170.18 155.383 162.992 156.312 159.398C157.294 155.644 160.059 151.796 163.219 152.558Z" fill="#E7B200"/>
<path d="M139.432 182.952L141.035 188.436L146.519 188.503L144.963 181.863L139.432 182.952Z" fill="#FF8B7B"/>
<path d="M144.542 198.022H116.486C115.43 197.979 114.418 197.585 113.611 196.903C112.804 196.221 112.248 195.289 112.03 194.254L108.69 175.971C108.581 175.513 108.579 175.036 108.684 174.577C108.79 174.118 108.999 173.69 109.297 173.325C109.595 172.961 109.974 172.67 110.402 172.475C110.831 172.281 111.299 172.188 111.77 172.204H139.859C140.915 172.246 141.927 172.64 142.734 173.323C143.541 174.005 144.097 174.937 144.315 175.971L147.655 194.254C147.765 194.715 147.766 195.195 147.659 195.657C147.552 196.119 147.339 196.549 147.038 196.914C146.736 197.28 146.353 197.57 145.92 197.762C145.487 197.954 145.015 198.043 144.542 198.022Z" fill="white"/>
<path opacity="0.5" d="M144.041 198.022H116.452C115.396 197.979 114.385 197.585 113.578 196.903C112.771 196.221 112.215 195.289 111.997 194.254L108.657 175.971C108.548 175.513 108.546 175.036 108.651 174.577C108.756 174.118 108.966 173.69 109.264 173.325C109.562 172.961 109.94 172.67 110.369 172.475C110.798 172.281 111.266 172.188 111.736 172.204H139.325C140.381 172.246 141.392 172.64 142.199 173.323C143.006 174.005 143.563 174.937 143.78 175.971L147.12 194.254C147.23 194.712 147.232 195.189 147.126 195.648C147.021 196.107 146.811 196.536 146.513 196.9C146.215 197.265 145.837 197.556 145.408 197.75C144.979 197.945 144.511 198.038 144.041 198.022Z" fill="#E7B200"/>
<path d="M108.65 184.107L109.712 190.073L112.037 187.895L111.409 183.453C111.384 183.273 111.308 183.104 111.19 182.965C111.073 182.827 110.919 182.724 110.745 182.67C110.572 182.615 110.387 182.611 110.211 182.657C110.035 182.704 109.876 182.799 109.752 182.932L108.65 184.107Z" fill="#FF8B7B"/>
</svg>
