<svg width="100" height="100" viewBox="0 0 100 100" fill="none" xmlns="http://www.w3.org/2000/svg">
<path d="M93.1172 56.0609C99.1031 44.6578 86.9359 36.75 71.0281 32.8719C72.225 30.1516 72.5719 26.5906 69.1969 23.1906C64.8688 18.8391 67.7453 12.5 67.7453 12.5C67.7453 12.5 58.6609 20.8797 64.3969 26.6578C66.5125 28.7875 67.6141 30.6578 68.1406 32.2219C63.7491 31.3167 59.3024 30.7039 54.8297 30.3875C56.1656 26.7563 56.2953 22.1953 52.0859 17.8281C46.3234 11.8422 50.1609 3.125 50.1609 3.125C50.1609 3.125 38.0469 14.6469 45.6953 22.5906C48.4875 25.4875 49.9578 28.0375 50.6703 30.175C45.9297 30.0328 41.3672 30.2406 37.3141 30.8078C37.7969 28.4719 37.3938 25.7859 34.8172 23.1922C30.4891 18.8406 33.3672 12.5 33.3672 12.5C33.3672 12.5 24.2813 20.8797 30.0188 26.6578C31.8156 28.4672 32.8688 30.0828 33.4734 31.4906C32.7891 31.6406 32.125 31.8031 31.4859 31.9797C11.7328 30.1312 3.1172 34.2125 7.05314 42.2188C0.184385 49.0875 2.76563 56.9266 11.3609 62.925C15.8453 81.3953 17 96.875 50.775 96.875C80.9125 96.875 85.0766 84.5469 88.8094 68.7688C100.009 66.5391 97.6235 61.1703 93.1172 56.0609ZM90.325 54.2156C86.5734 62.2156 70.2922 68.2375 50.775 68.2375C31.2594 68.2375 14.9781 62.2156 11.225 54.2156C11.1453 53.9781 11.0688 53.7313 10.9922 53.4906C12.7797 48.9563 18.5891 45.0219 26.7484 42.3875C24.8313 44.2406 24.4328 47.0078 29.4781 47.9781C30.9219 48.2562 34.8859 47.2938 33.1531 42.375C32.9109 41.6875 32.5156 41.2266 32.0297 40.9484C37.6359 39.6656 44 38.9266 50.775 38.9266C51.5344 38.9266 52.2797 38.9531 53.0281 38.9703C49.1188 40.3578 45.9297 44.6328 53.9125 45.8937C55.675 46.1719 60.5141 45.2094 58.3984 40.2906C58.2136 39.8522 57.9174 39.4698 57.5391 39.1813C65.0188 39.7313 71.7953 41.1719 77.2735 43.2484C72.4563 42.9797 67.1125 45.9484 75.6703 50.1281C77.5063 51.025 83.0844 51.8484 82.3172 46.4172C82.2617 46.0248 82.1232 45.6487 81.9109 45.3141C86.2906 47.6219 89.3453 50.4203 90.5563 53.4906L90.325 54.2156Z" fill="#FFC727"/>
<path d="M40.3703 57.5641C45.4219 57.5641 48.7906 52.9969 51.4297 51.2094C55.1172 48.7094 64.3891 47.7344 56.2235 47.5375C48.4781 47.3516 38.9156 53.6391 32.525 53.2063C21.9438 52.4875 32.7813 57.5641 40.3703 57.5641ZM51.286 66.8953C53.0703 67.2391 57.975 66.0484 55.8297 59.9656C53.4063 53.0828 38.736 64.4797 51.286 66.8953ZM23.511 51.8406C21.8063 49.4344 19.3344 46.3828 18.311 47.9719C16.9125 50.1453 16.4719 54.5188 17.4875 54.7125C25.45 56.2391 24.8922 53.7891 23.511 51.8406ZM69.8 52.8156C71.236 51.0375 68.3688 46.7578 66.5281 47.5063C63.6469 48.6781 61.986 47.8844 60.7203 49.6625C57.7563 53.8266 67.8485 55.2297 69.8 52.8156ZM68.9031 57.9109C66.8375 57 67.325 60.0516 64.2735 57.6031C62.0891 55.85 57.3891 60.2719 60.4891 63.275C63.9391 66.6172 64.8578 63.4406 66.3078 63.7078C69.2547 64.25 74.3219 60.3016 68.9031 57.9109ZM34.5563 58.9547C33.4797 57.8953 32.036 59.1735 31.2203 60.7328C30.4125 60.336 29.7547 60.2438 29.7547 60.2438C29.1375 58.4844 27.3016 57.2781 27.3016 57.2781C27.3016 57.2781 27.4688 59.1078 27.711 60C25.6828 59.2797 25.6203 55.6547 25.6203 55.6547C25.6203 55.6547 24.2594 56.4688 24.3828 57.8516C22.15 56.05 20.2485 56.8922 20.2485 56.8922C20.2485 56.8922 23.0813 58.4859 23.4719 59.5609C21.8813 59.6844 20.9531 60.2344 20.4125 61.5141C20.4141 61.525 23.5563 60.0188 25.8813 61.1063C24.9641 61.8563 25.4203 63.7297 25.4203 63.7297C27.5844 61.4359 29.3125 61.6813 30.6953 62.0922C30.5281 62.7938 30.5391 63.4344 30.836 63.8235C33.2344 66.9766 41.5891 66.2672 43.8328 63.9359C46.55 61.1156 39 63.3281 34.5563 58.9547Z" fill="#FFC727"/>
<path d="M40.4578 47.0781C39.7469 48.5063 39.7422 49.5844 40.5641 50.7063C40.575 50.7094 40.8953 47.2406 43.0219 45.8031C43.1953 46.975 45.0359 47.5438 45.0359 47.5438C43.564 42.3313 47.8609 42.0594 47.8406 40.1891C45.5625 40.3813 44.2687 42.0375 44.2687 42.0375C42.4422 41.6641 40.4625 42.6188 40.4625 42.6188C40.4625 42.6188 42.1203 43.4141 43.0094 43.6656C41.35 45.036 38.2062 43.2281 38.2062 43.2281C38.2062 43.2281 38.2062 44.8156 39.4562 45.4172C36.7641 46.4094 36.5109 48.4719 36.5109 48.4719C36.5109 48.4719 39.3328 46.861 40.4578 47.0781ZM80.3812 54.1969C81.0281 52.9688 80.0844 51.6922 80.0844 51.6922C80.0844 51.6922 78.6328 55.0156 76.4844 54.9016C77.05 54.1703 77.9094 52.5453 77.9094 52.5453C77.9094 52.5453 75.75 52.9563 74.5031 54.3422C74.5031 54.3422 72.4781 53.7813 70.5344 54.9813C71.6312 56.4969 75.2469 54.1578 77.164 59.2235C77.164 59.2235 78.3047 57.6719 77.7469 56.6266C80.3125 56.5156 82.6344 59.1125 82.6422 59.1031C82.6328 57.7125 81.989 56.85 80.5656 56.125C81.3406 55.2828 84.5687 54.9 84.5687 54.9C84.5687 54.9 83.1375 53.3922 80.3812 54.1969Z" fill="#FFC727"/>
</svg>
